<svg width="39" height="39" viewBox="0 0 39 39" fill="none" xmlns="http://www.w3.org/2000/svg">
<path id="Vector" d="M30.231 16.2689C31.4069 16.7774 31.6156 18.3563 30.6122 19.1528L11.818 34.0714C11.3196 34.467 10.6417 34.5502 10.0624 34.2869L8.07882 33.3854C6.92594 32.8614 6.73368 31.3043 7.72445 30.5156L17.3927 22.8193L19.9891 20.7525C20.9799 19.9638 20.7877 18.4067 19.6348 17.8827L16.6128 16.5092L5.68892 11.5452C5.01969 11.2411 4.62268 10.5404 4.70582 9.81004L4.94403 7.7175C5.07274 6.5868 6.25685 5.90149 7.30138 6.35319L30.231 16.2689ZM37.8037 18.2022C38.8072 17.4057 38.5985 15.8268 37.4225 15.3183L4.16811 0.938977C3.12372 0.487377 1.93976 1.17246 1.81085 2.30299L0.6956 12.0832C0.612311 12.8136 1.0093 13.5145 1.6786 13.8187L12.5502 18.7593C13.7031 19.2832 13.8954 20.8404 12.9046 21.6291L0.640149 31.392C-0.350673 32.1807 -0.158361 33.7378 0.994583 34.2618L10.5931 38.6239C11.1723 38.8871 11.8502 38.8039 12.3485 38.4083L37.8037 18.2022Z" fill="#0B8CFF"/>
</svg>
