<svg width="383" height="294" viewBox="0 0 383 294" fill="none" xmlns="http://www.w3.org/2000/svg">
<path d="M201.775 111.083C209.573 111.591 214.062 120.274 209.809 126.623L129.405 246.638C127.435 249.578 123.992 251.209 120.384 250.911L106.009 249.724C98.3026 249.088 93.946 240.494 98.1438 234.209L139.233 172.689L150.146 156.351C154.344 150.066 149.987 141.471 142.281 140.835L121.419 139.113L45.9697 132.891C41.5488 132.526 37.8142 129.358 36.7694 125.085L33.7675 112.809C32.1897 106.357 37.271 100.367 43.953 100.802L201.775 111.083ZM250.476 107.235C254.729 100.887 250.24 92.2034 242.441 91.6957L14.0528 76.8248C7.37172 76.3898 2.29081 82.3783 3.8671 88.8299L17.7356 145.593C18.7797 149.867 22.5145 153.036 26.936 153.401L102.093 159.601C109.8 160.237 114.157 168.831 109.959 175.117L57.9577 252.974C53.7597 259.259 58.1167 267.853 65.8234 268.489L132.596 273.998C136.204 274.296 139.647 272.665 141.617 269.725L250.476 107.235Z" fill="#307FE2"/>
<path d="M320.327 52.0166C328.125 52.5246 332.615 61.208 328.362 67.5563L287.075 129.183C285.228 131.94 281.998 133.47 278.614 133.19C271.385 132.594 267.299 124.533 271.236 118.637L291.613 88.1281L293.955 84.6217C298.153 78.3366 293.797 69.7423 286.09 69.1061L281.311 68.7116L240.312 65.3304C236.191 64.9906 232.711 62.0375 231.737 58.0553C230.266 52.0414 235.002 46.4585 241.23 46.8642L320.327 52.0166ZM351.879 56.3449C356.132 49.9965 351.642 41.313 343.844 40.8052L224.844 33.0569C218.163 32.6218 213.082 38.6103 214.658 45.0619L220.611 69.4255C221.655 73.6989 225.389 76.8683 229.811 77.2331L262.85 79.9588C270.556 80.5947 274.913 89.189 270.715 95.4743L248.581 128.615C244.383 134.9 248.74 143.494 256.446 144.13L285.314 146.512C288.922 146.809 292.365 145.179 294.335 142.239L351.879 56.3449Z" fill="#FDB32F"/>
</svg>
