<svg width="52" height="73" viewBox="0 0 52 73" fill="none" xmlns="http://www.w3.org/2000/svg">
<path d="M28.837 40.2577C28.4825 40.9251 27.5442 40.9732 27.1233 40.3456L10.7932 15.9936C10.5842 15.6819 10.5673 15.2794 10.7494 14.9513L12.954 10.9795C13.3166 10.3263 14.2412 10.2868 14.6582 10.9067L23.3212 23.7867L26.2626 28.1603C26.6795 28.7802 27.6042 28.7407 27.9667 28.0875L30.5253 23.4779L37.4549 10.9909C37.6653 10.6118 38.096 10.4115 38.5215 10.4948L42.7452 11.3225C43.4039 11.4516 43.7509 12.1801 43.436 12.7729L28.837 40.2577ZM27.5447 48.5628C27.9656 49.1905 28.9039 49.1424 29.2584 48.4749L49.841 9.72221C50.1559 9.12948 49.809 8.40103 49.1504 8.27184L36.316 5.75428C35.8905 5.6708 35.4596 5.87113 35.2492 6.25032L27.6194 19.998C27.2569 20.6512 26.3322 20.6907 25.9153 20.0709L14.3109 2.81735C13.894 2.19746 12.9693 2.23698 12.6068 2.89018L5.79853 15.1575C5.61643 15.4856 5.63335 15.8881 5.84235 16.1997L27.5447 48.5628Z" fill="url(#paint0_linear_7788_1605)" fill-opacity="0.8"/>
<path d="M28.837 60.2675C28.4825 60.9349 27.5442 60.983 27.1233 60.3553L10.7932 36.0033C10.5842 35.6917 10.5673 35.2892 10.7494 34.9611L12.954 30.9892C13.3166 30.3361 14.2412 30.2966 14.6582 30.9164L23.3212 43.7965L26.2626 48.1701C26.6795 48.7899 27.6042 48.7505 27.9667 48.0973L30.5253 43.4877L37.4549 31.0007C37.6653 30.6216 38.096 30.4212 38.5215 30.5046L42.7452 31.3323C43.4039 31.4614 43.7509 32.1899 43.436 32.7827L28.837 60.2675ZM27.5447 68.5726C27.9656 69.2003 28.9039 69.1521 29.2584 68.4847L49.841 29.732C50.1559 29.1392 49.809 28.4108 49.1504 28.2816L36.316 25.764C35.8905 25.6806 35.4596 25.8809 35.2492 26.2601L27.6194 40.0078C27.2569 40.661 26.3322 40.7005 25.9153 40.0806L14.3109 22.8271C13.894 22.2072 12.9693 22.2467 12.6068 22.8999L5.79853 35.1673C5.61643 35.4954 5.63335 35.8978 5.84235 36.2095L27.5447 68.5726Z" fill="url(#paint1_linear_7788_1605)" fill-opacity="0.8"/>
<defs>
<linearGradient id="paint0_linear_7788_1605" x1="21.1671" y1="48.5833" x2="29.4191" y2="4.45793" gradientUnits="userSpaceOnUse">
<stop stop-color="white"/>
<stop offset="1" stop-color="#307FE2" stop-opacity="0"/>
</linearGradient>
<linearGradient id="paint1_linear_7788_1605" x1="21.1671" y1="68.5931" x2="29.4191" y2="24.4677" gradientUnits="userSpaceOnUse">
<stop stop-color="white"/>
<stop offset="1" stop-color="#E2D030" stop-opacity="0"/>
</linearGradient>
</defs>
</svg>
