<svg width="45" height="47" viewBox="0 0 45 47" fill="none" xmlns="http://www.w3.org/2000/svg">
<path d="M23.837 38.2577C23.4825 38.9251 22.5442 38.9732 22.1233 38.3456L5.79321 13.9936C5.5842 13.6819 5.56729 13.2794 5.74942 12.9513L7.95404 8.97945C8.31658 8.32629 9.24124 8.2868 9.65815 8.90666L18.3212 21.7867L21.2626 26.1603C21.6795 26.7802 22.6042 26.7407 22.9667 26.0875L25.5253 21.4779L32.4549 8.99095C32.6653 8.61181 33.096 8.41146 33.5215 8.49485L37.7452 9.3225C38.4039 9.45158 38.7509 10.1801 38.436 10.7729L23.837 38.2577ZM22.5447 46.5628C22.9656 47.1905 23.9039 47.1424 24.2584 46.4749L44.841 7.72221C45.1559 7.12948 44.809 6.40103 44.1504 6.27184L31.316 3.75428C30.8905 3.6708 30.4596 3.87113 30.2492 4.25032L22.6194 17.998C22.2569 18.6512 21.3322 18.6907 20.9153 18.0709L9.31092 0.817353C8.89399 0.197462 7.96929 0.23698 7.60677 0.890182L0.798527 13.1575C0.616429 13.4856 0.633352 13.8881 0.842351 14.1997L22.5447 46.5628Z" fill="url(#paint0_linear_8707_1840)"/>
<defs>
<linearGradient id="paint0_linear_8707_1840" x1="16.1671" y1="46.5833" x2="24.4191" y2="2.45793" gradientUnits="userSpaceOnUse">
<stop stop-color="#0B8CFF"/>
<stop offset="1" stop-color="#104F98"/>
</linearGradient>
</defs>
</svg>
