<svg width="45" height="48" viewBox="0 0 45 48" fill="none" xmlns="http://www.w3.org/2000/svg">
<path d="M23.837 38.2675C23.4825 38.9349 22.5442 38.983 22.1233 38.3553L5.79321 14.0033C5.5842 13.6917 5.56729 13.2892 5.74942 12.9611L7.95404 8.98922C8.31658 8.33606 9.24124 8.29656 9.65815 8.91643L18.3212 21.7965L21.2626 26.1701C21.6795 26.79 22.6042 26.7505 22.9667 26.0973L25.5253 21.4877L32.4549 9.00072C32.6653 8.62157 33.096 8.42123 33.5215 8.50461L37.7452 9.33227C38.4039 9.46135 38.7509 10.1899 38.436 10.7827L23.837 38.2675ZM22.5447 46.5726C22.9656 47.2003 23.9039 47.1521 24.2584 46.4847L44.841 7.73198C45.1559 7.13925 44.809 6.4108 44.1504 6.28161L31.316 3.76405C30.8905 3.68057 30.4596 3.8809 30.2492 4.26008L22.6194 18.0078C22.2569 18.661 21.3322 18.7005 20.9153 18.0806L9.31092 0.827119C8.89399 0.207227 7.96929 0.246746 7.60677 0.899947L0.798527 13.1673C0.616429 13.4954 0.633352 13.8978 0.842351 14.2095L22.5447 46.5726Z" fill="url(#paint0_linear_8707_1841)"/>
<defs>
<linearGradient id="paint0_linear_8707_1841" x1="16.1671" y1="46.5931" x2="24.4191" y2="2.4677" gradientUnits="userSpaceOnUse">
<stop stop-color="#FFE6AD"/>
<stop offset="1" stop-color="#FDB32F"/>
</linearGradient>
</defs>
</svg>
