<svg width="16" height="16" viewBox="0 0 16 16" fill="none" xmlns="http://www.w3.org/2000/svg">
<path fill-rule="evenodd" clip-rule="evenodd" d="M15.7586 5.08372V3.06228C15.7586 2.30301 15.1408 1.68518 14.3816 1.68518H12.7134V0.56862C12.7134 0.357962 12.5429 0.1875 12.3323 0.1875C12.1216 0.1875 11.9512 0.357962 11.9512 0.56862V1.68518H4.3444V0.56862C4.3444 0.357962 4.17394 0.1875 3.96329 0.1875C3.75263 0.1875 3.58217 0.357962 3.58217 0.56862V1.68518H1.90769C1.14843 1.68518 0.530601 2.30301 0.530601 3.06228V5.11507C0.5303 5.11925 0.529161 5.12314 0.528025 5.12702C0.526706 5.13152 0.525391 5.13602 0.525391 5.14094C0.525391 5.14586 0.526706 5.15036 0.528025 5.15486L0.528026 5.15486C0.529162 5.15874 0.5303 5.16263 0.530601 5.16681V14.0466C0.530601 14.8059 1.14843 15.4237 1.90769 15.4237H14.3816C15.1408 15.4237 15.7586 14.8059 15.7586 14.0466V5.19817C15.7598 5.19056 15.7619 5.18326 15.7639 5.17597L15.7639 5.17597C15.767 5.16462 15.7702 5.15332 15.7702 5.14094C15.7702 5.12856 15.767 5.11726 15.7639 5.10592L15.7639 5.10591C15.7619 5.09862 15.7598 5.09132 15.7586 5.08372ZM1.90764 2.44738H3.58211V3.61642C3.58211 3.82708 3.75257 3.99754 3.96323 3.99754C4.17389 3.99754 4.34435 3.82708 4.34435 3.61642V2.44738H11.9511V3.61642C11.9511 3.82708 12.1216 3.99754 12.3322 3.99754C12.5429 3.99754 12.7134 3.82708 12.7134 3.61642V2.44738H14.3815C14.7206 2.44738 14.9964 2.72317 14.9964 3.06224V4.75978H1.29278V3.06224C1.29278 2.72317 1.56858 2.44738 1.90764 2.44738ZM1.90764 14.6615H14.3815C14.7206 14.6615 14.9964 14.3857 14.9964 14.0466V5.52202H1.29278V14.0466C1.29278 14.3857 1.56858 14.6615 1.90764 14.6615Z" fill="#565C65"/>
</svg>
