<svg width="37" height="37" viewBox="0 0 37 37" fill="none" xmlns="http://www.w3.org/2000/svg">
<rect x="1.04785" y="1.01611" width="35" height="35" rx="17.5" stroke="#0B5ABD"/>
<g clip-path="url(#clip0_29_351)">
<path d="M20.513 11.1497C20.6553 11.1896 20.7884 11.2571 20.9047 11.3484C21.0209 11.4397 21.1181 11.553 21.1905 11.6818C21.2629 11.8107 21.3093 11.9526 21.3269 12.0993C21.3444 12.2461 21.3329 12.3949 21.293 12.5372L17.9697 24.3775C17.8892 24.6648 17.6977 24.9084 17.4376 25.0546C17.1775 25.2008 16.8699 25.2377 16.5826 25.1571C16.2953 25.0766 16.0517 24.8852 15.9055 24.625C15.7593 24.3649 15.7224 24.0573 15.803 23.77L19.1262 11.9282C19.1661 11.786 19.2337 11.6529 19.325 11.5367C19.4163 11.4206 19.5297 11.3235 19.6585 11.2512C19.7874 11.1788 19.9292 11.1325 20.076 11.115C20.2227 11.0975 20.3714 11.109 20.5137 11.149L20.513 11.1497ZM15.218 14.176C15.4286 14.3869 15.547 14.6729 15.547 14.971C15.547 15.2691 15.4286 15.5551 15.218 15.766L12.833 18.1532L15.2195 20.5397C15.4304 20.7508 15.5489 21.037 15.5488 21.3354C15.5487 21.6338 15.4301 21.9199 15.2191 22.1309C15.008 22.3418 14.7218 22.4603 14.4234 22.4602C14.1251 22.4601 13.8389 22.3415 13.628 22.1305L10.4457 18.9482C10.235 18.7373 10.1167 18.4514 10.1167 18.1532C10.1167 17.8551 10.235 17.5692 10.4457 17.3582L13.6272 14.176C13.7317 14.0714 13.8557 13.9885 13.9923 13.9319C14.1288 13.8754 14.2752 13.8462 14.423 13.8462C14.5708 13.8462 14.7171 13.8754 14.8536 13.9319C14.9902 13.9885 15.1135 14.0714 15.218 14.176ZM21.878 15.766C21.7674 15.663 21.6788 15.5388 21.6173 15.4008C21.5558 15.2628 21.5227 15.1138 21.5201 14.9628C21.5174 14.8117 21.5452 14.6617 21.6018 14.5216C21.6584 14.3815 21.7426 14.2543 21.8494 14.1474C21.9562 14.0406 22.0835 13.9564 22.2236 13.8998C22.3636 13.8432 22.5137 13.8154 22.6647 13.8181C22.8158 13.8208 22.9648 13.8538 23.1028 13.9153C23.2408 13.9768 23.365 14.0655 23.468 14.176L26.6502 17.3575C26.8611 17.5685 26.9796 17.8546 26.9796 18.1529C26.9796 18.4512 26.8611 18.7373 26.6502 18.9482L23.4687 22.1305C23.3643 22.235 23.2402 22.3179 23.1038 22.3745C22.9673 22.431 22.821 22.4602 22.6732 22.4602C22.5255 22.4602 22.3792 22.4312 22.2427 22.3747C22.1061 22.3182 21.9821 22.2353 21.8776 22.1309C21.7731 22.0264 21.6902 21.9024 21.6336 21.7659C21.577 21.6294 21.5479 21.4831 21.5479 21.3354C21.5478 21.1876 21.5769 21.0413 21.6334 20.9048C21.6899 20.7683 21.7728 20.6442 21.8772 20.5397L24.2637 18.1532L21.878 15.766Z" fill="#0B5ABD"/>
</g>
<defs>
<clipPath id="clip0_29_351">
<rect width="18" height="18" fill="white" transform="translate(9.54785 9.51611)"/>
</clipPath>
</defs>
</svg>
