<svg width="37" height="37" viewBox="0 0 37 37" fill="none" xmlns="http://www.w3.org/2000/svg">
<rect x="1.04785" y="1.01611" width="35" height="35" rx="17.5" stroke="#0B5ABD"/>
<path d="M12.5479 21.6936V24.1936H15.0479L22.4213 16.8136L19.9213 14.3136L12.5479 21.6936ZM25.6213 22.4336L22.7879 25.2669L19.3213 21.8002L20.5013 20.6202L21.1679 21.2869L22.8146 19.6336L23.7613 20.5802L22.7879 21.5269L23.4946 22.1936L24.4413 21.2602L25.6213 22.4336ZM14.9546 17.4136L11.4746 13.9536L14.3079 11.1202L15.4813 12.3002L13.8346 13.9536L14.5479 14.6602L16.1879 13.0069L17.1346 13.9536L16.1879 14.8936L16.8546 15.5602L14.9546 17.4136ZM24.3546 14.8602C24.6146 14.6002 24.6146 14.1936 24.3546 13.9202L22.7946 12.3869C22.5479 12.1269 22.1146 12.1269 21.8546 12.3869L20.6279 13.6069L23.1279 16.1069L24.3546 14.8602Z" fill="#0B5ABD"/>
</svg>
