<svg width="56" height="57" viewBox="0 0 56 57" fill="none" xmlns="http://www.w3.org/2000/svg">
<rect x="0.777778" y="0.793891" width="54.4444" height="54.4444" rx="27.2222" stroke="#0B5ABD" stroke-width="1.55556"/>
<path d="M26.6667 14.683C20.776 14.683 16 19.4096 16 25.2416C16 27.2323 16.556 29.095 17.524 30.683M31.3333 26.683V29.3496M35.3333 26.683V29.3496M31.3333 16.0163V18.683M35.3333 16.0163V18.683M29.3333 20.683H26.6667M29.3333 24.683H26.6667M40 20.683H37.3333M40 24.683H37.3333M30.6667 37.3496L30.4933 38.2123C30.3067 39.155 30.212 39.6256 30 39.999C29.6733 40.5744 29.1444 41.0078 28.516 41.215C28.1093 41.3496 27.6267 41.3496 26.6667 41.3496C25.7067 41.3496 25.224 41.3496 24.8173 41.2163C24.1887 41.0088 23.6598 40.5749 23.3333 39.999C23.1213 39.6256 23.0267 39.155 22.84 38.2123L22.6667 37.3496M34.6667 18.683H32C30.7427 18.683 30.1147 18.683 29.724 19.0737C29.3333 19.4643 29.3333 20.0923 29.3333 21.3496V24.0163C29.3333 25.2736 29.3333 25.9016 29.724 26.2923C30.1147 26.683 30.7427 26.683 32 26.683H34.6667C35.924 26.683 36.552 26.683 36.9427 26.2923C37.3333 25.9016 37.3333 25.2736 37.3333 24.0163V21.3496C37.3333 20.0923 37.3333 19.4643 36.9427 19.0737C36.552 18.683 35.924 18.683 34.6667 18.683ZM20.5107 34.8136C20.388 34.4456 20.3267 34.2603 20.3333 34.111C20.3409 33.9566 20.393 33.8077 20.4834 33.6822C20.5738 33.5568 20.6986 33.4603 20.8427 33.4043C20.9813 33.3496 21.176 33.3496 21.5627 33.3496H31.7707C32.1587 33.3496 32.352 33.3497 32.4907 33.403C32.635 33.4591 32.7599 33.5558 32.8503 33.6815C32.9407 33.8071 32.9927 33.9563 33 34.111C33.0067 34.2603 32.9453 34.4443 32.8227 34.8136C32.596 35.495 32.4827 35.8363 32.308 36.1123C31.9427 36.6891 31.37 37.1038 30.708 37.271C30.3907 37.3496 30.0333 37.3496 29.3173 37.3496H24.016C23.3 37.3496 22.9413 37.3496 22.6253 37.2696C21.9636 37.1028 21.3909 36.6886 21.0253 36.1123C20.8507 35.8363 20.7373 35.495 20.5107 34.8136Z" stroke="#0B5ABD" stroke-width="2" stroke-linecap="round" stroke-linejoin="round"/>
</svg>
