<svg width="56" height="57" viewBox="0 0 56 57" fill="none" xmlns="http://www.w3.org/2000/svg">
<rect x="0.777778" y="1.29389" width="54.4444" height="54.4444" rx="27.2222" stroke="#0B5ABD" stroke-width="1.55556"/>
<g clip-path="url(#clip0_81_171)">
<path d="M27.9112 27.8939C30.3112 27.8939 32.1779 25.9384 32.1779 23.5384C32.1779 21.1384 30.2223 19.2717 27.8223 19.2717C25.4223 19.2717 23.5557 21.2273 23.5557 23.5384C23.5557 25.9384 25.5112 27.8939 27.9112 27.8939ZM27.8223 21.0495C27.9112 21.0495 27.9112 21.0495 27.8223 21.0495C29.2446 21.0495 30.4001 22.2051 30.4001 23.6273C30.4001 25.0495 29.2446 26.1162 27.8223 26.1162C26.4001 26.1162 25.3334 24.9606 25.3334 23.6273C25.3334 22.2051 26.489 21.0495 27.8223 21.0495Z" fill="#0B5ABD"/>
<path d="M41.0666 27.3605C39.3777 25.8494 37.1555 25.0494 34.8444 25.1383H34.1333C33.9555 25.8494 33.6888 26.4716 33.3333 27.0049C33.8666 26.9161 34.311 26.9161 34.8444 26.9161C36.5333 26.8272 38.2221 27.3605 39.5555 28.3383V34.7383H41.3333V27.6272L41.0666 27.3605Z" fill="#0B5ABD"/>
<path d="M32.8001 19.4495C33.2446 18.3828 34.489 17.8495 35.6446 18.2939C36.7112 18.7384 37.2446 19.9828 36.8001 21.1384C36.4446 21.9384 35.6446 22.4717 34.8446 22.4717C34.6668 22.4717 34.4001 22.4717 34.2223 22.3828C34.3112 22.8273 34.3112 23.2717 34.3112 23.6273V24.1606C34.489 24.1606 34.6668 24.2495 34.8446 24.2495C37.0668 24.2495 38.8446 22.4717 38.8446 20.3384C38.8446 18.1162 37.0668 16.3384 34.9334 16.3384C33.5112 16.3384 32.2668 17.0495 31.5557 18.2939C32.0001 18.5606 32.4446 18.9162 32.8001 19.4495Z" fill="#0B5ABD"/>
<path d="M22.6667 27.0939C22.3112 26.5606 22.0445 25.9384 21.8667 25.2273H21.1556C18.8445 25.1384 16.6223 25.9384 14.9334 27.3606L14.6667 27.6273V34.7384H16.4445V28.3384C17.8667 27.3606 19.4667 26.8273 21.1556 26.9162C21.689 26.9162 22.2223 27.0051 22.6667 27.0939Z" fill="#0B5ABD"/>
<path d="M21.1555 24.1606C21.3333 24.1606 21.511 24.1606 21.6888 24.0717V23.5384C21.6888 23.0939 21.6888 22.6495 21.7777 22.2939C21.5999 22.3828 21.3333 22.3828 21.1555 22.3828C19.9999 22.3828 19.0222 21.405 19.0222 20.2495C19.0222 19.0939 19.9999 18.1161 21.1555 18.1161C22.0444 18.1161 22.8444 18.6495 23.1999 19.4495C23.5555 19.005 24.0888 18.5606 24.5333 18.205C23.3777 16.3384 20.9777 15.7161 19.111 16.8717C17.2444 18.0273 16.6222 20.4273 17.7777 22.2939C18.4888 23.4495 19.7333 24.1606 21.1555 24.1606Z" fill="#0B5ABD"/>
<path d="M35.2 32.6939L35.0222 32.4273C33.2445 30.4717 30.7556 29.3162 28.0889 29.4051C25.4222 29.3162 22.8445 30.4717 21.0667 32.4273L20.8889 32.6939V39.4495C20.8889 40.2495 21.5111 40.9606 22.4 40.9606H33.7778C34.5778 40.9606 35.2889 40.2495 35.2889 39.4495V32.6939H35.2ZM33.4222 39.1828H22.6667V33.3162C24.0889 31.8939 26.0445 31.1828 28.0889 31.1828C30.0445 31.0939 32 31.8939 33.4222 33.3162V39.1828Z" fill="#0B5ABD"/>
</g>
<defs>
<clipPath id="clip0_81_171">
<rect width="32" height="32" fill="white" transform="translate(12 12.5161)"/>
</clipPath>
</defs>
</svg>
