<svg width="27" height="28" viewBox="0 0 27 28" fill="none" xmlns="http://www.w3.org/2000/svg">
<path id="Vector" d="M18.5107 26.7695V22.1683C18.5553 21.6013 18.4787 21.0314 18.286 20.4963C18.0933 19.9613 17.7889 19.4734 17.393 19.0651C21.1264 18.6489 25.0499 17.2341 25.0499 10.7424C25.0496 9.08237 24.4111 7.48604 23.2665 6.28376C23.8085 4.83146 23.7702 3.22618 23.1595 1.80139C23.1595 1.80139 21.7565 1.38525 18.5107 3.56105C15.7856 2.82249 12.913 2.82249 10.1879 3.56105C6.94209 1.38525 5.53912 1.80139 5.53912 1.80139C4.92844 3.22618 4.89012 4.83146 5.43211 6.28376C4.27897 7.49496 3.63978 9.10571 3.64867 10.778C3.64867 17.2222 7.57224 18.6371 11.3056 19.1007C10.9144 19.505 10.6127 19.987 10.4202 20.5155C10.2276 21.044 10.1485 21.6071 10.1879 22.1683V26.7695M10.1879 23.2027C4.24315 24.9861 4.24315 20.2303 1.86523 19.6358L10.1879 23.2027Z" stroke="#8FC1FF" stroke-width="2" stroke-linecap="round" stroke-linejoin="round"/>
</svg>
