<svg width="29" height="28" viewBox="0 0 29 28" fill="none" xmlns="http://www.w3.org/2000/svg">
<g id="Group 90">
<path id="Vector" d="M19.4709 9.66406C21.5647 9.66406 23.5728 10.4958 25.0533 11.9764C26.5339 13.4569 27.3656 15.465 27.3656 17.5588V26.7693H22.1025V17.5588C22.1025 16.8609 21.8252 16.1915 21.3317 15.698C20.8382 15.2045 20.1688 14.9272 19.4709 14.9272C18.773 14.9272 18.1036 15.2045 17.6101 15.698C17.1166 16.1915 16.8393 16.8609 16.8393 17.5588V26.7693H11.5762V17.5588C11.5762 15.465 12.4079 13.4569 13.8885 11.9764C15.369 10.4958 17.3771 9.66406 19.4709 9.66406V9.66406Z" stroke="#8FC1FF" stroke-width="2" stroke-linecap="round" stroke-linejoin="round"/>
<path id="Vector_2" d="M6.31394 10.9805H1.05078V26.7699H6.31394V10.9805Z" stroke="#8FC1FF" stroke-width="2" stroke-linecap="round" stroke-linejoin="round"/>
<path id="Vector_3" d="M3.68236 7.03269C5.13574 7.03269 6.31394 5.85449 6.31394 4.40111C6.31394 2.94773 5.13574 1.76953 3.68236 1.76953C2.22898 1.76953 1.05078 2.94773 1.05078 4.40111C1.05078 5.85449 2.22898 7.03269 3.68236 7.03269Z" stroke="#8FC1FF" stroke-width="2" stroke-linecap="round" stroke-linejoin="round"/>
</g>
</svg>
