<svg width="562" height="193" viewBox="0 0 562 193" fill="none" xmlns="http://www.w3.org/2000/svg">
<mask id="path-1-outside-1_7788_1600" maskUnits="userSpaceOnUse" x="-2" y="-2" width="566" height="197" fill="black">
<rect fill="white" x="-2" y="-2" width="566" height="197"/>
<path d="M9.04 94V27.76H30.88V94H9.04ZM0.64 43.6V27.76H30.88V43.6H0.64ZM18.04 22.48C14.04 22.48 11.08 21.48 9.16 19.48C7.32 17.4 6.4 14.76 6.4 11.56C6.4 8.35999 7.32 5.75999 9.16 3.76C11.08 1.67999 14 0.639993 17.92 0.639993C21.92 0.639993 24.84 1.67999 26.68 3.76C28.52 5.75999 29.44 8.35999 29.44 11.56C29.44 14.76 28.52 17.4 26.68 19.48C24.84 21.48 21.96 22.48 18.04 22.48ZM46.9356 94V27.76H64.2156V56.2H63.2556C63.2556 49.32 64.1356 43.64 65.8956 39.16C67.6556 34.6 70.2556 31.2 73.6956 28.96C77.2156 26.72 81.4556 25.6 86.4156 25.6H87.3756C94.8956 25.6 100.696 28.12 104.776 33.16C108.936 38.12 111.016 45.76 111.016 56.08V94H89.1756V55.48C89.1756 52.44 88.2556 49.96 86.4156 48.04C84.6556 46.04 82.2156 45.04 79.0956 45.04C75.9756 45.04 73.4556 46.04 71.5356 48.04C69.6956 49.96 68.7756 52.52 68.7756 55.72V94H46.9356ZM158.686 96.4C152.846 96.4 147.646 95.52 143.086 93.76C138.526 92 134.646 89.56 131.446 86.44C128.326 83.32 125.926 79.72 124.246 75.64C122.646 71.56 121.846 67.2 121.846 62.56V59.68C121.846 54.88 122.686 50.4 124.366 46.24C126.126 42.08 128.606 38.44 131.806 35.32C135.006 32.2 138.886 29.76 143.446 28C148.006 26.24 153.086 25.36 158.686 25.36C164.366 25.36 169.446 26.24 173.926 28C178.486 29.76 182.366 32.2 185.566 35.32C188.766 38.44 191.206 42.08 192.886 46.24C194.646 50.4 195.526 54.88 195.526 59.68V62.56C195.526 67.2 194.686 71.56 193.006 75.64C191.406 79.72 189.006 83.32 185.806 86.44C182.686 89.56 178.846 92 174.286 93.76C169.726 95.52 164.526 96.4 158.686 96.4ZM158.686 78.16C162.046 78.16 164.806 77.44 166.966 76C169.206 74.56 170.886 72.56 172.006 70C173.126 67.36 173.686 64.4 173.686 61.12C173.686 57.68 173.086 54.68 171.886 52.12C170.766 49.48 169.086 47.4 166.846 45.88C164.606 44.36 161.886 43.6 158.686 43.6C155.486 43.6 152.766 44.36 150.526 45.88C148.286 47.4 146.566 49.48 145.366 52.12C144.246 54.68 143.686 57.68 143.686 61.12C143.686 64.4 144.246 67.36 145.366 70C146.486 72.56 148.166 74.56 150.406 76C152.646 77.44 155.406 78.16 158.686 78.16ZM218.322 94L199.362 27.76H221.682L239.322 94H218.322ZM225.282 94V75.76H246.522V94H225.282ZM232.962 94L247.962 27.76H268.842L252.522 94H232.962ZM317.875 94V74.56H314.275V53.8C314.275 50.76 313.555 48.52 312.115 47.08C310.755 45.56 308.475 44.8 305.275 44.8C303.755 44.8 301.515 44.84 298.555 44.92C295.595 45 292.475 45.12 289.195 45.28C285.915 45.44 282.915 45.6 280.195 45.76V27.52C282.115 27.36 284.395 27.2 287.035 27.04C289.675 26.88 292.395 26.76 295.195 26.68C298.075 26.6 300.715 26.56 303.115 26.56C309.915 26.56 315.675 27.56 320.395 29.56C325.195 31.56 328.835 34.56 331.315 38.56C333.875 42.56 335.155 47.64 335.155 53.8V94H317.875ZM296.875 95.68C292.235 95.68 288.115 94.84 284.515 93.16C280.915 91.48 278.075 89.08 275.995 85.96C273.995 82.76 272.995 78.96 272.995 74.56C272.995 69.6 274.315 65.6 276.955 62.56C279.595 59.44 283.235 57.16 287.875 55.72C292.515 54.28 297.835 53.56 303.835 53.56H316.675V64.84H303.835C300.875 64.84 298.595 65.6 296.995 67.12C295.395 68.56 294.595 70.52 294.595 73C294.595 75.4 295.395 77.36 296.995 78.88C298.595 80.32 300.875 81.04 303.835 81.04C305.755 81.04 307.435 80.72 308.875 80.08C310.395 79.36 311.635 78.16 312.595 76.48C313.555 74.8 314.115 72.48 314.275 69.52L319.315 74.32C318.915 78.88 317.795 82.76 315.955 85.96C314.195 89.08 311.715 91.48 308.515 93.16C305.395 94.84 301.515 95.68 296.875 95.68ZM349.748 94V27.76H367.028V56.56H366.788C366.788 47.28 368.708 40 372.548 34.72C376.468 29.44 382.068 26.8 389.348 26.8H391.988V45.52H386.948C382.068 45.52 378.268 46.84 375.548 49.48C372.908 52.12 371.588 55.92 371.588 60.88V94H349.748ZM425.1 94V27.76H442.38V56.2H441.42C441.42 49.32 442.3 43.64 444.06 39.16C445.82 34.6 448.42 31.2 451.86 28.96C455.38 26.72 459.62 25.6 464.58 25.6H465.54C473.06 25.6 478.86 28.12 482.94 33.16C487.1 38.12 489.18 45.76 489.18 56.08V94H467.34V55.48C467.34 52.44 466.42 49.96 464.58 48.04C462.82 46.04 460.38 45.04 457.26 45.04C454.14 45.04 451.62 46.04 449.7 48.04C447.86 49.96 446.94 52.52 446.94 55.72V94H425.1ZM543.93 94V74.56H540.33V53.8C540.33 50.76 539.61 48.52 538.17 47.08C536.81 45.56 534.53 44.8 531.33 44.8C529.81 44.8 527.57 44.84 524.61 44.92C521.65 45 518.53 45.12 515.25 45.28C511.97 45.44 508.97 45.6 506.25 45.76V27.52C508.17 27.36 510.45 27.2 513.09 27.04C515.73 26.88 518.45 26.76 521.25 26.68C524.13 26.6 526.77 26.56 529.17 26.56C535.97 26.56 541.73 27.56 546.45 29.56C551.25 31.56 554.89 34.56 557.37 38.56C559.93 42.56 561.21 47.64 561.21 53.8V94H543.93ZM522.93 95.68C518.29 95.68 514.17 94.84 510.57 93.16C506.97 91.48 504.13 89.08 502.05 85.96C500.05 82.76 499.05 78.96 499.05 74.56C499.05 69.6 500.37 65.6 503.01 62.56C505.65 59.44 509.29 57.16 513.93 55.72C518.57 54.28 523.89 53.56 529.89 53.56H542.73V64.84H529.89C526.93 64.84 524.65 65.6 523.05 67.12C521.45 68.56 520.65 70.52 520.65 73C520.65 75.4 521.45 77.36 523.05 78.88C524.65 80.32 526.93 81.04 529.89 81.04C531.81 81.04 533.49 80.72 534.93 80.08C536.45 79.36 537.69 78.16 538.65 76.48C539.61 74.8 540.17 72.48 540.33 69.52L545.37 74.32C544.97 78.88 543.85 82.76 542.01 85.96C540.25 89.08 537.77 91.48 534.57 93.16C531.45 94.84 527.57 95.68 522.93 95.68ZM37 192.4C31.4 192.4 26.44 191.44 22.12 189.52C17.8 187.6 14.16 185 11.2 181.72C8.24 178.44 5.96 174.76 4.36 170.68C2.84 166.6 2.08 162.4 2.08 158.08V155.68C2.08 151.2 2.84 146.92 4.36 142.84C5.96 138.68 8.2 135 11.08 131.8C14.04 128.6 17.64 126.08 21.88 124.24C26.12 122.32 30.92 121.36 36.28 121.36C43.4 121.36 49.44 122.96 54.4 126.16C59.36 129.36 63.16 133.6 65.8 138.88C68.44 144.08 69.76 149.76 69.76 155.92V162.88H11.2V151.12H57.16L49.6 156.4C49.6 152.64 49.08 149.48 48.04 146.92C47.08 144.28 45.6 142.28 43.6 140.92C41.68 139.56 39.24 138.88 36.28 138.88C33.4 138.88 30.88 139.56 28.72 140.92C26.64 142.2 25.04 144.2 23.92 146.92C22.8 149.56 22.24 152.92 22.24 157C22.24 160.68 22.76 163.88 23.8 166.6C24.84 169.24 26.44 171.28 28.6 172.72C30.76 174.16 33.56 174.88 37 174.88C40.04 174.88 42.52 174.36 44.44 173.32C46.44 172.28 47.84 170.88 48.64 169.12H68.56C67.6 173.6 65.68 177.6 62.8 181.12C60 184.64 56.4 187.4 52 189.4C47.68 191.4 42.68 192.4 37 192.4ZM107.552 192.16C97.9516 192.16 90.3916 190.2 84.8716 186.28C79.3516 182.28 76.3916 176.68 75.9916 169.48H95.1916C95.5116 171.48 96.7516 173.2 98.9116 174.64C101.072 176.08 104.112 176.8 108.032 176.8C110.832 176.8 113.232 176.4 115.232 175.6C117.312 174.72 118.352 173.32 118.352 171.4C118.352 169.72 117.552 168.36 115.952 167.32C114.352 166.2 111.432 165.44 107.192 165.04L102.632 164.56C94.1516 163.68 87.9116 161.36 83.9116 157.6C79.9116 153.84 77.9116 149.12 77.9116 143.44C77.9116 138.56 79.1116 134.56 81.5116 131.44C83.9116 128.24 87.2316 125.84 91.4716 124.24C95.7116 122.64 100.552 121.84 105.992 121.84C114.872 121.84 122.032 123.8 127.472 127.72C132.912 131.56 135.792 137.12 136.112 144.4H116.912C116.592 142.4 115.512 140.72 113.672 139.36C111.832 137.92 109.192 137.2 105.752 137.2C103.272 137.2 101.232 137.64 99.6316 138.52C98.1116 139.4 97.3516 140.64 97.3516 142.24C97.3516 143.92 98.0716 145.16 99.5116 145.96C101.032 146.76 103.432 147.36 106.712 147.76L111.272 148.24C119.752 149.12 126.272 151.48 130.832 155.32C135.472 159.08 137.792 164.04 137.792 170.2C137.792 174.76 136.552 178.68 134.072 181.96C131.672 185.24 128.192 187.76 123.632 189.52C119.152 191.28 113.792 192.16 107.552 192.16ZM178.894 192.4C173.134 192.4 168.134 191.48 163.894 189.64C159.654 187.72 156.094 185.16 153.214 181.96C150.414 178.76 148.294 175.12 146.854 171.04C145.494 166.96 144.814 162.72 144.814 158.32V155.92C144.814 151.28 145.534 146.88 146.974 142.72C148.494 138.56 150.694 134.88 153.574 131.68C156.454 128.48 160.014 125.96 164.254 124.12C168.494 122.28 173.374 121.36 178.894 121.36C184.974 121.36 190.334 122.56 194.974 124.96C199.614 127.36 203.294 130.68 206.014 134.92C208.814 139.08 210.374 143.88 210.694 149.32H189.334C189.094 146.68 188.094 144.44 186.334 142.6C184.654 140.76 182.174 139.84 178.894 139.84C176.094 139.84 173.774 140.56 171.934 142C170.174 143.44 168.854 145.44 167.974 148C167.094 150.56 166.654 153.6 166.654 157.12C166.654 160.4 167.014 163.32 167.734 165.88C168.534 168.44 169.814 170.44 171.574 171.88C173.414 173.24 175.854 173.92 178.894 173.92C181.134 173.92 183.014 173.52 184.534 172.72C186.054 171.92 187.254 170.8 188.134 169.36C189.014 167.84 189.574 166.08 189.814 164.08H211.174C210.854 169.68 209.254 174.6 206.374 178.84C203.574 183.08 199.814 186.4 195.094 188.8C190.374 191.2 184.974 192.4 178.894 192.4ZM255.248 192.4C249.408 192.4 244.208 191.52 239.648 189.76C235.088 188 231.208 185.56 228.008 182.44C224.888 179.32 222.488 175.72 220.808 171.64C219.208 167.56 218.408 163.2 218.408 158.56V155.68C218.408 150.88 219.248 146.4 220.928 142.24C222.688 138.08 225.168 134.44 228.368 131.32C231.568 128.2 235.448 125.76 240.008 124C244.568 122.24 249.648 121.36 255.248 121.36C260.928 121.36 266.008 122.24 270.488 124C275.048 125.76 278.928 128.2 282.128 131.32C285.328 134.44 287.768 138.08 289.448 142.24C291.208 146.4 292.088 150.88 292.088 155.68V158.56C292.088 163.2 291.248 167.56 289.568 171.64C287.968 175.72 285.568 179.32 282.368 182.44C279.248 185.56 275.408 188 270.848 189.76C266.288 191.52 261.088 192.4 255.248 192.4ZM255.248 174.16C258.608 174.16 261.368 173.44 263.528 172C265.768 170.56 267.448 168.56 268.568 166C269.688 163.36 270.248 160.4 270.248 157.12C270.248 153.68 269.648 150.68 268.448 148.12C267.328 145.48 265.648 143.4 263.408 141.88C261.168 140.36 258.448 139.6 255.248 139.6C252.048 139.6 249.328 140.36 247.088 141.88C244.848 143.4 243.128 145.48 241.928 148.12C240.808 150.68 240.248 153.68 240.248 157.12C240.248 160.4 240.808 163.36 241.928 166C243.048 168.56 244.728 170.56 246.968 172C249.208 173.44 251.968 174.16 255.248 174.16ZM305.005 190V102.4H326.845V190H305.005ZM297.565 118.24V102.4H326.845V118.24H297.565ZM383.031 190V170.56H379.431V149.8C379.431 146.76 378.711 144.52 377.271 143.08C375.911 141.56 373.631 140.8 370.431 140.8C368.911 140.8 366.671 140.84 363.711 140.92C360.751 141 357.631 141.12 354.351 141.28C351.071 141.44 348.071 141.6 345.351 141.76V123.52C347.271 123.36 349.551 123.2 352.191 123.04C354.831 122.88 357.551 122.76 360.351 122.68C363.231 122.6 365.871 122.56 368.271 122.56C375.071 122.56 380.831 123.56 385.551 125.56C390.351 127.56 393.991 130.56 396.471 134.56C399.031 138.56 400.311 143.64 400.311 149.8V190H383.031ZM362.031 191.68C357.391 191.68 353.271 190.84 349.671 189.16C346.071 187.48 343.231 185.08 341.151 181.96C339.151 178.76 338.151 174.96 338.151 170.56C338.151 165.6 339.471 161.6 342.111 158.56C344.751 155.44 348.391 153.16 353.031 151.72C357.671 150.28 362.991 149.56 368.991 149.56H381.831V160.84H368.991C366.031 160.84 363.751 161.6 362.151 163.12C360.551 164.56 359.751 166.52 359.751 169C359.751 171.4 360.551 173.36 362.151 174.88C363.751 176.32 366.031 177.04 368.991 177.04C370.911 177.04 372.591 176.72 374.031 176.08C375.551 175.36 376.791 174.16 377.751 172.48C378.711 170.8 379.271 168.48 379.431 165.52L384.471 170.32C384.071 174.88 382.951 178.76 381.111 181.96C379.351 185.08 376.871 187.48 373.671 189.16C370.551 190.84 366.671 191.68 362.031 191.68Z"/>
</mask>
<path d="M9.04 94H7.04V96H9.04V94ZM9.04 27.76V25.76H7.04V27.76H9.04ZM30.88 27.76H32.88V25.76H30.88V27.76ZM30.88 94V96H32.88V94H30.88ZM0.64 43.6H-1.36V45.6H0.64V43.6ZM0.64 27.76V25.76H-1.36V27.76H0.64ZM30.88 27.76H32.88V25.76H30.88V27.76ZM30.88 43.6V45.6H32.88V43.6H30.88ZM9.16 19.48L7.66201 20.8051L7.68901 20.8357L7.71723 20.8651L9.16 19.48ZM9.16 3.76L7.69039 2.40343L7.68814 2.40588L9.16 3.76ZM26.68 3.76L25.182 5.08514L25.1949 5.09975L25.2081 5.11411L26.68 3.76ZM26.68 19.48L28.1519 20.8341L28.1651 20.8198L28.178 20.8051L26.68 19.48ZM11.04 94V27.76H7.04V94H11.04ZM9.04 29.76H30.88V25.76H9.04V29.76ZM28.88 27.76V94H32.88V27.76H28.88ZM30.88 92H9.04V96H30.88V92ZM2.64 43.6V27.76H-1.36V43.6H2.64ZM0.64 29.76H30.88V25.76H0.64V29.76ZM28.88 27.76V43.6H32.88V27.76H28.88ZM30.88 41.6H0.64V45.6H30.88V41.6ZM18.04 20.48C14.3411 20.48 12.005 19.5556 10.6028 18.0949L7.71723 20.8651C10.155 23.4044 13.7389 24.48 18.04 24.48V20.48ZM10.658 18.1548C9.19029 16.4957 8.4 14.3509 8.4 11.56H4.4C4.4 15.1691 5.44971 18.3043 7.66201 20.8051L10.658 18.1548ZM8.4 11.56C8.4 8.76697 9.19057 6.68073 10.6319 5.11411L7.68814 2.40588C5.44944 4.83925 4.4 7.95302 4.4 11.56H8.4ZM10.6296 5.11656C12.0431 3.58532 14.3365 2.63999 17.92 2.63999V-1.36001C13.6635 -1.36001 10.1169 -0.225331 7.69039 2.40344L10.6296 5.11656ZM17.92 2.63999C21.6054 2.63999 23.8645 3.59579 25.182 5.08514L28.178 2.43485C25.8155 -0.235802 22.2346 -1.36001 17.92 -1.36001V2.63999ZM25.2081 5.11411C26.6494 6.68074 27.44 8.76697 27.44 11.56H31.44C31.44 7.95302 30.3906 4.83925 28.1519 2.40588L25.2081 5.11411ZM27.44 11.56C27.44 14.3509 26.6497 16.4957 25.182 18.1548L28.178 20.8051C30.3903 18.3043 31.44 15.1691 31.44 11.56H27.44ZM25.2081 18.1259C23.889 19.5598 21.6523 20.48 18.04 20.48V24.48C22.2677 24.48 25.791 23.4002 28.1519 20.8341L25.2081 18.1259ZM46.9356 94H44.9356V96H46.9356V94ZM46.9356 27.76V25.76H44.9356V27.76H46.9356ZM64.2156 27.76H66.2156V25.76H64.2156V27.76ZM64.2156 56.2V58.2H66.2156V56.2H64.2156ZM63.2556 56.2H61.2556V58.2H63.2556V56.2ZM65.8956 39.16L67.7572 39.8913L67.7615 39.8801L65.8956 39.16ZM73.6956 28.96L72.6219 27.2727L72.613 27.2783L72.6043 27.284L73.6956 28.96ZM104.776 33.16L103.221 34.4184L103.232 34.4319L103.243 34.4452L104.776 33.16ZM111.016 94V96H113.016V94H111.016ZM89.1756 94H87.1756V96H89.1756V94ZM86.4156 48.04L84.9142 49.3613L84.9423 49.3931L84.9716 49.4238L86.4156 48.04ZM71.5356 48.04L70.0928 46.6549L70.0917 46.6562L71.5356 48.04ZM68.7756 94V96H70.7756V94H68.7756ZM48.9356 94V27.76H44.9356V94H48.9356ZM46.9356 29.76H64.2156V25.76H46.9356V29.76ZM62.2156 27.76V56.2H66.2156V27.76H62.2156ZM64.2156 54.2H63.2556V58.2H64.2156V54.2ZM65.2556 56.2C65.2556 49.4715 66.1189 44.0613 67.7571 39.8913L64.0341 38.4287C62.1523 43.2187 61.2556 49.1685 61.2556 56.2H65.2556ZM67.7615 39.8801C69.3998 35.6355 71.7623 32.6055 74.787 30.636L72.6043 27.284C68.7489 29.7945 65.9115 33.5645 64.0298 38.4398L67.7615 39.8801ZM74.7694 30.6473C77.9122 28.6474 81.7632 27.6 86.4156 27.6V23.6C81.148 23.6 76.5191 24.7926 72.6219 27.2727L74.7694 30.6473ZM86.4156 27.6H87.3756V23.6H86.4156V27.6ZM87.3756 27.6C94.4001 27.6 99.584 29.9254 103.221 34.4184L106.33 31.9016C101.807 26.3146 95.3911 23.6 87.3756 23.6V27.6ZM103.243 34.4452C106.967 38.8852 109.016 45.9674 109.016 56.08H113.016C113.016 45.5526 110.904 37.3548 106.308 31.8748L103.243 34.4452ZM109.016 56.08V94H113.016V56.08H109.016ZM111.016 92H89.1756V96H111.016V92ZM91.1756 94V55.48H87.1756V94H91.1756ZM91.1756 55.48C91.1756 52.004 90.108 49.0023 87.8596 46.6562L84.9716 49.4238C86.4033 50.9177 87.1756 52.876 87.1756 55.48H91.1756ZM87.9171 46.7187C85.7112 44.2121 82.6821 43.04 79.0956 43.04V47.04C81.7492 47.04 83.6 47.8679 84.9142 49.3613L87.9171 46.7187ZM79.0956 43.04C75.506 43.04 72.439 44.2111 70.0928 46.6549L72.9784 49.4251C74.4723 47.8689 76.4452 47.04 79.0956 47.04V43.04ZM70.0917 46.6562C67.8246 49.0219 66.7756 52.1157 66.7756 55.72H70.7756C70.7756 52.9243 71.5667 50.8981 72.9796 49.4238L70.0917 46.6562ZM66.7756 55.72V94H70.7756V55.72H66.7756ZM68.7756 92H46.9356V96H68.7756V92ZM143.086 93.76L143.806 91.8942L143.086 93.76ZM131.446 86.44L130.031 87.8542L130.04 87.8632L130.049 87.872L131.446 86.44ZM124.246 75.64L122.384 76.3702L122.39 76.3859L122.396 76.4015L124.246 75.64ZM124.366 46.24L122.524 45.4607L122.517 45.4758L122.511 45.4911L124.366 46.24ZM131.806 35.32L130.409 33.888L131.806 35.32ZM173.926 28L173.194 29.8615L173.205 29.8658L173.926 28ZM185.566 35.32L184.169 36.752L185.566 35.32ZM192.886 46.24L191.031 46.9889L191.037 47.0042L191.044 47.0193L192.886 46.24ZM193.006 75.64L191.156 74.8785L191.15 74.8941L191.144 74.9098L193.006 75.64ZM185.806 86.44L184.409 85.008L184.4 85.0168L184.391 85.0258L185.806 86.44ZM174.286 93.76L173.565 91.8942L174.286 93.76ZM166.966 76L165.884 74.3176L165.87 74.3267L165.856 74.3359L166.966 76ZM172.006 70L173.838 70.8016L173.842 70.7914L173.847 70.7811L172.006 70ZM171.886 52.12L170.044 52.9011L170.059 52.9353L170.075 52.9689L171.886 52.12ZM150.526 45.88L149.403 44.225L150.526 45.88ZM145.366 52.12L143.545 51.2924L143.539 51.3053L143.533 51.3184L145.366 52.12ZM145.366 70L143.524 70.7811L143.529 70.7914L143.533 70.8016L145.366 70ZM158.686 94.4C153.045 94.4 148.096 93.55 143.806 91.8942L142.365 95.6258C147.195 97.49 152.646 98.4 158.686 98.4V94.4ZM143.806 91.8942C139.474 90.2224 135.831 87.9221 132.842 85.008L130.049 87.872C133.461 91.1979 137.577 93.7776 142.365 95.6258L143.806 91.8942ZM132.86 85.0258C129.927 82.0925 127.674 78.7143 126.095 74.8785L122.396 76.4015C124.177 80.7257 126.725 84.5475 130.031 87.8542L132.86 85.0258ZM126.108 74.9098C124.604 71.0759 123.846 66.965 123.846 62.56H119.846C119.846 67.435 120.687 72.0441 122.384 76.3702L126.108 74.9098ZM123.846 62.56V59.68H119.846V62.56H123.846ZM123.846 59.68C123.846 55.1185 124.643 50.8947 126.22 46.9889L122.511 45.4911C120.728 49.9053 119.846 54.6415 119.846 59.68H123.846ZM126.208 47.0193C127.865 43.1016 130.194 39.6842 133.202 36.752L130.409 33.888C127.017 37.1958 124.386 41.0583 122.524 45.4607L126.208 47.0193ZM133.202 36.752C136.191 33.8379 139.834 31.5376 144.166 29.8658L142.725 26.1342C137.937 27.9824 133.821 30.5621 130.409 33.888L133.202 36.752ZM144.166 29.8658C148.465 28.2065 153.296 27.36 158.686 27.36V23.36C152.875 23.36 147.546 24.2735 142.725 26.1342L144.166 29.8658ZM158.686 27.36C164.16 27.36 168.985 28.2079 173.194 29.8615L174.657 26.1385C169.906 24.2721 164.572 23.36 158.686 23.36V27.36ZM173.205 29.8658C177.537 31.5376 181.181 33.8379 184.169 36.752L186.962 33.888C183.551 30.5621 179.434 27.9824 174.646 26.1342L173.205 29.8658ZM184.169 36.752C187.17 39.6778 189.455 43.0849 191.031 46.9889L194.74 45.4911C192.957 41.0751 190.361 37.2022 186.962 33.888L184.169 36.752ZM191.044 47.0193C192.693 50.9175 193.526 55.1307 193.526 59.68H197.526C197.526 54.6293 196.598 49.8825 194.728 45.4607L191.044 47.0193ZM193.526 59.68V62.56H197.526V59.68H193.526ZM193.526 62.56C193.526 66.9525 192.732 71.0524 191.156 74.8785L194.855 76.4015C196.64 72.0676 197.526 67.4475 197.526 62.56H193.526ZM191.144 74.9098C189.649 78.7201 187.41 82.0822 184.409 85.008L187.202 87.872C190.601 84.5578 193.162 80.7199 194.868 76.3702L191.144 74.9098ZM184.391 85.0258C181.489 87.9282 177.893 90.2237 173.565 91.8942L175.006 95.6258C179.798 93.7763 183.882 91.1918 187.22 87.8542L184.391 85.0258ZM173.565 91.8942C169.275 93.55 164.326 94.4 158.686 94.4V98.4C164.725 98.4 170.176 97.49 175.006 95.6258L173.565 91.8942ZM158.686 80.16C162.325 80.16 165.502 79.3793 168.075 77.6641L165.856 74.3359C164.109 75.5007 161.766 76.16 158.686 76.16V80.16ZM168.047 77.6824C170.636 76.0184 172.568 73.704 173.838 70.8016L170.173 69.1984C169.203 71.416 167.776 73.1016 165.884 74.3176L168.047 77.6824ZM173.847 70.7811C175.086 67.861 175.686 64.63 175.686 61.12H171.686C171.686 64.17 171.166 66.859 170.164 69.2189L173.847 70.7811ZM175.686 61.12C175.686 57.449 175.045 54.148 173.697 51.2711L170.075 52.9689C171.126 55.212 171.686 57.911 171.686 61.12H175.686ZM173.727 51.3389C172.466 48.3666 170.546 45.9742 167.969 44.225L165.723 47.535C167.625 48.8258 169.065 50.5933 170.044 52.9011L173.727 51.3389ZM167.969 44.225C165.341 42.4417 162.212 41.6 158.686 41.6V45.6C161.56 45.6 163.871 46.2783 165.723 47.535L167.969 44.225ZM158.686 41.6C155.16 41.6 152.031 42.4417 149.403 44.225L151.649 47.535C153.501 46.2783 155.812 45.6 158.686 45.6V41.6ZM149.403 44.225C146.837 45.9662 144.886 48.3425 143.545 51.2924L147.186 52.9476C148.246 50.6175 149.735 48.8338 151.649 47.535L149.403 44.225ZM143.533 51.3184C142.28 54.1824 141.686 57.4661 141.686 61.12H145.686C145.686 57.8938 146.211 55.1776 147.198 52.9216L143.533 51.3184ZM141.686 61.12C141.686 64.63 142.286 67.861 143.524 70.7811L147.207 69.2189C146.206 66.859 145.686 64.17 145.686 61.12H141.686ZM143.533 70.8016C144.803 73.704 146.736 76.0184 149.324 77.6824L151.487 74.3176C149.596 73.1016 148.168 71.416 147.198 69.1984L143.533 70.8016ZM149.324 77.6824C151.954 79.3732 155.111 80.16 158.686 80.16V76.16C155.7 76.16 153.337 75.5068 151.487 74.3176L149.324 77.6824ZM218.322 94L216.399 94.5504L216.814 96H218.322V94ZM199.362 27.76V25.76H196.709L197.439 28.3104L199.362 27.76ZM221.682 27.76L223.615 27.2453L223.219 25.76H221.682V27.76ZM239.322 94V96H241.924L241.255 93.4853L239.322 94ZM225.282 94H223.282V96H225.282V94ZM225.282 75.76V73.76H223.282V75.76H225.282ZM246.522 75.76H248.522V73.76H246.522V75.76ZM246.522 94V96H248.522V94H246.522ZM232.962 94L231.011 93.5583L230.458 96H232.962V94ZM247.962 27.76V25.76H246.364L246.011 27.3183L247.962 27.76ZM268.842 27.76L270.784 28.2384L271.394 25.76H268.842V27.76ZM252.522 94V96H254.089L254.464 94.4784L252.522 94ZM220.245 93.4496L201.285 27.2096L197.439 28.3104L216.399 94.5504L220.245 93.4496ZM199.362 29.76H221.682V25.76H199.362V29.76ZM219.749 28.2747L237.389 94.5147L241.255 93.4853L223.615 27.2453L219.749 28.2747ZM239.322 92H218.322V96H239.322V92ZM227.282 94V75.76H223.282V94H227.282ZM225.282 77.76H246.522V73.76H225.282V77.76ZM244.522 75.76V94H248.522V75.76H244.522ZM246.522 92H225.282V96H246.522V92ZM234.912 94.4417L249.912 28.2017L246.011 27.3183L231.011 93.5583L234.912 94.4417ZM247.962 29.76H268.842V25.76H247.962V29.76ZM266.9 27.2815L250.58 93.5216L254.464 94.4784L270.784 28.2384L266.9 27.2815ZM252.522 92H232.962V96H252.522V92ZM317.875 94H315.875V96H317.875V94ZM317.875 74.56H319.875V72.56H317.875V74.56ZM314.275 74.56H312.275V76.56H314.275V74.56ZM312.115 47.08L310.625 48.4136L310.662 48.455L310.701 48.4942L312.115 47.08ZM298.555 44.92L298.609 46.9193L298.555 44.92ZM289.195 45.28L289.292 47.2776L289.195 45.28ZM280.195 45.76H278.195V47.8811L280.312 47.7565L280.195 45.76ZM280.195 27.52L280.029 25.5269L278.195 25.6797V27.52H280.195ZM287.035 27.04L286.914 25.0437L287.035 27.04ZM295.195 26.68L295.139 24.6808L295.138 24.6808L295.195 26.68ZM320.395 29.56L319.615 31.4015L319.626 31.4062L320.395 29.56ZM331.315 38.56L329.615 39.6139L329.623 39.626L329.63 39.6381L331.315 38.56ZM335.155 94V96H337.155V94H335.155ZM275.995 85.96L274.299 87.02L274.315 87.0449L274.331 87.0694L275.995 85.96ZM276.955 62.56L278.465 63.8714L278.473 63.8617L278.482 63.8519L276.955 62.56ZM287.875 55.72L288.468 57.6301L287.875 55.72ZM316.675 53.56H318.675V51.56H316.675V53.56ZM316.675 64.84V66.84H318.675V64.84H316.675ZM296.995 67.12L298.333 68.6066L298.353 68.5886L298.372 68.57L296.995 67.12ZM296.995 78.88L295.617 80.33L295.637 80.3486L295.657 80.3666L296.995 78.88ZM308.875 80.08L309.687 81.9076L309.709 81.8978L309.731 81.8875L308.875 80.08ZM312.595 76.48L310.859 75.4877V75.4877L312.595 76.48ZM314.275 69.52L315.654 68.0717L312.512 65.0792L312.278 69.412L314.275 69.52ZM319.315 74.32L321.307 74.4948L321.391 73.5357L320.694 72.8717L319.315 74.32ZM315.955 85.96L314.221 84.9631L314.217 84.9702L314.213 84.9774L315.955 85.96ZM308.515 93.16L307.585 91.3892L307.576 91.3941L307.567 91.3991L308.515 93.16ZM319.875 94V74.56H315.875V94H319.875ZM317.875 72.56H314.275V76.56H317.875V72.56ZM316.275 74.56V53.8H312.275V74.56H316.275ZM316.275 53.8C316.275 50.4884 315.494 47.631 313.529 45.6658L310.701 48.4942C311.616 49.409 312.275 51.0316 312.275 53.8H316.275ZM313.605 45.7464C311.695 43.6115 308.724 42.8 305.275 42.8V46.8C308.226 46.8 309.815 47.5084 310.625 48.4136L313.605 45.7464ZM305.275 42.8C303.727 42.8 301.466 42.8406 298.501 42.9207L298.609 46.9193C301.564 46.8394 303.783 46.8 305.275 46.8V42.8ZM298.501 42.9207C295.525 43.0012 292.39 43.1217 289.098 43.2824L289.292 47.2776C292.56 47.1183 295.665 46.9988 298.609 46.9193L298.501 42.9207ZM289.098 43.2824C285.812 43.4426 282.805 43.603 280.078 43.7635L280.312 47.7565C283.025 47.597 286.018 47.4374 289.292 47.2776L289.098 43.2824ZM282.195 45.76V27.52H278.195V45.76H282.195ZM280.361 29.5131C282.262 29.3547 284.526 29.1957 287.156 29.0363L286.914 25.0437C284.264 25.2043 281.968 25.3653 280.029 25.5269L280.361 29.5131ZM287.156 29.0363C289.774 28.8777 292.472 28.7586 295.252 28.6792L295.138 24.6808C292.318 24.7614 289.576 24.8823 286.914 25.0437L287.156 29.0363ZM295.251 28.6792C298.116 28.5996 300.737 28.56 303.115 28.56V24.56C300.693 24.56 298.034 24.6003 295.139 24.6808L295.251 28.6792ZM303.115 28.56C309.73 28.56 315.208 29.5342 319.615 31.4015L321.175 27.7185C316.142 25.5858 310.1 24.56 303.115 24.56V28.56ZM319.626 31.4062C324.083 33.2633 327.378 36.0057 329.615 39.6139L333.015 37.5061C330.292 33.1143 326.307 29.8567 321.164 27.7138L319.626 31.4062ZM329.63 39.6381C331.931 43.2335 333.155 47.9103 333.155 53.8H337.155C337.155 47.3697 335.819 41.8865 333 37.4819L329.63 39.6381ZM333.155 53.8V94H337.155V53.8H333.155ZM335.155 92H317.875V96H335.155V92ZM296.875 93.68C292.478 93.68 288.655 92.885 285.361 91.3476L283.669 94.9724C287.575 96.795 291.992 97.68 296.875 97.68V93.68ZM285.361 91.3476C282.072 89.813 279.524 87.6474 277.659 84.8506L274.331 87.0694C276.626 90.5126 279.758 93.147 283.669 94.9724L285.361 91.3476ZM277.691 84.9C275.921 82.0676 274.995 78.6485 274.995 74.56H270.995C270.995 79.2715 272.069 83.4524 274.299 87.02L277.691 84.9ZM274.995 74.56C274.995 69.9657 276.21 66.4685 278.465 63.8714L275.445 61.2486C272.42 64.7315 270.995 69.2343 270.995 74.56H274.995ZM278.482 63.8519C280.833 61.0737 284.122 58.9788 288.468 57.6301L287.282 53.8099C282.348 55.3412 278.357 57.8063 275.428 61.2681L278.482 63.8519ZM288.468 57.6301C292.877 56.2618 297.991 55.56 303.835 55.56V51.56C297.679 51.56 292.153 52.2982 287.282 53.8099L288.468 57.6301ZM303.835 55.56H316.675V51.56H303.835V55.56ZM314.675 53.56V64.84H318.675V53.56H314.675ZM316.675 62.84H303.835V66.84H316.675V62.84ZM303.835 62.84C300.541 62.84 297.701 63.6904 295.617 65.67L298.372 68.57C299.489 67.5096 301.209 66.84 303.835 66.84V62.84ZM295.657 65.6334C293.57 67.512 292.595 70.0481 292.595 73H296.595C296.595 70.9919 297.22 69.608 298.333 68.6066L295.657 65.6334ZM292.595 73C292.595 75.8949 293.583 78.3972 295.617 80.33L298.372 77.43C297.207 76.3228 296.595 74.9051 296.595 73H292.595ZM295.657 80.3666C297.743 82.2436 300.567 83.04 303.835 83.04V79.04C301.183 79.04 299.447 78.3964 298.333 77.3934L295.657 80.3666ZM303.835 83.04C305.975 83.04 307.942 82.6833 309.687 81.9076L308.063 78.2524C306.928 78.7567 305.535 79.04 303.835 79.04V83.04ZM309.731 81.8875C311.675 80.9668 313.2 79.4525 314.331 77.4723L310.859 75.4877C310.07 76.8675 309.115 77.7532 308.019 78.2725L309.731 81.8875ZM314.331 77.4723C315.507 75.416 316.103 72.7487 316.272 69.6279L312.278 69.412C312.127 72.2113 311.603 74.184 310.859 75.4877L314.331 77.4723ZM312.896 70.9683L317.936 75.7683L320.694 72.8717L315.654 68.0717L312.896 70.9683ZM317.323 74.1452C316.942 78.4834 315.886 82.068 314.221 84.9631L317.689 86.9569C319.704 83.452 320.888 79.2766 321.307 74.4948L317.323 74.1452ZM314.213 84.9774C312.644 87.7587 310.448 89.8865 307.585 91.3892L309.445 94.9308C312.982 93.0735 315.746 90.4013 317.697 86.9426L314.213 84.9774ZM307.567 91.3991C304.814 92.8811 301.283 93.68 296.875 93.68V97.68C301.747 97.68 305.976 96.7989 309.463 94.9209L307.567 91.3991ZM349.748 94H347.748V96H349.748V94ZM349.748 27.76V25.76H347.748V27.76H349.748ZM367.028 27.76H369.028V25.76H367.028V27.76ZM367.028 56.56V58.56H369.028V56.56H367.028ZM366.788 56.56H364.788V58.56H366.788V56.56ZM372.548 34.72L370.942 33.5278L370.936 33.5357L370.931 33.5437L372.548 34.72ZM391.988 26.8H393.988V24.8H391.988V26.8ZM391.988 45.52V47.52H393.988V45.52H391.988ZM375.548 49.48L374.155 48.0448L374.144 48.0552L374.134 48.0658L375.548 49.48ZM371.588 94V96H373.588V94H371.588ZM351.748 94V27.76H347.748V94H351.748ZM349.748 29.76H367.028V25.76H349.748V29.76ZM365.028 27.76V56.56H369.028V27.76H365.028ZM367.028 54.56H366.788V58.56H367.028V54.56ZM368.788 56.56C368.788 47.5305 370.659 40.7175 374.166 35.8963L370.931 33.5437C366.757 39.2825 364.788 47.0295 364.788 56.56H368.788ZM374.154 35.9122C377.652 31.2001 382.623 28.8 389.348 28.8V24.8C381.513 24.8 375.284 27.6799 370.942 33.5278L374.154 35.9122ZM389.348 28.8H391.988V24.8H389.348V28.8ZM389.988 26.8V45.52H393.988V26.8H389.988ZM391.988 43.52H386.948V47.52H391.988V43.52ZM386.948 43.52C381.704 43.52 377.347 44.947 374.155 48.0448L376.941 50.9152C379.189 48.733 382.433 47.52 386.948 47.52V43.52ZM374.134 48.0658C371.008 51.1915 369.588 55.5698 369.588 60.88H373.588C373.588 56.2702 374.808 53.0485 376.962 50.8942L374.134 48.0658ZM369.588 60.88V94H373.588V60.88H369.588ZM371.588 92H349.748V96H371.588V92ZM425.1 94H423.1V96H425.1V94ZM425.1 27.76V25.76H423.1V27.76H425.1ZM442.38 27.76H444.38V25.76H442.38V27.76ZM442.38 56.2V58.2H444.38V56.2H442.38ZM441.42 56.2H439.42V58.2H441.42V56.2ZM444.06 39.16L445.921 39.8913L445.926 39.8801L444.06 39.16ZM451.86 28.96L450.786 27.2727L450.777 27.2783L450.768 27.284L451.86 28.96ZM482.94 33.16L481.385 34.4184L481.396 34.4319L481.407 34.4452L482.94 33.16ZM489.18 94V96H491.18V94H489.18ZM467.34 94H465.34V96H467.34V94ZM464.58 48.04L463.078 49.3613L463.106 49.3931L463.136 49.4238L464.58 48.04ZM449.7 48.04L448.257 46.6549L448.256 46.6562L449.7 48.04ZM446.94 94V96H448.94V94H446.94ZM427.1 94V27.76H423.1V94H427.1ZM425.1 29.76H442.38V25.76H425.1V29.76ZM440.38 27.76V56.2H444.38V27.76H440.38ZM442.38 54.2H441.42V58.2H442.38V54.2ZM443.42 56.2C443.42 49.4715 444.283 44.0613 445.921 39.8913L442.198 38.4287C440.316 43.2187 439.42 49.1685 439.42 56.2H443.42ZM445.926 39.8801C447.564 35.6355 449.926 32.6055 452.951 30.636L450.768 27.284C446.913 29.7945 444.076 33.5645 442.194 38.4398L445.926 39.8801ZM452.933 30.6473C456.076 28.6474 459.927 27.6 464.58 27.6V23.6C459.312 23.6 454.683 24.7926 450.786 27.2727L452.933 30.6473ZM464.58 27.6H465.54V23.6H464.58V27.6ZM465.54 27.6C472.564 27.6 477.748 29.9254 481.385 34.4184L484.494 31.9016C479.971 26.3146 473.555 23.6 465.54 23.6V27.6ZM481.407 34.4452C485.131 38.8852 487.18 45.9674 487.18 56.08H491.18C491.18 45.5526 489.068 37.3548 484.472 31.8748L481.407 34.4452ZM487.18 56.08V94H491.18V56.08H487.18ZM489.18 92H467.34V96H489.18V92ZM469.34 94V55.48H465.34V94H469.34ZM469.34 55.48C469.34 52.004 468.272 49.0023 466.024 46.6562L463.136 49.4238C464.567 50.9177 465.34 52.876 465.34 55.48H469.34ZM466.081 46.7187C463.875 44.2121 460.846 43.04 457.26 43.04V47.04C459.913 47.04 461.764 47.8679 463.078 49.3613L466.081 46.7187ZM457.26 43.04C453.67 43.04 450.603 44.2111 448.257 46.6549L451.142 49.4251C452.636 47.8689 454.609 47.04 457.26 47.04V43.04ZM448.256 46.6562C445.989 49.0219 444.94 52.1157 444.94 55.72H448.94C448.94 52.9243 449.731 50.8981 451.144 49.4238L448.256 46.6562ZM444.94 55.72V94H448.94V55.72H444.94ZM446.94 92H425.1V96H446.94V92ZM543.93 94H541.93V96H543.93V94ZM543.93 74.56H545.93V72.56H543.93V74.56ZM540.33 74.56H538.33V76.56H540.33V74.56ZM538.17 47.08L536.679 48.4136L536.716 48.455L536.755 48.4942L538.17 47.08ZM524.61 44.92L524.664 46.9193L524.61 44.92ZM515.25 45.28L515.347 47.2776L515.25 45.28ZM506.25 45.76H504.25V47.8811L506.367 47.7565L506.25 45.76ZM506.25 27.52L506.084 25.5269L504.25 25.6797V27.52H506.25ZM513.09 27.04L512.969 25.0437L513.09 27.04ZM521.25 26.68L521.194 24.6808L521.193 24.6808L521.25 26.68ZM546.45 29.56L545.669 31.4015L545.68 31.4062L546.45 29.56ZM557.37 38.56L555.67 39.6139L555.677 39.626L555.685 39.6381L557.37 38.56ZM561.21 94V96H563.21V94H561.21ZM502.05 85.96L500.354 87.02L500.369 87.0449L500.386 87.0694L502.05 85.96ZM503.01 62.56L504.52 63.8714L504.528 63.8617L504.536 63.8519L503.01 62.56ZM513.93 55.72L514.522 57.6301L513.93 55.72ZM542.73 53.56H544.73V51.56H542.73V53.56ZM542.73 64.84V66.84H544.73V64.84H542.73ZM523.05 67.12L524.388 68.6066L524.408 68.5886L524.427 68.57L523.05 67.12ZM523.05 78.88L521.672 80.33L521.692 80.3486L521.712 80.3666L523.05 78.88ZM534.93 80.08L535.742 81.9076L535.764 81.8978L535.786 81.8875L534.93 80.08ZM538.65 76.48L536.913 75.4877V75.4877L538.65 76.48ZM540.33 69.52L541.709 68.0717L538.567 65.0792L538.333 69.412L540.33 69.52ZM545.37 74.32L547.362 74.4948L547.446 73.5357L546.749 72.8717L545.37 74.32ZM542.01 85.96L540.276 84.9631L540.272 84.9702L540.268 84.9774L542.01 85.96ZM534.57 93.16L533.64 91.3892L533.631 91.3941L533.622 91.3991L534.57 93.16ZM545.93 94V74.56H541.93V94H545.93ZM543.93 72.56H540.33V76.56H543.93V72.56ZM542.33 74.56V53.8H538.33V74.56H542.33ZM542.33 53.8C542.33 50.4884 541.549 47.631 539.584 45.6658L536.755 48.4942C537.67 49.409 538.33 51.0316 538.33 53.8H542.33ZM539.66 45.7464C537.75 43.6115 534.779 42.8 531.33 42.8V46.8C534.28 46.8 535.869 47.5084 536.679 48.4136L539.66 45.7464ZM531.33 42.8C529.782 42.8 527.52 42.8406 524.556 42.9207L524.664 46.9193C527.619 46.8394 529.837 46.8 531.33 46.8V42.8ZM524.556 42.9207C521.58 43.0012 518.445 43.1217 515.152 43.2824L515.347 47.2776C518.614 47.1183 521.72 46.9988 524.664 46.9193L524.556 42.9207ZM515.152 43.2824C511.867 43.4426 508.86 43.603 506.132 43.7635L506.367 47.7565C509.079 47.597 512.073 47.4374 515.347 47.2776L515.152 43.2824ZM508.25 45.76V27.52H504.25V45.76H508.25ZM506.416 29.5131C508.316 29.3547 510.581 29.1957 513.211 29.0363L512.969 25.0437C510.319 25.2043 508.023 25.3653 506.084 25.5269L506.416 29.5131ZM513.211 29.0363C515.828 28.8777 518.527 28.7586 521.307 28.6792L521.193 24.6808C518.372 24.7614 515.631 24.8823 512.969 25.0437L513.211 29.0363ZM521.305 28.6792C524.17 28.5996 526.791 28.56 529.17 28.56V24.56C526.748 24.56 524.089 24.6003 521.194 24.6808L521.305 28.6792ZM529.17 28.56C535.785 28.56 541.263 29.5342 545.669 31.4015L547.23 27.7185C542.197 25.5858 536.155 24.56 529.17 24.56V28.56ZM545.68 31.4062C550.138 33.2633 553.433 36.0057 555.67 39.6139L559.07 37.5061C556.347 33.1143 552.362 29.8567 547.219 27.7138L545.68 31.4062ZM555.685 39.6381C557.986 43.2335 559.21 47.9103 559.21 53.8H563.21C563.21 47.3697 561.873 41.8865 559.054 37.4819L555.685 39.6381ZM559.21 53.8V94H563.21V53.8H559.21ZM561.21 92H543.93V96H561.21V92ZM522.93 93.68C518.533 93.68 514.71 92.885 511.415 91.3476L509.724 94.9724C513.63 96.795 518.046 97.68 522.93 97.68V93.68ZM511.415 91.3476C508.127 89.813 505.578 87.6474 503.714 84.8506L500.386 87.0694C502.681 90.5126 505.812 93.147 509.724 94.9724L511.415 91.3476ZM503.746 84.9C501.975 82.0676 501.05 78.6485 501.05 74.56H497.05C497.05 79.2715 498.124 83.4524 500.354 87.02L503.746 84.9ZM501.05 74.56C501.05 69.9657 502.264 66.4685 504.52 63.8714L501.5 61.2486C498.475 64.7315 497.05 69.2343 497.05 74.56H501.05ZM504.536 63.8519C506.887 61.0737 510.177 58.9788 514.522 57.6301L513.337 53.8099C508.403 55.3412 504.412 57.8063 501.483 61.2681L504.536 63.8519ZM514.522 57.6301C518.932 56.2618 524.045 55.56 529.89 55.56V51.56C523.734 51.56 518.208 52.2982 513.337 53.8099L514.522 57.6301ZM529.89 55.56H542.73V51.56H529.89V55.56ZM540.73 53.56V64.84H544.73V53.56H540.73ZM542.73 62.84H529.89V66.84H542.73V62.84ZM529.89 62.84C526.596 62.84 523.756 63.6904 521.672 65.67L524.427 68.57C525.543 67.5096 527.263 66.84 529.89 66.84V62.84ZM521.712 65.6334C519.624 67.512 518.65 70.0481 518.65 73H522.65C522.65 70.9919 523.275 69.608 524.388 68.6066L521.712 65.6334ZM518.65 73C518.65 75.8949 519.638 78.3972 521.672 80.33L524.427 77.43C523.262 76.3228 522.65 74.9051 522.65 73H518.65ZM521.712 80.3666C523.797 82.2436 526.622 83.04 529.89 83.04V79.04C527.237 79.04 525.502 78.3964 524.388 77.3934L521.712 80.3666ZM529.89 83.04C532.03 83.04 533.997 82.6833 535.742 81.9076L534.117 78.2524C532.983 78.7567 531.59 79.04 529.89 79.04V83.04ZM535.786 81.8875C537.729 80.9668 539.255 79.4525 540.386 77.4723L536.913 75.4877C536.125 76.8675 535.17 77.7532 534.074 78.2725L535.786 81.8875ZM540.386 77.4723C541.561 75.416 542.158 72.7487 542.327 69.6279L538.333 69.412C538.181 72.2113 537.658 74.184 536.913 75.4877L540.386 77.4723ZM538.95 70.9683L543.99 75.7683L546.749 72.8717L541.709 68.0717L538.95 70.9683ZM543.377 74.1452C542.997 78.4834 541.94 82.068 540.276 84.9631L543.744 86.9569C545.759 83.452 546.943 79.2766 547.362 74.4948L543.377 74.1452ZM540.268 84.9774C538.699 87.7587 536.502 89.8865 533.64 91.3892L535.499 94.9308C539.037 93.0735 541.801 90.4013 543.752 86.9426L540.268 84.9774ZM533.622 91.3991C530.869 92.8811 527.338 93.68 522.93 93.68V97.68C527.802 97.68 532.03 96.7989 535.518 94.9209L533.622 91.3991ZM22.12 189.52L21.3077 191.348L22.12 189.52ZM11.2 181.72L12.6848 180.38L11.2 181.72ZM4.36 170.68L2.48584 171.378L2.49181 171.394L2.49805 171.41L4.36 170.68ZM4.36 142.84L2.49331 142.122L2.48952 142.132L2.48584 142.142L4.36 142.84ZM11.08 131.8L9.6118 130.442L9.60254 130.452L9.59341 130.462L11.08 131.8ZM21.88 124.24L22.6762 126.075L22.6907 126.068L22.705 126.062L21.88 124.24ZM54.4 126.16L53.3158 127.841L54.4 126.16ZM65.8 138.88L64.0111 139.774L64.0167 139.785L65.8 138.88ZM69.76 162.88V164.88H71.76V162.88H69.76ZM11.2 162.88H9.2V164.88H11.2V162.88ZM11.2 151.12V149.12H9.2V151.12H11.2ZM57.16 151.12L58.3052 152.76L63.5165 149.12H57.16V151.12ZM49.6 156.4H47.6V160.236L50.7452 158.04L49.6 156.4ZM48.04 146.92L46.1604 147.603L46.1731 147.638L46.1871 147.673L48.04 146.92ZM43.6 140.92L42.444 142.552L42.4596 142.563L42.4754 142.574L43.6 140.92ZM28.72 140.92L29.7682 142.623L29.7769 142.618L29.7856 142.612L28.72 140.92ZM23.92 146.92L25.7612 147.701L25.7653 147.691L25.7694 147.682L23.92 146.92ZM23.8 166.6L21.9319 167.314L21.9355 167.324L21.9392 167.333L23.8 166.6ZM28.6 172.72L29.7094 171.056H29.7094L28.6 172.72ZM44.44 173.32L43.5173 171.546L43.5023 171.553L43.4874 171.561L44.44 173.32ZM48.64 169.12V167.12H47.3522L46.8193 168.292L48.64 169.12ZM68.56 169.12L70.5156 169.539L71.034 167.12H68.56V169.12ZM62.8 181.12L61.2521 179.854L61.2434 179.864L61.2348 179.875L62.8 181.12ZM52 189.4L51.1724 187.579L51.1598 187.585L52 189.4ZM37 190.4C31.6289 190.4 26.9538 189.48 22.9323 187.692L21.3077 191.348C25.9262 193.4 31.1711 194.4 37 194.4V190.4ZM22.9323 187.692C18.8499 185.878 15.4443 183.438 12.6848 180.38L9.71521 183.06C12.8757 186.562 16.7501 189.322 21.3077 191.348L22.9323 187.692ZM12.6848 180.38C9.88487 177.277 7.73325 173.804 6.22195 169.95L2.49805 171.41C4.18675 175.716 6.59513 179.603 9.71521 183.06L12.6848 180.38ZM6.23416 169.982C4.79672 166.123 4.08 162.16 4.08 158.08H0.0800002C0.0800002 162.64 0.883284 167.077 2.48584 171.378L6.23416 169.982ZM4.08 158.08V155.68H0.0800002V158.08H4.08ZM4.08 155.68C4.08 151.431 4.7998 147.388 6.23416 143.538L2.48584 142.142C0.8802 146.452 0.0800002 150.969 0.0800002 155.68H4.08ZM6.22669 143.558C7.74209 139.618 9.85588 136.15 12.5666 133.138L9.59341 130.462C6.54412 133.85 4.17791 137.742 2.49331 142.122L6.22669 143.558ZM12.5482 133.158C15.3085 130.174 18.6752 127.811 22.6762 126.075L21.0838 122.405C16.6048 124.349 12.7715 127.026 9.6118 130.442L12.5482 133.158ZM22.705 126.062C26.6494 124.276 31.1616 123.36 36.28 123.36V119.36C30.6784 119.36 25.5907 120.364 21.055 122.418L22.705 126.062ZM36.28 123.36C43.0955 123.36 48.7402 124.889 53.3158 127.841L55.4843 124.479C50.1398 121.031 43.7045 119.36 36.28 119.36V123.36ZM53.3158 127.841C57.9747 130.846 61.5313 134.815 64.0111 139.774L67.5889 137.986C64.7887 132.385 60.7453 127.874 55.4843 124.479L53.3158 127.841ZM64.0167 139.785C66.5062 144.689 67.76 150.056 67.76 155.92H71.76C71.76 149.464 70.3738 143.471 67.5833 137.975L64.0167 139.785ZM67.76 155.92V162.88H71.76V155.92H67.76ZM69.76 160.88H11.2V164.88H69.76V160.88ZM13.2 162.88V151.12H9.2V162.88H13.2ZM11.2 153.12H57.16V149.12H11.2V153.12ZM56.0148 149.48L48.4548 154.76L50.7452 158.04L58.3052 152.76L56.0148 149.48ZM51.6 156.4C51.6 152.469 51.0582 149.036 49.8929 146.167L46.1871 147.673C47.1018 149.924 47.6 152.811 47.6 156.4H51.6ZM49.9196 146.237C48.84 143.268 47.1257 140.899 44.7246 139.266L42.4754 142.574C44.0743 143.661 45.32 145.292 46.1604 147.603L49.9196 146.237ZM44.756 139.288C42.4198 137.633 39.5466 136.88 36.28 136.88V140.88C38.9334 140.88 40.9402 141.487 42.444 142.552L44.756 139.288ZM36.28 136.88C33.0726 136.88 30.1731 137.642 27.6544 139.228L29.7856 142.612C31.5869 141.478 33.7274 140.88 36.28 140.88V136.88ZM27.6718 139.217C25.1634 140.76 23.3179 143.13 22.0706 146.158L25.7694 147.682C26.7621 145.27 28.1166 143.64 29.7682 142.623L27.6718 139.217ZM22.0788 146.139C20.8196 149.107 20.24 152.757 20.24 157H24.24C24.24 153.083 24.7804 150.013 25.7612 147.701L22.0788 146.139ZM20.24 157C20.24 160.862 20.7851 164.315 21.9319 167.314L25.6681 165.886C24.7349 163.445 24.24 160.498 24.24 157H20.24ZM21.9392 167.333C23.1142 170.316 24.9593 172.697 27.4906 174.384L29.7094 171.056C27.9207 169.863 26.5658 168.164 25.6608 165.867L21.9392 167.333ZM27.4906 174.384C30.0703 176.104 33.2912 176.88 37 176.88V172.88C33.8288 172.88 31.4497 172.216 29.7094 171.056L27.4906 174.384ZM37 176.88C40.2491 176.88 43.0879 176.327 45.3926 175.079L43.4874 171.561C41.9521 172.393 39.8309 172.88 37 172.88V176.88ZM45.3627 175.094C47.6908 173.884 49.446 172.18 50.4607 169.948L46.8193 168.292C46.234 169.58 45.1892 170.676 43.5173 171.546L45.3627 175.094ZM48.64 171.12H68.56V167.12H48.64V171.12ZM66.6044 168.701C65.7105 172.872 63.9292 176.581 61.2521 179.854L64.3479 182.386C67.4308 178.619 69.4895 174.328 70.5156 169.539L66.6044 168.701ZM61.2348 179.875C58.6462 183.129 55.3064 185.7 51.1724 187.579L52.8276 191.221C57.4936 189.1 61.3538 186.151 64.3652 182.365L61.2348 179.875ZM51.1598 187.585C47.149 189.442 42.4451 190.4 37 190.4V194.4C42.9149 194.4 48.211 193.358 52.8402 191.215L51.1598 187.585ZM84.8716 186.28L83.698 187.9L83.7058 187.905L83.7136 187.911L84.8716 186.28ZM75.9916 169.48V167.48H73.8774L73.9946 169.591L75.9916 169.48ZM95.1916 169.48L97.1664 169.164L96.897 167.48H95.1916V169.48ZM98.9116 174.64L100.021 172.976V172.976L98.9116 174.64ZM115.232 175.6L115.974 177.457L115.993 177.45L116.011 177.442L115.232 175.6ZM115.952 167.32L114.805 168.958L114.833 168.978L114.862 168.997L115.952 167.32ZM107.192 165.04L106.982 167.029L106.993 167.03L107.004 167.031L107.192 165.04ZM102.632 164.56L102.841 162.571L102.838 162.571L102.632 164.56ZM83.9116 157.6L85.2814 156.143L83.9116 157.6ZM81.5116 131.44L83.0968 132.659L83.1042 132.65L83.1116 132.64L81.5116 131.44ZM91.4716 124.24L90.7654 122.369L91.4716 124.24ZM127.472 127.72L126.302 129.343L126.31 129.348L126.318 129.354L127.472 127.72ZM136.112 144.4V146.4H138.201L138.11 144.312L136.112 144.4ZM116.912 144.4L114.937 144.716L115.206 146.4H116.912V144.4ZM113.672 139.36L112.439 140.935L112.461 140.952L112.483 140.968L113.672 139.36ZM99.6316 138.52L98.6677 136.768L98.6485 136.778L98.6295 136.789L99.6316 138.52ZM99.5116 145.96L98.5403 147.708L98.5601 147.719L98.5801 147.73L99.5116 145.96ZM106.712 147.76L106.469 149.745L106.486 149.747L106.502 149.749L106.712 147.76ZM111.272 148.24L111.062 150.229L111.065 150.229L111.272 148.24ZM130.832 155.32L129.543 156.85L129.558 156.862L129.572 156.874L130.832 155.32ZM134.072 181.96L132.476 180.754L132.467 180.766L132.458 180.779L134.072 181.96ZM123.632 189.52L122.911 187.654L122.9 187.658L123.632 189.52ZM107.552 190.16C98.1991 190.16 91.0965 188.248 86.0296 184.649L83.7136 187.911C89.6867 192.152 97.704 194.16 107.552 194.16V190.16ZM86.0451 184.661C81.0442 181.037 78.3573 176.008 77.9885 169.369L73.9946 169.591C74.4258 177.352 77.659 183.523 83.698 187.9L86.0451 184.661ZM75.9916 171.48H95.1916V167.48H75.9916V171.48ZM93.2167 169.796C93.648 172.492 95.317 174.647 97.8022 176.304L100.021 172.976C98.1862 171.753 97.3751 170.468 97.1664 169.164L93.2167 169.796ZM97.8022 176.304C100.419 178.048 103.905 178.8 108.032 178.8V174.8C104.318 174.8 101.725 174.112 100.021 172.976L97.8022 176.304ZM108.032 178.8C111.013 178.8 113.679 178.375 115.974 177.457L114.489 173.743C112.784 174.425 110.65 174.8 108.032 174.8V178.8ZM116.011 177.442C117.284 176.903 118.391 176.141 119.177 175.083C119.979 174.003 120.352 172.744 120.352 171.4H116.352C116.352 171.976 116.204 172.377 115.966 172.697C115.713 173.039 115.259 173.417 114.452 173.758L116.011 177.442ZM120.352 171.4C120.352 168.942 119.119 166.993 117.042 165.643L114.862 168.997C115.985 169.727 116.352 170.498 116.352 171.4H120.352ZM117.098 165.682C115.035 164.237 111.647 163.451 107.379 163.049L107.004 167.031C111.217 167.429 113.668 168.163 114.805 168.958L117.098 165.682ZM107.401 163.051L102.841 162.571L102.422 166.549L106.982 167.029L107.401 163.051ZM102.838 162.571C94.5674 161.712 88.8289 159.477 85.2814 156.143L82.5417 159.057C86.9942 163.243 93.7358 165.648 102.425 166.549L102.838 162.571ZM85.2814 156.143C81.699 152.775 79.9116 148.59 79.9116 143.44H75.9116C75.9116 149.65 78.1242 154.905 82.5417 159.057L85.2814 156.143ZM79.9116 143.44C79.9116 138.893 81.0249 135.353 83.0968 132.659L79.9263 130.221C77.1982 133.767 75.9116 138.227 75.9116 143.44H79.9116ZM83.1116 132.64C85.2542 129.783 88.2448 127.595 92.1777 126.111L90.7654 122.369C86.2184 124.085 82.569 126.697 79.9116 130.24L83.1116 132.64ZM92.1777 126.111C96.1518 124.612 100.746 123.84 105.992 123.84V119.84C100.357 119.84 95.2713 120.668 90.7654 122.369L92.1777 126.111ZM105.992 123.84C114.587 123.84 121.298 125.737 126.302 129.343L128.641 126.097C122.765 121.863 115.156 119.84 105.992 119.84V123.84ZM126.318 129.354C131.2 132.8 133.818 137.759 134.113 144.488L138.11 144.312C137.765 136.481 134.623 130.32 128.625 126.086L126.318 129.354ZM136.112 142.4H116.912V146.4H136.112V142.4ZM118.886 144.084C118.473 141.498 117.062 139.379 114.86 137.752L112.483 140.968C113.961 142.061 114.71 143.302 114.937 144.716L118.886 144.084ZM114.904 137.785C112.58 135.966 109.435 135.2 105.752 135.2V139.2C108.948 139.2 111.083 139.874 112.439 140.935L114.904 137.785ZM105.752 135.2C103.05 135.2 100.65 135.677 98.6677 136.768L100.595 140.272C101.813 139.603 103.493 139.2 105.752 139.2V135.2ZM98.6295 136.789C96.565 137.984 95.3516 139.846 95.3516 142.24H99.3516C99.3516 141.434 99.6581 140.816 100.634 140.251L98.6295 136.789ZM95.3516 142.24C95.3516 143.372 95.5965 144.46 96.162 145.434C96.7286 146.41 97.5528 147.16 98.5403 147.708L100.483 144.212C100.03 143.96 99.7745 143.69 99.6211 143.426C99.4666 143.16 99.3516 142.788 99.3516 142.24H95.3516ZM98.5801 147.73C100.432 148.704 103.129 149.338 106.469 149.745L106.954 145.775C103.734 145.382 101.631 144.816 100.443 144.19L98.5801 147.73ZM106.502 149.749L111.062 150.229L111.481 146.251L106.921 145.771L106.502 149.749ZM111.065 150.229C119.311 151.085 125.395 153.357 129.543 156.85L132.12 153.79C127.148 149.603 120.192 147.155 111.478 146.251L111.065 150.229ZM129.572 156.874C133.727 160.24 135.792 164.621 135.792 170.2H139.792C139.792 163.459 137.216 157.919 132.091 153.766L129.572 156.874ZM135.792 170.2C135.792 174.375 134.665 177.859 132.476 180.754L135.667 183.166C138.438 179.501 139.792 175.145 139.792 170.2H135.792ZM132.458 180.779C130.326 183.692 127.187 186.004 122.911 187.654L124.352 191.386C129.196 189.516 133.017 186.788 135.686 183.141L132.458 180.779ZM122.9 187.658C118.711 189.304 113.612 190.16 107.552 190.16V194.16C113.971 194.16 119.592 193.256 124.363 191.382L122.9 187.658ZM163.894 189.64L163.069 191.462L163.084 191.468L163.098 191.475L163.894 189.64ZM153.214 181.96L151.709 183.277L151.718 183.288L151.728 183.298L153.214 181.96ZM146.854 171.04L144.957 171.672L144.963 171.689L144.968 171.706L146.854 171.04ZM146.974 142.72L145.096 142.034L145.09 142.05L145.084 142.066L146.974 142.72ZM153.574 131.68L152.088 130.342L153.574 131.68ZM194.974 124.96L195.893 123.184L194.974 124.96ZM206.014 134.92L204.331 136L204.343 136.018L204.355 136.037L206.014 134.92ZM210.694 149.32V151.32H212.815L212.691 149.203L210.694 149.32ZM189.334 149.32L187.343 149.501L187.508 151.32H189.334V149.32ZM186.334 142.6L184.857 143.949L184.873 143.966L184.889 143.982L186.334 142.6ZM171.934 142L170.702 140.425L170.685 140.438L170.668 140.452L171.934 142ZM167.974 148L169.866 148.65L167.974 148ZM167.734 165.88L165.809 166.421L165.817 166.449L165.825 166.477L167.734 165.88ZM171.574 171.88L170.308 173.428L170.346 173.459L170.386 173.488L171.574 171.88ZM188.134 169.36L189.841 170.403L189.853 170.383L189.865 170.362L188.134 169.36ZM189.814 164.08V162.08H188.04L187.829 163.842L189.814 164.08ZM211.174 164.08L213.171 164.194L213.292 162.08H211.174V164.08ZM206.374 178.84L204.72 177.716L204.713 177.727L204.705 177.738L206.374 178.84ZM195.094 188.8L194.188 187.017L195.094 188.8ZM178.894 190.4C173.343 190.4 168.626 189.513 164.691 187.805L163.098 191.475C167.643 193.447 172.926 194.4 178.894 194.4V190.4ZM164.719 187.818C160.71 186.003 157.382 183.601 154.701 180.622L151.728 183.298C154.807 186.719 158.598 189.437 163.069 191.462L164.719 187.818ZM154.72 180.643C152.09 177.637 150.097 174.219 148.74 170.374L144.968 171.706C146.491 176.021 148.739 179.883 151.709 183.277L154.72 180.643ZM148.752 170.408C147.461 166.536 146.814 162.51 146.814 158.32H142.814C142.814 162.93 143.527 167.384 144.957 171.672L148.752 170.408ZM146.814 158.32V155.92H142.814V158.32H146.814ZM146.814 155.92C146.814 151.491 147.501 147.313 148.864 143.374L145.084 142.066C143.568 146.447 142.814 151.069 142.814 155.92H146.814ZM148.853 143.406C150.288 139.48 152.357 136.022 155.061 133.018L152.088 130.342C149.032 133.738 146.701 137.64 145.096 142.034L148.853 143.406ZM155.061 133.018C157.735 130.046 161.054 127.689 165.051 125.955L163.458 122.285C158.975 124.231 155.173 126.914 152.088 130.342L155.061 133.018ZM165.051 125.955C168.995 124.243 173.596 123.36 178.894 123.36V119.36C173.153 119.36 167.993 120.317 163.458 122.285L165.051 125.955ZM178.894 123.36C184.707 123.36 189.743 124.506 194.056 126.736L195.893 123.184C190.926 120.614 185.242 119.36 178.894 119.36V123.36ZM194.056 126.736C198.396 128.982 201.808 132.066 204.331 136L207.698 133.84C204.781 129.294 200.833 125.738 195.893 123.184L194.056 126.736ZM204.355 136.037C206.938 139.874 208.397 144.323 208.698 149.437L212.691 149.203C212.352 143.437 210.691 138.286 207.674 133.803L204.355 136.037ZM210.694 147.32H189.334V151.32H210.694V147.32ZM191.326 149.139C191.047 146.068 189.866 143.399 187.78 141.218L184.889 143.982C186.323 145.481 187.142 147.292 187.343 149.501L191.326 149.139ZM187.811 141.251C185.642 138.876 182.549 137.84 178.894 137.84V141.84C181.8 141.84 183.666 142.644 184.857 143.949L187.811 141.251ZM178.894 137.84C175.739 137.84 172.96 138.658 170.702 140.425L173.167 143.575C174.589 142.462 176.45 141.84 178.894 141.84V137.84ZM170.668 140.452C168.57 142.169 167.061 144.506 166.083 147.35L169.866 148.65C170.648 146.374 171.779 144.711 173.201 143.548L170.668 140.452ZM166.083 147.35C165.113 150.171 164.654 153.442 164.654 157.12H168.654C168.654 153.758 169.076 150.949 169.866 148.65L166.083 147.35ZM164.654 157.12C164.654 160.542 165.03 163.65 165.809 166.421L169.66 165.339C168.999 162.99 168.654 160.258 168.654 157.12H164.654ZM165.825 166.477C166.721 169.341 168.194 171.699 170.308 173.428L172.841 170.332C171.434 169.181 170.348 167.539 169.643 165.283L165.825 166.477ZM170.386 173.488C172.667 175.175 175.566 175.92 178.894 175.92V171.92C176.143 171.92 174.162 171.305 172.763 170.272L170.386 173.488ZM178.894 175.92C181.364 175.92 183.585 175.48 185.466 174.49L183.603 170.95C182.444 171.56 180.905 171.92 178.894 171.92V175.92ZM185.466 174.49C187.299 173.525 188.769 172.156 189.841 170.403L186.428 168.317C185.739 169.444 184.81 170.315 183.603 170.95L185.466 174.49ZM189.865 170.362C190.9 168.575 191.533 166.548 191.8 164.318L187.829 163.842C187.616 165.612 187.129 167.105 186.404 168.358L189.865 170.362ZM189.814 166.08H211.174V162.08H189.814V166.08ZM209.178 163.966C208.876 169.24 207.378 173.803 204.72 177.716L208.029 179.964C211.131 175.397 212.832 170.12 213.171 164.194L209.178 163.966ZM204.705 177.738C202.105 181.676 198.613 184.767 194.188 187.017L196.001 190.583C201.016 188.033 205.044 184.484 208.043 179.942L204.705 177.738ZM194.188 187.017C189.788 189.255 184.706 190.4 178.894 190.4V194.4C185.243 194.4 190.961 193.145 196.001 190.583L194.188 187.017ZM239.648 189.76L240.368 187.894L239.648 189.76ZM228.008 182.44L226.594 183.854L226.603 183.863L226.612 183.872L228.008 182.44ZM220.808 171.64L218.946 172.37L218.952 172.386L218.959 172.402L220.808 171.64ZM220.928 142.24L219.086 141.461L219.08 141.476L219.074 141.491L220.928 142.24ZM228.368 131.32L226.972 129.888V129.888L228.368 131.32ZM270.488 124L269.757 125.862L269.768 125.866L270.488 124ZM282.128 131.32L280.732 132.752L282.128 131.32ZM289.448 142.24L287.594 142.989L287.6 143.004L287.606 143.019L289.448 142.24ZM289.568 171.64L287.719 170.878L287.712 170.894L287.706 170.91L289.568 171.64ZM282.368 182.44L280.972 181.008L280.963 181.017L280.954 181.026L282.368 182.44ZM270.848 189.76L270.128 187.894L270.848 189.76ZM263.528 172L262.447 170.318L262.433 170.327L262.419 170.336L263.528 172ZM268.568 166L270.4 166.802L270.405 166.791L270.409 166.781L268.568 166ZM268.448 148.12L266.607 148.901L266.621 148.935L266.637 148.969L268.448 148.12ZM247.088 141.88L245.965 140.225L247.088 141.88ZM241.928 148.12L240.107 147.292L240.102 147.305L240.096 147.318L241.928 148.12ZM241.928 166L240.087 166.781L240.091 166.791L240.096 166.802L241.928 166ZM255.248 190.4C249.608 190.4 244.659 189.55 240.368 187.894L238.928 191.626C243.758 193.49 249.209 194.4 255.248 194.4V190.4ZM240.368 187.894C236.037 186.222 232.393 183.922 229.404 181.008L226.612 183.872C230.023 187.198 234.139 189.778 238.928 191.626L240.368 187.894ZM229.422 181.026C226.489 178.092 224.237 174.714 222.657 170.878L218.959 172.402C220.739 176.726 223.287 180.548 226.594 183.854L229.422 181.026ZM222.67 170.91C221.167 167.076 220.408 162.965 220.408 158.56H216.408C216.408 163.435 217.25 168.044 218.946 172.37L222.67 170.91ZM220.408 158.56V155.68H216.408V158.56H220.408ZM220.408 155.68C220.408 151.119 221.205 146.895 222.783 142.989L219.074 141.491C217.291 145.905 216.408 150.641 216.408 155.68H220.408ZM222.77 143.019C224.428 139.102 226.757 135.684 229.764 132.752L226.972 129.888C223.579 133.196 220.949 137.058 219.086 141.461L222.77 143.019ZM229.764 132.752C232.753 129.838 236.397 127.538 240.728 125.866L239.288 122.134C234.499 123.982 230.383 126.562 226.972 129.888L229.764 132.752ZM240.728 125.866C245.028 124.206 249.859 123.36 255.248 123.36V119.36C249.437 119.36 244.109 120.274 239.288 122.134L240.728 125.866ZM255.248 123.36C260.722 123.36 265.548 124.208 269.757 125.862L271.219 122.138C266.469 120.272 261.134 119.36 255.248 119.36V123.36ZM269.768 125.866C274.099 127.538 277.743 129.838 280.732 132.752L283.524 129.888C280.113 126.562 275.997 123.982 271.208 122.134L269.768 125.866ZM280.732 132.752C283.733 135.678 286.017 139.085 287.594 142.989L291.303 141.491C289.519 137.075 286.924 133.202 283.524 129.888L280.732 132.752ZM287.606 143.019C289.255 146.918 290.088 151.131 290.088 155.68H294.088C294.088 150.629 293.161 145.882 291.29 141.461L287.606 143.019ZM290.088 155.68V158.56H294.088V155.68H290.088ZM290.088 158.56C290.088 162.952 289.294 167.052 287.719 170.878L291.417 172.402C293.202 168.068 294.088 163.448 294.088 158.56H290.088ZM287.706 170.91C286.212 174.72 283.973 178.082 280.972 181.008L283.764 183.872C287.163 180.558 289.724 176.72 291.43 172.37L287.706 170.91ZM280.954 181.026C278.052 183.928 274.456 186.224 270.128 187.894L271.568 191.626C276.36 189.776 280.445 187.192 283.782 183.854L280.954 181.026ZM270.128 187.894C265.838 189.55 260.889 190.4 255.248 190.4V194.4C261.288 194.4 266.739 193.49 271.568 191.626L270.128 187.894ZM255.248 176.16C258.888 176.16 262.065 175.379 264.638 173.664L262.419 170.336C260.671 171.501 258.328 172.16 255.248 172.16V176.16ZM264.61 173.682C267.198 172.018 269.131 169.704 270.4 166.802L266.736 165.198C265.766 167.416 264.338 169.102 262.447 170.318L264.61 173.682ZM270.409 166.781C271.648 163.861 272.248 160.63 272.248 157.12H268.248C268.248 160.17 267.728 162.859 266.727 165.219L270.409 166.781ZM272.248 157.12C272.248 153.449 271.608 150.148 270.259 147.271L266.637 148.969C267.689 151.212 268.248 153.911 268.248 157.12H272.248ZM270.289 147.339C269.028 144.367 267.109 141.974 264.531 140.225L262.285 143.535C264.187 144.826 265.628 146.593 266.607 148.901L270.289 147.339ZM264.531 140.225C261.903 138.442 258.774 137.6 255.248 137.6V141.6C258.122 141.6 260.433 142.278 262.285 143.535L264.531 140.225ZM255.248 137.6C251.722 137.6 248.593 138.442 245.965 140.225L248.211 143.535C250.063 142.278 252.374 141.6 255.248 141.6V137.6ZM245.965 140.225C243.399 141.966 241.448 144.343 240.107 147.292L243.749 148.948C244.808 146.617 246.297 144.834 248.211 143.535L245.965 140.225ZM240.096 147.318C238.843 150.182 238.248 153.466 238.248 157.12H242.248C242.248 153.894 242.773 151.178 243.76 148.922L240.096 147.318ZM238.248 157.12C238.248 160.63 238.848 163.861 240.087 166.781L243.769 165.219C242.768 162.859 242.248 160.17 242.248 157.12H238.248ZM240.096 166.802C241.366 169.704 243.298 172.018 245.887 173.682L248.05 170.318C246.158 169.102 244.731 167.416 243.76 165.198L240.096 166.802ZM245.887 173.682C248.517 175.373 251.674 176.16 255.248 176.16V172.16C252.263 172.16 249.899 171.507 248.05 170.318L245.887 173.682ZM305.005 190H303.005V192H305.005V190ZM305.005 102.4V100.4H303.005V102.4H305.005ZM326.845 102.4H328.845V100.4H326.845V102.4ZM326.845 190V192H328.845V190H326.845ZM297.565 118.24H295.565V120.24H297.565V118.24ZM297.565 102.4V100.4H295.565V102.4H297.565ZM326.845 102.4H328.845V100.4H326.845V102.4ZM326.845 118.24V120.24H328.845V118.24H326.845ZM307.005 190V102.4H303.005V190H307.005ZM305.005 104.4H326.845V100.4H305.005V104.4ZM324.845 102.4V190H328.845V102.4H324.845ZM326.845 188H305.005V192H326.845V188ZM299.565 118.24V102.4H295.565V118.24H299.565ZM297.565 104.4H326.845V100.4H297.565V104.4ZM324.845 102.4V118.24H328.845V102.4H324.845ZM326.845 116.24H297.565V120.24H326.845V116.24ZM383.031 190H381.031V192H383.031V190ZM383.031 170.56H385.031V168.56H383.031V170.56ZM379.431 170.56H377.431V172.56H379.431V170.56ZM377.271 143.08L375.781 144.414L375.818 144.455L375.857 144.494L377.271 143.08ZM363.711 140.92L363.765 142.919L363.711 140.92ZM354.351 141.28L354.449 143.278L354.351 141.28ZM345.351 141.76H343.351V143.881L345.469 143.757L345.351 141.76ZM345.351 123.52L345.185 121.527L343.351 121.68V123.52H345.351ZM352.191 123.04L352.07 121.044L352.191 123.04ZM360.351 122.68L360.296 120.681L360.294 120.681L360.351 122.68ZM385.551 125.56L384.771 127.402L384.782 127.406L385.551 125.56ZM396.471 134.56L394.771 135.614L394.779 135.626L394.787 135.638L396.471 134.56ZM400.311 190V192H402.311V190H400.311ZM341.151 181.96L339.455 183.02L339.471 183.045L339.487 183.069L341.151 181.96ZM342.111 158.56L343.621 159.871L343.63 159.862L343.638 159.852L342.111 158.56ZM353.031 151.72L353.624 153.63L353.031 151.72ZM381.831 149.56H383.831V147.56H381.831V149.56ZM381.831 160.84V162.84H383.831V160.84H381.831ZM362.151 163.12L363.489 164.607L363.509 164.589L363.529 164.57L362.151 163.12ZM362.151 174.88L360.774 176.33L360.793 176.349L360.813 176.367L362.151 174.88ZM374.031 176.08L374.844 177.908L374.866 177.898L374.887 177.887L374.031 176.08ZM377.751 172.48L376.015 171.488L377.751 172.48ZM379.431 165.52L380.811 164.072L377.668 161.079L377.434 165.412L379.431 165.52ZM384.471 170.32L386.464 170.495L386.548 169.536L385.851 168.872L384.471 170.32ZM381.111 181.96L379.377 180.963L379.373 180.97L379.369 180.977L381.111 181.96ZM373.671 189.16L372.742 187.389L372.732 187.394L372.723 187.399L373.671 189.16ZM385.031 190V170.56H381.031V190H385.031ZM383.031 168.56H379.431V172.56H383.031V168.56ZM381.431 170.56V149.8H377.431V170.56H381.431ZM381.431 149.8C381.431 146.488 380.651 143.631 378.685 141.666L375.857 144.494C376.772 145.409 377.431 147.032 377.431 149.8H381.431ZM378.762 141.746C376.852 139.612 373.881 138.8 370.431 138.8V142.8C373.382 142.8 374.971 143.508 375.781 144.414L378.762 141.746ZM370.431 138.8C368.884 138.8 366.622 138.841 363.657 138.921L363.765 142.919C366.721 142.839 368.939 142.8 370.431 142.8V138.8ZM363.657 138.921C360.681 139.001 357.547 139.122 354.254 139.282L354.449 143.278C357.716 143.118 360.821 142.999 363.765 142.919L363.657 138.921ZM354.254 139.282C350.968 139.443 347.962 139.603 345.234 139.763L345.469 143.757C348.181 143.597 351.174 143.437 354.449 143.278L354.254 139.282ZM347.351 141.76V123.52H343.351V141.76H347.351ZM345.517 125.513C347.418 125.355 349.682 125.196 352.312 125.036L352.07 121.044C349.42 121.204 347.125 121.365 345.185 121.527L345.517 125.513ZM352.312 125.036C354.93 124.878 357.628 124.759 360.408 124.679L360.294 120.681C357.474 120.761 354.733 120.882 352.07 121.044L352.312 125.036ZM360.407 124.679C363.272 124.6 365.893 124.56 368.271 124.56V120.56C365.85 120.56 363.191 120.6 360.296 120.681L360.407 124.679ZM368.271 124.56C374.886 124.56 380.364 125.534 384.771 127.402L386.332 123.718C381.298 121.586 375.256 120.56 368.271 120.56V124.56ZM384.782 127.406C389.239 129.263 392.534 132.006 394.771 135.614L398.171 133.506C395.448 129.114 391.463 125.857 386.32 123.714L384.782 127.406ZM394.787 135.638C397.088 139.233 398.311 143.91 398.311 149.8H402.311C402.311 143.37 400.975 137.887 398.156 133.482L394.787 135.638ZM398.311 149.8V190H402.311V149.8H398.311ZM400.311 188H383.031V192H400.311V188ZM362.031 189.68C357.635 189.68 353.811 188.885 350.517 187.348L348.825 190.972C352.731 192.795 357.148 193.68 362.031 193.68V189.68ZM350.517 187.348C347.228 185.813 344.68 183.647 342.815 180.851L339.487 183.069C341.783 186.513 344.914 189.147 348.825 190.972L350.517 187.348ZM342.847 180.9C341.077 178.068 340.151 174.648 340.151 170.56H336.151C336.151 175.272 337.226 179.452 339.455 183.02L342.847 180.9ZM340.151 170.56C340.151 165.966 341.366 162.469 343.621 159.871L340.601 157.249C337.577 160.731 336.151 165.234 336.151 170.56H340.151ZM343.638 159.852C345.989 157.074 349.278 154.979 353.624 153.63L352.438 149.81C347.504 151.341 343.514 153.806 340.584 157.268L343.638 159.852ZM353.624 153.63C358.033 152.262 363.147 151.56 368.991 151.56V147.56C362.836 147.56 357.309 148.298 352.438 149.81L353.624 153.63ZM368.991 151.56H381.831V147.56H368.991V151.56ZM379.831 149.56V160.84H383.831V149.56H379.831ZM381.831 158.84H368.991V162.84H381.831V158.84ZM368.991 158.84C365.698 158.84 362.858 159.69 360.774 161.67L363.529 164.57C364.645 163.51 366.365 162.84 368.991 162.84V158.84ZM360.813 161.633C358.726 163.512 357.751 166.048 357.751 169H361.751C361.751 166.992 362.376 165.608 363.489 164.607L360.813 161.633ZM357.751 169C357.751 171.895 358.739 174.397 360.774 176.33L363.529 173.43C362.363 172.323 361.751 170.905 361.751 169H357.751ZM360.813 176.367C362.899 178.244 365.724 179.04 368.991 179.04V175.04C366.339 175.04 364.604 174.396 363.489 173.393L360.813 176.367ZM368.991 179.04C371.131 179.04 373.098 178.683 374.844 177.908L373.219 174.252C372.084 174.757 370.691 175.04 368.991 175.04V179.04ZM374.887 177.887C376.831 176.967 378.356 175.452 379.488 173.472L376.015 171.488C375.226 172.868 374.272 173.753 373.175 174.273L374.887 177.887ZM379.488 173.472C380.663 171.416 381.26 168.749 381.428 165.628L377.434 165.412C377.283 168.211 376.76 170.184 376.015 171.488L379.488 173.472ZM378.052 166.968L383.092 171.768L385.851 168.872L380.811 164.072L378.052 166.968ZM382.479 170.145C382.098 174.483 381.042 178.068 379.377 180.963L382.845 182.957C384.86 179.452 386.044 175.277 386.464 170.495L382.479 170.145ZM379.369 180.977C377.8 183.759 375.604 185.887 372.742 187.389L374.601 190.931C378.139 189.073 380.902 186.401 382.853 182.943L379.369 180.977ZM372.723 187.399C369.971 188.881 366.439 189.68 362.031 189.68V193.68C366.903 193.68 371.132 192.799 374.619 190.921L372.723 187.399Z" fill="#FEFEFE" mask="url(#path-1-outside-1_7788_1600)"/>
</svg>
