<svg width="254" height="45" viewBox="0 0 254 45" fill="none" xmlns="http://www.w3.org/2000/svg">
<g id="logo" clip-path="url(#clip0_7827_403)">
<g id="Group">
<g id="agencia + web">
<path id="Vector" d="M89.9668 21.2708L97.6431 1.0332H101.588L109.264 21.2727H105.017L103.256 16.1438H95.7311L93.9704 21.2727H89.9668V21.2708ZM96.794 12.9874H102.165L99.4946 5.12952L96.794 12.9874Z" fill="#FEFEFE"/>
<path id="Vector_2" d="M111.389 26.2195L112.996 23.5794C114.069 24.3075 115.455 24.6725 117.153 24.6725C118.084 24.6725 118.863 24.385 119.489 23.8082C120.115 23.2314 120.429 22.4465 120.429 21.4575V19.9105C119.943 20.2944 119.411 20.6197 118.836 20.8806C118.26 21.1435 117.496 21.2759 116.546 21.2759C115.19 21.2759 114.023 20.9771 113.042 20.3814C112.06 19.7856 111.311 18.9649 110.797 17.9228C110.281 16.8808 110.023 15.6931 110.023 14.3579C110.023 12.9414 110.352 11.6573 111.009 10.5037C111.665 9.35007 112.597 8.43474 113.8 7.75769C115.003 7.08065 116.425 6.74023 118.063 6.74023C119.296 6.74023 120.44 6.84236 121.492 7.04282C122.543 7.24518 123.383 7.45699 124.011 7.68015V21.5161C124.011 22.8305 123.718 23.9538 123.131 24.8843C122.545 25.8148 121.739 26.5183 120.718 26.993C119.697 27.4677 118.528 27.7059 117.214 27.7059C115.737 27.7059 114.564 27.5736 113.694 27.3107C112.826 27.0478 112.056 26.6847 111.389 26.2195ZM120.433 15.2336V10.1368C120.149 10.0366 119.856 9.95904 119.553 9.90986C119.251 9.8588 118.774 9.83422 118.127 9.83422C117.157 9.83422 116.342 10.0422 115.684 10.4564C115.026 10.8706 114.526 11.4115 114.182 12.0791C113.838 12.7466 113.666 13.4748 113.666 14.2634C113.666 15.3565 113.938 16.2756 114.485 17.0245C115.031 17.7734 115.911 18.1479 117.125 18.1479C119.33 18.1479 120.433 17.1758 120.433 15.2336Z" fill="#FEFEFE"/>
<path id="Vector_3" d="M138.971 17.0239L140.913 19.2082C140.852 19.2687 140.686 19.4352 140.412 19.7094C140.139 19.9817 139.744 20.2767 139.228 20.5888C138.712 20.9027 138.055 21.1751 137.255 21.4077C136.455 21.6403 135.5 21.7575 134.388 21.7575C132.872 21.7575 131.552 21.4285 130.428 20.7722C129.305 20.116 128.431 19.1988 127.803 18.0262C127.175 16.8537 126.863 15.5072 126.863 13.9904C126.863 12.5947 127.172 11.3352 127.788 10.2118C128.405 9.08847 129.254 8.19961 130.337 7.54148C131.419 6.88524 132.669 6.55617 134.084 6.55617C135.398 6.55617 136.501 6.78879 137.392 7.25402C138.282 7.71925 138.999 8.34145 139.546 9.12062C140.092 9.89979 140.485 10.7735 140.729 11.7456C140.972 12.7158 141.094 13.7086 141.094 14.7185V15.2348H130.474C130.474 15.9232 130.67 16.5246 131.065 17.0409C131.461 17.5572 131.96 17.9619 132.567 18.2551C133.174 18.5482 133.791 18.6957 134.419 18.6957C135.349 18.6957 136.117 18.5898 136.724 18.378C137.331 18.1662 137.817 17.9279 138.18 17.665C138.545 17.3983 138.808 17.1865 138.971 17.0239ZM129.138 4.88625L132.295 0.578125H135.663L138.819 4.88625H135.663L133.965 2.58089L132.297 4.88625H129.138ZM130.443 12.6553H137.422C137.422 12.1692 137.295 11.6889 137.042 11.2142C136.788 10.7395 136.419 10.3442 135.933 10.0303C135.447 9.71634 134.831 9.55938 134.082 9.55938C133.293 9.55938 132.63 9.71634 132.094 10.0303C131.557 10.3442 131.149 10.7395 130.865 11.2142C130.585 11.6889 130.443 12.1692 130.443 12.6553Z" fill="#FEFEFE"/>
<path id="Vector_4" d="M143.855 21.272V7.04081H147.284L147.375 8.64832C147.74 8.2436 148.266 7.82376 148.952 7.38879C149.641 6.95381 150.541 6.73633 151.653 6.73633C153.414 6.73633 154.764 7.26775 155.704 8.32871C156.644 9.39156 157.115 10.8213 157.115 12.6217V21.2701H153.535V12.6557C153.535 11.765 153.287 11.0671 152.791 10.5622C152.296 10.0573 151.653 9.80384 150.864 9.80384C149.873 9.80384 149.054 10.1688 148.406 10.8969C147.759 11.6251 147.435 12.5158 147.435 13.5673V21.2739H143.855V21.272Z" fill="#FEFEFE"/>
<path id="Vector_5" d="M170.983 17.0848L173.107 19.3901C172.439 20.0993 171.645 20.6648 170.724 21.0884C169.803 21.5139 168.746 21.7257 167.552 21.7257C165.933 21.7257 164.553 21.408 163.411 20.7707C162.268 20.1334 161.398 19.2445 160.801 18.1003C160.203 16.9581 159.906 15.638 159.906 14.1402C159.906 12.7653 160.23 11.5001 160.876 10.3465C161.523 9.19283 162.42 8.27372 163.562 7.58532C164.704 6.89693 166.036 6.55273 167.552 6.55273C168.706 6.55273 169.757 6.76077 170.709 7.17494C171.66 7.58911 172.469 8.15079 173.137 8.85809L170.862 11.1635C170.478 10.6982 170.007 10.3351 169.451 10.0703C168.895 9.80747 168.263 9.67509 167.554 9.67509C166.645 9.67509 165.89 9.8869 165.294 10.3124C164.697 10.7379 164.252 11.2883 163.959 11.9653C163.666 12.6424 163.518 13.3667 163.518 14.1345C163.518 14.8437 163.664 15.5416 163.959 16.2281C164.252 16.9164 164.697 17.4819 165.294 17.9282C165.89 18.3727 166.645 18.5958 167.554 18.5958C168.262 18.5958 168.914 18.4597 169.512 18.1854C170.107 17.9188 170.597 17.55 170.983 17.0848Z" fill="#FEFEFE"/>
<path id="Vector_6" d="M175.533 4.79478V1.0332H179.357V4.79667H175.533V4.79478ZM175.656 21.2708V7.03962H179.236V21.2708H175.656Z" fill="#FEFEFE"/>
<path id="Vector_7" d="M191.403 21.272L191.312 19.9368C190.928 20.402 190.336 20.8162 189.536 21.1812C188.736 21.5462 187.863 21.7277 186.911 21.7277C186.142 21.7277 185.379 21.5651 184.621 21.2417C183.863 20.9183 183.235 20.4134 182.739 19.725C182.244 19.0366 181.996 18.1666 181.996 17.1151C181.996 15.4963 182.573 14.2424 183.727 13.3517C184.88 12.4609 186.386 12.0165 188.248 12.0165C188.593 12.0165 189.001 12.0278 189.478 12.0468C189.952 12.0676 190.565 12.0978 191.314 12.1375V11.8047C191.314 11.0974 191.03 10.5414 190.465 10.1367C189.897 9.73195 189.16 9.52959 188.25 9.52959C187.238 9.52959 186.429 9.66197 185.822 9.92485C185.215 10.1877 184.68 10.4714 184.214 10.774L182.577 8.3457C182.961 8.06203 183.416 7.78402 183.942 7.51169C184.468 7.23936 185.115 7.01053 185.884 6.82897C186.652 6.64742 187.603 6.55664 188.736 6.55664C190.558 6.55664 192.014 7.037 193.105 7.99773C194.198 8.95845 194.743 10.1972 194.743 11.7139V21.272H191.403ZM191.312 16.2357V14.84C190.847 14.8003 190.342 14.7701 189.795 14.7493C189.249 14.7304 188.835 14.719 188.551 14.719C187.397 14.719 186.588 14.9459 186.123 15.4017C185.657 15.8575 185.425 16.3776 185.425 16.9638C185.425 17.5709 185.642 18.0456 186.077 18.3898C186.512 18.734 187.155 18.9061 188.004 18.9061C188.57 18.9061 189.101 18.7851 189.597 18.5411C190.092 18.299 190.503 17.9756 190.826 17.5709C191.151 17.1662 191.312 16.7218 191.312 16.2357Z" fill="#FEFEFE"/>
<path id="Vector_8" d="M202.145 21.2708L196.896 1.0332H201.084L204.391 16.1741L208.306 1.61002H211.765L215.71 16.1741L218.987 1.0332H222.993L217.683 21.2727H213.677L209.914 7.89065L206.09 21.2727H202.145V21.2708Z" fill="#FEFEFE"/>
<path id="Vector_9" d="M235.129 17.0244L237.071 19.2087C237.011 19.2692 236.844 19.4356 236.57 19.7099C236.298 19.9822 235.902 20.2772 235.386 20.5893C234.87 20.9032 234.214 21.1755 233.414 21.4081C232.614 21.6408 231.659 21.758 230.547 21.758C229.03 21.758 227.71 21.4289 226.586 20.7727C225.463 20.1165 224.589 19.1992 223.961 18.0267C223.334 16.8542 223.021 15.5076 223.021 13.9909C223.021 12.5952 223.33 11.3357 223.946 10.2123C224.563 9.08894 225.412 8.20008 226.496 7.54195C227.577 6.88571 228.827 6.55664 230.244 6.55664C231.558 6.55664 232.661 6.78926 233.552 7.25449C234.442 7.71972 235.159 8.34192 235.706 9.12109C236.252 9.90026 236.646 10.774 236.89 11.7461C237.132 12.7162 237.255 13.7091 237.255 14.719V15.2353H226.634C226.634 15.9237 226.83 16.5251 227.226 17.0414C227.621 17.5577 228.12 17.9624 228.727 18.2555C229.334 18.5487 229.951 18.6962 230.579 18.6962C231.509 18.6962 232.277 18.5903 232.884 18.3785C233.491 18.1666 233.977 17.9284 234.34 17.6655C234.703 17.3988 234.966 17.187 235.129 17.0244ZM226.601 12.6557H233.58C233.58 12.1697 233.453 11.6893 233.2 11.2146C232.946 10.7399 232.578 10.3447 232.092 10.0308C231.606 9.71682 230.989 9.55985 230.24 9.55985C229.452 9.55985 228.788 9.71682 228.253 10.0308C227.715 10.3447 227.307 10.7399 227.023 11.2146C226.743 11.6893 226.601 12.1697 226.601 12.6557Z" fill="#FEFEFE"/>
<path id="Vector_10" d="M240.014 20.8169V1.0332H243.594V8.01169C243.836 7.76962 244.307 7.49539 245.005 7.1928C245.702 6.89021 246.527 6.73703 247.478 6.73703C248.853 6.73703 250.028 7.06609 250.998 7.72233C251.968 8.38047 252.713 9.2542 253.227 10.3473C253.742 11.4404 254.001 12.6527 254.001 13.9878C254.001 15.4043 253.672 16.6979 253.016 17.8723C252.357 19.0468 251.433 19.9867 250.239 20.694C249.046 21.4013 247.62 21.7568 245.961 21.7568C244.727 21.7568 243.59 21.6547 242.548 21.4543C241.506 21.2519 240.66 21.0382 240.014 20.8169ZM243.594 12.9874V18.3584C243.877 18.4397 244.17 18.5097 244.473 18.5702C244.776 18.6307 245.252 18.661 245.899 18.661C246.869 18.661 247.684 18.4435 248.342 18.0085C248.999 17.5735 249.5 17.0081 249.844 16.3102C250.188 15.6124 250.36 14.8691 250.36 14.0805C250.36 13.3524 250.239 12.664 249.995 12.0172C249.753 11.3704 249.379 10.8485 248.872 10.4551C248.367 10.0598 247.709 9.86316 246.899 9.86316C245.827 9.86316 245.008 10.1412 244.441 10.6972C243.877 11.2532 243.594 12.0172 243.594 12.9874Z" fill="#FEFEFE"/>
</g>
<g id="escolar">
<path id="Vector_11" d="M89.6914 43.8021V32.8086H96.6132V34.21H91.2724V37.408H95.2931V38.8245H91.2724V42.3837H97.0084V43.8002H89.6914V43.8021Z" fill="#FEFEFE"/>
<path id="Vector_12" d="M98.0977 42.8615L99.0035 41.8725C99.2778 42.1467 99.6068 42.3661 99.9926 42.5325C100.377 42.697 100.823 42.7802 101.328 42.7802C101.821 42.7802 102.234 42.7008 102.565 42.5419C102.894 42.3831 103.058 42.1334 103.058 41.7911C103.058 41.5491 102.992 41.358 102.86 41.2143C102.727 41.0725 102.502 40.942 102.185 40.8266C101.865 40.7113 101.426 40.5883 100.866 40.456C100.471 40.3576 100.085 40.2233 99.7127 40.0512C99.3383 39.881 99.0319 39.6446 98.7898 39.342C98.5478 39.0395 98.4267 38.648 98.4267 38.1638C98.4267 37.6702 98.5723 37.2523 98.8636 36.9119C99.1548 36.5715 99.5312 36.3161 99.9926 36.1459C100.454 35.9757 100.938 35.8906 101.443 35.8906C102.092 35.8906 102.652 35.9757 103.124 36.1459C103.597 36.3161 104.004 36.5563 104.344 36.8627L103.537 37.8839C103.306 37.6759 103.017 37.5 102.671 37.3563C102.324 37.2145 101.92 37.1426 101.458 37.1426C100.985 37.1426 100.607 37.2201 100.322 37.3733C100.036 37.5265 99.8924 37.7799 99.8924 38.1317C99.8924 38.4608 100.085 38.7066 100.469 38.8655C100.853 39.0243 101.349 39.1756 101.952 39.3193C102.436 39.429 102.873 39.5747 103.262 39.7562C103.652 39.9378 103.966 40.1817 104.202 40.49C104.439 40.7983 104.556 41.1992 104.556 41.6928C104.556 42.1977 104.405 42.6233 104.102 42.9693C103.8 43.3154 103.406 43.5783 102.924 43.7599C102.44 43.9414 101.918 44.0322 101.358 44.0322C99.9094 44.0322 98.822 43.6426 98.0977 42.8615Z" fill="#FEFEFE"/>
<path id="Vector_13" d="M112.04 41.791L112.946 42.7461C112.605 43.13 112.182 43.442 111.677 43.6765C111.172 43.9129 110.595 44.0302 109.946 44.0302C109.122 44.0302 108.411 43.8543 107.811 43.5025C107.212 43.1508 106.748 42.6704 106.419 42.0596C106.09 41.4506 105.926 40.749 105.926 39.9584C105.926 39.2114 106.096 38.5306 106.436 37.9141C106.777 37.2994 107.252 36.8077 107.862 36.4389C108.471 36.0702 109.167 35.8867 109.946 35.8867C110.595 35.8867 111.166 36.0021 111.66 36.2328C112.153 36.4635 112.577 36.7775 112.929 37.1727L111.957 38.1126C111.726 37.8271 111.446 37.602 111.117 37.4375C110.788 37.273 110.397 37.1897 109.946 37.1897C109.419 37.1897 108.965 37.3183 108.587 37.5774C108.208 37.8365 107.919 38.1732 107.721 38.5911C107.522 39.0091 107.424 39.4648 107.424 39.9584C107.424 40.4312 107.526 40.8795 107.728 41.3012C107.93 41.7248 108.22 42.0671 108.594 42.3319C108.967 42.5948 109.419 42.7271 109.946 42.7271C110.397 42.7271 110.801 42.642 111.159 42.4718C111.516 42.3035 111.809 42.0766 112.04 41.791Z" fill="#FEFEFE"/>
<path id="Vector_14" d="M117.643 44.0322C116.861 44.0322 116.166 43.8487 115.549 43.48C114.934 43.1112 114.452 42.6176 114.106 41.9973C113.76 41.377 113.586 40.698 113.586 39.9624C113.586 39.2153 113.76 38.5345 114.106 37.918C114.452 37.3033 114.932 36.8116 115.549 36.4429C116.164 36.0741 116.861 35.8906 117.643 35.8906C118.422 35.8906 119.118 36.0741 119.727 36.4429C120.336 36.8116 120.818 37.3033 121.17 37.918C121.521 38.5326 121.697 39.2153 121.697 39.9624C121.697 40.698 121.521 41.377 121.17 41.9973C120.818 42.6176 120.337 43.1131 119.727 43.48C119.118 43.8487 118.424 44.0322 117.643 44.0322ZM117.643 42.7462C118.182 42.7462 118.639 42.6119 119.019 42.3415C119.398 42.0729 119.689 41.723 119.893 41.2956C120.095 40.8663 120.198 40.4219 120.198 39.9605C120.198 39.499 120.095 39.0546 119.893 38.6253C119.689 38.196 119.396 37.848 119.012 37.5795C118.628 37.3109 118.172 37.1747 117.644 37.1747C117.117 37.1747 116.661 37.309 116.277 37.5795C115.893 37.848 115.598 38.1941 115.396 38.6177C115.192 39.0413 115.091 39.4896 115.091 39.9605C115.091 40.4219 115.195 40.8644 115.405 41.2881C115.613 41.7117 115.908 42.0597 116.287 42.3339C116.663 42.61 117.117 42.7462 117.643 42.7462Z" fill="#FEFEFE"/>
<path id="Vector_15" d="M123.361 43.8021V32.8086H124.844V43.8021H123.361Z" fill="#FEFEFE"/>
<path id="Vector_16" d="M131.702 43.8019L131.67 42.879C131.396 43.2535 131.02 43.5352 130.541 43.7281C130.063 43.921 129.582 44.0156 129.098 44.0156C128.68 44.0156 128.266 43.9381 127.854 43.7849C127.441 43.6317 127.101 43.3783 126.832 43.0265C126.564 42.6748 126.428 42.2076 126.428 41.6251C126.428 40.8006 126.719 40.1425 127.301 39.647C127.884 39.1534 128.712 38.9056 129.79 38.9056C130.032 38.9056 130.282 38.9132 130.541 38.9302C130.798 38.9472 131.033 38.9623 131.241 38.9794C131.449 38.9964 131.587 39.0096 131.653 39.021V38.7411C131.653 38.1699 131.479 37.7596 131.133 37.5137C130.787 37.266 130.318 37.143 129.724 37.143C129.153 37.143 128.693 37.2225 128.347 37.3813C128.001 37.5402 127.712 37.7028 127.481 37.8674L126.789 36.8612C127.063 36.6419 127.443 36.4282 127.926 36.2182C128.41 36.0102 129.062 35.9043 129.887 35.9043C130.864 35.9043 131.64 36.1426 132.211 36.6211C132.782 37.0995 133.068 37.7785 133.068 38.656V43.123C133.068 43.2005 133.068 43.2932 133.068 43.4029C133.068 43.5125 133.073 43.6449 133.085 43.7981H131.702V43.8019ZM131.653 41.0502V40.1765C131.598 40.1538 131.472 40.1349 131.275 40.1198C131.076 40.1027 130.855 40.0876 130.607 40.0706C130.36 40.0536 130.121 40.046 129.89 40.046C129.34 40.046 128.92 40.1254 128.629 40.2843C128.338 40.4431 128.139 40.6417 128.035 40.8781C127.931 41.1145 127.878 41.3471 127.878 41.5779C127.878 41.9845 128.02 42.2984 128.308 42.5178C128.593 42.7372 128.988 42.8468 129.493 42.8468C129.877 42.8468 130.233 42.7617 130.556 42.5915C130.88 42.4213 131.144 42.1982 131.347 41.9239C131.551 41.6478 131.653 41.3566 131.653 41.0502Z" fill="#FEFEFE"/>
<path id="Vector_17" d="M136.582 43.8019H135.099V36.8801C135.099 36.8026 135.099 36.7156 135.099 36.6173C135.099 36.5189 135.093 36.3601 135.082 36.1388H136.499L136.548 37.3756C136.669 37.1998 136.837 37.0069 137.051 36.7988C137.264 36.5908 137.537 36.4092 137.866 36.2542C138.195 36.101 138.59 36.0234 139.052 36.0234C139.216 36.0234 139.367 36.0348 139.506 36.0556C139.644 36.0783 139.772 36.1104 139.893 36.1539L139.564 37.5383C139.366 37.4607 139.114 37.4229 138.806 37.4229C138.388 37.4229 138.011 37.5307 137.677 37.7444C137.342 37.9581 137.075 38.2418 136.877 38.5936C136.678 38.9453 136.58 39.3349 136.58 39.7642V43.8019H136.582Z" fill="#FEFEFE"/>
</g>
<g id="Group_2">
<g id="seta-azul">
<g id="Group_3">
<path id="Vector_18" d="M15.3281 8.17962L36.6115 29.8848L34.5463 36.0784L22.976 24.3115L18.3199 19.5759L16.2188 25.8774L11.6535 39.5733L5.51659 39.5204L15.3281 8.17962ZM13.4766 0.484375L0 43.5373L14.5773 43.6659L20.0787 27.1634L36.3051 43.6659L41.2563 28.8144L13.4766 0.484375Z" fill="#307FE2"/>
</g>
</g>
<g id="seta-laranja">
<g id="Group_4">
<path id="Vector_19" d="M64.7103 4.57691L70.8472 4.62986L61.0376 35.9687L39.7541 14.2636L41.8193 8.06993L53.3896 19.8369L58.0457 24.5724L60.1468 18.271L64.7103 4.57691ZM61.7884 0.484375L56.2869 16.9869L40.0605 0.484375L35.1094 15.3359L62.8872 43.664L76.3638 0.612976L61.7884 0.484375Z" fill="#F2B025"/>
</g>
</g>
</g>
</g>
</g>
<defs>
<clipPath id="clip0_7827_403">
<rect width="254.004" height="43.5484" fill="white" transform="translate(0 0.484375)"/>
</clipPath>
</defs>
</svg>
