<svg width="62" height="36" viewBox="0 0 62 36" fill="none" xmlns="http://www.w3.org/2000/svg">
<g id="logo-v2">
<path id="Vector" d="M12.6583 6.50895L29.7406 24.1085L28.0856 29.1215L18.7927 19.586L15.0574 15.7534L13.3719 20.8584L9.71249 31.9577L4.79276 31.9117L12.6583 6.50895ZM11.1702 0.269531L0.34375 35.1618L12.0509 35.2691L16.4695 21.8856L29.4977 35.2691L33.476 23.2347L11.1702 0.269531Z" fill="#FEFEFE"/>
<path id="Vector_2" d="M52.3041 3.58087L57.2238 3.62683L49.3431 29.0296L32.2607 11.4301L33.9158 6.41702L43.2087 15.9527L46.944 19.7853L48.6295 14.6803L52.3041 3.58087ZM49.9505 0.269531L45.5319 13.6531L32.5037 0.269531L28.5254 12.304L50.8312 35.2691L61.6576 0.376725L49.9505 0.269531Z" fill="#FEFEFE"/>
</g>
</svg>
