<svg width="64" height="65" viewBox="0 0 64 65" fill="none" xmlns="http://www.w3.org/2000/svg">
<circle cx="32" cy="32.5161" r="31" fill="white" stroke="#0B5ABD" stroke-width="2"/>
<path d="M27.972 29.1291C28.062 28.5051 28.236 27.9591 28.494 27.4911C28.752 27.0171 29.073 26.6241 29.457 26.3121C29.847 25.9941 30.291 25.7571 30.789 25.6011C31.293 25.4391 31.833 25.3581 32.409 25.3581C33.009 25.3581 33.549 25.4451 34.029 25.6191C34.515 25.7871 34.929 26.0241 35.271 26.3301C35.613 26.6301 35.874 26.9841 36.054 27.3921C36.24 27.8001 36.333 28.2411 36.333 28.7151C36.333 29.1291 36.285 29.4951 36.189 29.8131C36.099 30.1251 35.967 30.3981 35.793 30.6321C35.619 30.8661 35.403 31.0641 35.145 31.2261C34.887 31.3881 34.596 31.5231 34.272 31.6311C35.052 31.8771 35.634 32.2521 36.018 32.7561C36.402 33.2601 36.594 33.8931 36.594 34.6551C36.594 35.3031 36.474 35.8761 36.234 36.3741C35.994 36.8721 35.67 37.2921 35.262 37.6341C34.854 37.9701 34.38 38.2251 33.84 38.3991C33.306 38.5731 32.739 38.6601 32.139 38.6601C31.485 38.6601 30.915 38.5851 30.429 38.4351C29.943 38.2851 29.52 38.0631 29.16 37.7691C28.8 37.4751 28.494 37.1151 28.242 36.6891C27.99 36.2631 27.774 35.7711 27.594 35.2131L28.575 34.8081C28.833 34.7001 29.073 34.6731 29.295 34.7271C29.523 34.7751 29.688 34.8951 29.79 35.0871C29.898 35.2971 30.015 35.5041 30.141 35.7081C30.273 35.9121 30.429 36.0951 30.609 36.2571C30.789 36.4131 30.999 36.5421 31.239 36.6441C31.485 36.7401 31.776 36.7881 32.112 36.7881C32.49 36.7881 32.82 36.7281 33.102 36.6081C33.384 36.4821 33.618 36.3201 33.804 36.1221C33.996 35.9241 34.137 35.7051 34.227 35.4651C34.323 35.2191 34.371 34.9731 34.371 34.7271C34.371 34.4151 34.338 34.1331 34.272 33.8811C34.206 33.6231 34.068 33.4041 33.858 33.2241C33.648 33.0441 33.345 32.9031 32.949 32.8011C32.559 32.6991 32.034 32.6481 31.374 32.6481V31.0641C31.92 31.0581 32.373 31.0071 32.733 30.9111C33.093 30.8151 33.378 30.6831 33.588 30.5151C33.804 30.3411 33.954 30.1341 34.038 29.8941C34.122 29.6541 34.164 29.3901 34.164 29.1021C34.164 28.4901 33.993 28.0251 33.651 27.7071C33.309 27.3891 32.853 27.2301 32.283 27.2301C32.019 27.2301 31.776 27.2691 31.554 27.3471C31.332 27.4191 31.131 27.5241 30.951 27.6621C30.777 27.7941 30.63 27.9501 30.51 28.1301C30.39 28.3101 30.3 28.5081 30.24 28.7241C30.138 29.0001 30.003 29.1831 29.835 29.2731C29.673 29.3631 29.442 29.3841 29.142 29.3361L27.972 29.1291Z" fill="#0B5ABD"/>
</svg>
