<svg width="64" height="65" viewBox="0 0 64 65" fill="none" xmlns="http://www.w3.org/2000/svg">
<circle cx="32" cy="32.5161" r="31" fill="white" stroke="#0B5ABD" stroke-width="2"/>
<path d="M35.829 36.4461C36.069 36.4461 36.258 36.5151 36.396 36.6531C36.54 36.7851 36.612 36.9621 36.612 37.1841V38.5161H27.684V37.7781C27.684 37.6281 27.714 37.4721 27.774 37.3101C27.84 37.1421 27.942 36.9921 28.08 36.8601L32.031 32.9001C32.361 32.5641 32.655 32.2431 32.913 31.9371C33.177 31.6311 33.396 31.3281 33.57 31.0281C33.744 30.7281 33.876 30.4251 33.966 30.1191C34.062 29.8071 34.11 29.4801 34.11 29.1381C34.11 28.8261 34.065 28.5531 33.975 28.3191C33.885 28.0791 33.756 27.8781 33.588 27.7161C33.426 27.5541 33.228 27.4341 32.994 27.3561C32.766 27.2721 32.508 27.2301 32.22 27.2301C31.956 27.2301 31.71 27.2691 31.482 27.3471C31.26 27.4191 31.062 27.5241 30.888 27.6621C30.714 27.7941 30.567 27.9501 30.447 28.1301C30.327 28.3101 30.237 28.5081 30.177 28.7241C30.075 29.0001 29.943 29.1831 29.781 29.2731C29.619 29.3631 29.385 29.3841 29.079 29.3361L27.909 29.1291C27.999 28.5051 28.173 27.9591 28.431 27.4911C28.689 27.0171 29.01 26.6241 29.394 26.3121C29.784 25.9941 30.228 25.7571 30.726 25.6011C31.23 25.4391 31.77 25.3581 32.346 25.3581C32.946 25.3581 33.495 25.4481 33.993 25.6281C34.491 25.8021 34.917 26.0511 35.271 26.3751C35.625 26.6991 35.901 27.0891 36.099 27.5451C36.297 28.0011 36.396 28.5081 36.396 29.0661C36.396 29.5461 36.324 29.9901 36.18 30.3981C36.042 30.8061 35.853 31.1961 35.613 31.5681C35.379 31.9401 35.103 32.3001 34.785 32.6481C34.467 32.9961 34.134 33.3501 33.786 33.7101L30.852 36.7071C31.134 36.6231 31.413 36.5601 31.689 36.5181C31.971 36.4701 32.238 36.4461 32.49 36.4461H35.829Z" fill="#0B5ABD"/>
</svg>
