<svg width="24" height="24" viewBox="0 0 24 24" fill="none" xmlns="http://www.w3.org/2000/svg">
<g opacity="0.75">
<path d="M12.0003 3.27344C12.3141 3.27344 12.6006 3.45079 12.737 3.73387L15.0767 8.55305L20.3017 9.32384C20.6086 9.36818 20.8644 9.58305 20.9599 9.87977C21.0554 10.1765 20.977 10.4971 20.7587 10.7154L16.9695 14.4738L17.8631 19.7807C17.9143 20.0877 17.7881 20.3981 17.5323 20.5822C17.2765 20.7664 16.9423 20.7869 16.6694 20.6402L11.9969 18.1437L7.33118 20.6368C7.05492 20.7835 6.72069 20.763 6.4683 20.5788C6.21592 20.3946 6.08631 20.0843 6.13747 19.7773L7.03105 14.4704L3.24187 10.7154C3.02019 10.4971 2.94515 10.1731 3.04065 9.87977C3.13615 9.58646 3.39194 9.37159 3.69889 9.32384L8.92393 8.55305L11.2636 3.73387C11.4034 3.45079 11.6865 3.27344 12.0003 3.27344ZM12.0003 5.96781L10.2097 9.65808C10.0904 9.90023 9.86185 10.0708 9.59241 10.1117L5.55767 10.7051L8.48738 13.6076C8.67496 13.7951 8.76364 14.0612 8.7193 14.3238L8.02695 18.4063L11.6149 16.4895C11.857 16.3599 12.147 16.3599 12.3857 16.4895L15.9736 18.4063L15.2847 14.3272C15.2404 14.0646 15.3256 13.7985 15.5166 13.611L18.4463 10.7085L14.4116 10.1117C14.1456 10.0708 13.9136 9.90364 13.7943 9.65808L12.0003 5.96781Z" fill="#FAE08E"/>
</g>
</svg>
