<svg width="24" height="24" viewBox="0 0 24 24" fill="none" xmlns="http://www.w3.org/2000/svg">
<g opacity="0.75" clip-path="url(#clip0_8554_2897)">
<path d="M11.625 23.6289C5.21719 23.6289 0 18.4164 0 12.0039C0 5.59141 5.21719 0.378906 11.625 0.378906C18.0328 0.378906 23.25 5.59609 23.25 12.0039C23.25 18.4117 18.0328 23.6289 11.625 23.6289ZM11.625 1.15234C5.64375 1.15234 0.773438 6.02266 0.773438 12.0039C0.773438 17.9852 5.64375 22.8555 11.625 22.8555C17.6063 22.8555 22.4766 17.9852 22.4766 12.0039C22.4766 6.02266 17.6063 1.15234 11.625 1.15234ZM12.9188 2.17422V3.32734C14.3382 3.5356 15.6843 4.0911 16.8375 4.94453L17.6531 4.12891C16.3031 3.09297 14.6859 2.39922 12.9188 2.16953V2.17422ZM10.3219 2.17891C8.55937 2.40859 6.9375 3.10703 5.59219 4.14297L6.40313 4.95859H6.40781C7.5375 4.12422 8.87344 3.54766 10.3219 3.33203V2.17891ZM10.8984 4.53203V8.41797C10.4297 8.51172 9.98906 8.69453 9.6 8.95234L6.85312 6.20547L5.82656 7.23203L8.57812 9.98359C8.32031 10.368 8.13281 10.8086 8.03906 11.2773H4.15312V12.7305H8.03906C8.13281 13.1992 8.32031 13.6352 8.57812 14.0195L5.82656 16.7711L6.85312 17.7977L9.6 15.0508C9.99381 15.3129 10.4348 15.496 10.8984 15.5898V19.4758H12.3516V15.5898C12.825 15.4961 13.2609 15.3039 13.6453 15.0461L16.3969 17.7977L17.4234 16.7711L14.6719 14.0195C14.9297 13.6352 15.1172 13.1992 15.2109 12.7305H19.0969V11.2773H15.2109C15.1172 10.8086 14.9297 10.368 14.6719 9.98359L17.4234 7.23203L16.3969 6.20547L13.6453 8.95703C13.2563 8.69922 12.8203 8.51172 12.3516 8.41797V4.53203H10.8984ZM19.4859 5.97109L18.6703 6.78672C19.5271 7.94075 20.0858 9.28841 20.2969 10.7102H21.45C21.2156 8.94297 20.5219 7.32109 19.4859 5.97578V5.97109ZM3.75469 5.97578C2.71875 7.32109 2.025 8.94297 1.79063 10.7055H2.94844C3.16406 9.25234 3.73594 7.91641 4.57031 6.79141L3.75469 5.97578ZM1.79531 13.3023C2.025 15.0648 2.72344 16.6867 3.75469 18.032L4.57031 17.2164C3.73594 16.0867 3.16875 14.7508 2.95312 13.3023H1.79531ZM20.2969 13.3023C20.0812 14.7555 19.5094 16.0914 18.6703 17.2211L19.4859 18.0367C20.5219 16.6914 21.2203 15.0695 21.45 13.3023H20.2969ZM6.40781 19.0539L5.59219 19.8695C6.9375 20.9055 8.55937 21.6039 10.3266 21.8336V20.6805C8.87344 20.4648 7.5375 19.893 6.40781 19.0539ZM16.8375 19.0586C15.7078 19.893 14.3719 20.4695 12.9188 20.6852V21.8383C14.6859 21.6086 16.3031 20.9102 17.6531 19.8742L16.8422 19.0586H16.8375Z" fill="#FAE08E"/>
</g>
<defs>
<clipPath id="clip0_8554_2897">
<rect width="23.25" height="24" fill="white" transform="translate(0 0.00390625)"/>
</clipPath>
</defs>
</svg>
