<svg width="24" height="24" viewBox="0 0 24 24" fill="none" xmlns="http://www.w3.org/2000/svg">
<path d="M11.9956 16.1078L11.999 16.1044L12.8989 16.585L15.8032 18.136L15.2407 14.8091L15.0771 13.8308L15.7827 13.132L18.1722 10.7697L14.8965 10.2857L13.8977 10.1391L13.458 9.23239L11.999 6.23953L11.9956 6.24975V16.1078ZM17.9643 19.4586C18.0325 19.8676 17.862 20.2835 17.5246 20.5255C17.1871 20.7675 16.7406 20.7982 16.3724 20.6039L11.999 18.2689L7.62564 20.6039C7.2575 20.7982 6.81096 20.7675 6.4735 20.5255C6.13603 20.2835 5.96559 19.8676 6.03377 19.4586L6.87572 14.4921L3.32383 10.9777C3.03068 10.6879 2.92501 10.255 3.05454 9.863C3.18407 9.471 3.52154 9.18467 3.93059 9.12331L8.82552 8.40066L11.0207 3.89091C11.2048 3.51595 11.5832 3.27734 12.0024 3.27734C12.4217 3.27734 12.8001 3.51595 12.9842 3.89091L15.176 8.40066L20.0709 9.12331C20.4799 9.18467 20.8208 9.471 20.9469 9.863C21.0731 10.255 20.9708 10.6879 20.6777 10.9777L17.1258 14.4921L17.9643 19.4586Z" fill="#FAE08E"/>
</svg>
