<svg width="24" height="24" viewBox="0 0 24 24" fill="none" xmlns="http://www.w3.org/2000/svg">
<path d="M13.0098 3.6386C12.8235 3.25193 12.4298 3.00586 11.9974 3.00586C11.5651 3.00586 11.1749 3.25193 10.985 3.6386L8.72475 8.28925L3.67688 9.03448C3.25505 9.09776 2.90353 9.39303 2.77346 9.79729C2.6434 10.2015 2.74886 10.648 3.05117 10.9468L6.71404 14.571L5.84929 19.6927C5.77899 20.1145 5.95475 20.5434 6.30276 20.7929C6.65076 21.0425 7.11126 21.0742 7.4909 20.8738L12.0009 18.4658L16.511 20.8738C16.8906 21.0742 17.3511 21.046 17.6991 20.7929C18.0471 20.5398 18.2229 20.1145 18.1526 19.6927L17.2843 14.571L20.9472 10.9468C21.2495 10.648 21.3585 10.2015 21.2249 9.79729C21.0913 9.39303 20.7433 9.09776 20.3215 9.03448L15.2701 8.28925L13.0098 3.6386Z" fill="#FAE08E"/>
</svg>
