<svg width="74" height="75" viewBox="0 0 74 75" fill="none" xmlns="http://www.w3.org/2000/svg">
<g id="Group 39944">
<g id="Ellipse 326">
<circle cx="37" cy="37.5161" r="32" fill="#0B5ABD"/>
<circle cx="37" cy="37.5161" r="34.5" stroke="#2E7AFF" stroke-opacity="0.2" stroke-width="5"/>
</g>
<path id="Star 1" d="M36.1093 25.2615C36.4804 24.5342 37.5196 24.5342 37.8907 25.2615L40.9655 31.2866C41.1108 31.5713 41.3835 31.7694 41.6992 31.8196L48.3796 32.8821C49.186 33.0103 49.5071 33.9986 48.9301 34.5763L44.15 39.3625C43.9241 39.5887 43.82 39.9093 43.8698 40.225L44.9237 46.9068C45.0509 47.7133 44.2102 48.3241 43.4825 47.9539L37.4534 44.8868C37.1685 44.7418 36.8315 44.7418 36.5466 44.8868L30.5175 47.9539C29.7898 48.3241 28.9491 47.7133 29.0763 46.9068L30.1302 40.225C30.18 39.9093 30.0759 39.5887 29.85 39.3625L25.0699 34.5763C24.4929 33.9986 24.814 33.0103 25.6204 32.8821L32.3008 31.8196C32.6165 31.7694 32.8892 31.5713 33.0345 31.2866L36.1093 25.2615Z" fill="white"/>
</g>
</svg>
