<svg width="483" height="59" viewBox="0 0 483 59" fill="none" xmlns="http://www.w3.org/2000/svg">
<mask id="path-1-outside-1_8468_3446" maskUnits="userSpaceOnUse" x="-2" y="-2" width="487" height="63" fill="black">
<rect fill="white" x="-2" y="-2" width="487" height="63"/>
<path d="M23.688 57.576C19.368 57.576 15.912 57.048 13.32 55.992C10.776 54.936 8.928 53.184 7.776 50.736C6.624 48.288 6.048 44.976 6.048 40.8L6.12 6.888H18.216L18.144 41.16C18.144 42.936 18.6 44.304 19.512 45.264C20.472 46.176 21.84 46.632 23.616 46.632H29.088V57.576H23.688ZM0.288 26.76V17.256H29.088V26.76H0.288ZM37.9834 57V17.256H51.0874V57H37.9834ZM32.9434 26.76V17.256H51.0874V26.76H32.9434ZM43.3834 14.088C40.9834 14.088 39.2074 13.488 38.0554 12.288C36.9514 11.04 36.3994 9.456 36.3994 7.536C36.3994 5.616 36.9514 4.056 38.0554 2.856C39.2074 1.608 40.9594 0.983996 43.3114 0.983996C45.7114 0.983996 47.4634 1.608 48.5674 2.856C49.6714 4.056 50.2234 5.616 50.2234 7.536C50.2234 9.456 49.6714 11.04 48.5674 12.288C47.4634 13.488 45.7354 14.088 43.3834 14.088ZM60.7207 57V17.256H71.0888V34.392H70.5128C70.5128 30.264 71.0168 26.856 72.0248 24.168C73.0808 21.432 74.6168 19.392 76.6328 18.048C78.6488 16.656 81.1208 15.96 84.0488 15.96H84.6248C87.6008 15.96 90.0728 16.656 92.0408 18.048C94.0568 19.392 95.5688 21.432 96.5768 24.168C97.6328 26.856 98.1608 30.264 98.1608 34.392H95.1368C95.1368 30.264 95.6408 26.856 96.6487 24.168C97.7048 21.432 99.2408 19.392 101.257 18.048C103.273 16.656 105.745 15.96 108.673 15.96H109.249C112.225 15.96 114.721 16.656 116.737 18.048C118.801 19.392 120.361 21.432 121.417 24.168C122.521 26.856 123.073 30.264 123.073 34.392V57H109.969V34.032C109.969 32.208 109.465 30.696 108.457 29.496C107.497 28.248 106.105 27.624 104.281 27.624C102.457 27.624 101.017 28.248 99.9608 29.496C98.9528 30.696 98.4488 32.256 98.4488 34.176V57H85.3448V34.032C85.3448 32.208 84.8408 30.696 83.8328 29.496C82.8728 28.248 81.4808 27.624 79.6568 27.624C77.8328 27.624 76.3928 28.248 75.3368 29.496C74.3288 30.696 73.8248 32.256 73.8248 34.176V57H60.7207ZM150.525 58.44C147.165 58.44 144.189 57.864 141.597 56.712C139.005 55.56 136.821 54 135.045 52.032C133.269 50.064 131.901 47.856 130.941 45.408C130.029 42.96 129.573 40.44 129.573 37.848V36.408C129.573 33.72 130.029 31.152 130.941 28.704C131.901 26.208 133.245 24 134.973 22.08C136.749 20.16 138.909 18.648 141.453 17.544C143.997 16.392 146.877 15.816 150.093 15.816C154.365 15.816 157.989 16.776 160.965 18.696C163.941 20.616 166.221 23.16 167.805 26.328C169.389 29.448 170.181 32.856 170.181 36.552V40.728H135.045V33.672H162.621L158.085 36.84C158.085 34.584 157.773 32.688 157.149 31.152C156.573 29.568 155.685 28.368 154.485 27.552C153.333 26.736 151.869 26.328 150.093 26.328C148.365 26.328 146.853 26.736 145.557 27.552C144.309 28.32 143.349 29.52 142.677 31.152C142.005 32.736 141.669 34.752 141.669 37.2C141.669 39.408 141.981 41.328 142.605 42.96C143.229 44.544 144.189 45.768 145.485 46.632C146.781 47.496 148.461 47.928 150.525 47.928C152.349 47.928 153.837 47.616 154.989 46.992C156.189 46.368 157.029 45.528 157.509 44.472H169.461C168.885 47.16 167.733 49.56 166.005 51.672C164.325 53.784 162.165 55.44 159.525 56.64C156.933 57.84 153.933 58.44 150.525 58.44ZM208.127 58.296C205.343 58.296 202.799 57.792 200.495 56.784C198.239 55.776 196.271 54.384 194.591 52.608C192.959 50.784 191.687 48.648 190.775 46.2C189.911 43.752 189.479 41.088 189.479 38.208V36.48C189.479 33.6 189.887 30.936 190.703 28.488C191.567 25.992 192.791 23.832 194.375 22.008C195.959 20.136 197.879 18.696 200.135 17.688C202.391 16.632 204.911 16.104 207.695 16.104C210.911 16.104 213.647 16.824 215.903 18.264C218.207 19.656 219.959 21.696 221.159 24.384C222.407 27.072 223.079 30.336 223.175 34.176L220.151 31.944V4.44H233.255V57H222.887V40.872H224.327C224.231 44.424 223.511 47.52 222.167 50.16C220.823 52.752 218.951 54.768 216.551 56.208C214.199 57.6 211.391 58.296 208.127 58.296ZM211.655 47.496C213.239 47.496 214.679 47.136 215.975 46.416C217.319 45.696 218.399 44.64 219.215 43.248C220.031 41.856 220.439 40.176 220.439 38.208V35.76C220.439 33.84 220.007 32.232 219.143 30.936C218.327 29.64 217.247 28.656 215.903 27.984C214.607 27.264 213.191 26.904 211.655 26.904C209.927 26.904 208.367 27.36 206.975 28.272C205.631 29.136 204.551 30.36 203.735 31.944C202.967 33.48 202.583 35.28 202.583 37.344C202.583 39.408 202.967 41.208 203.735 42.744C204.551 44.232 205.631 45.408 206.975 46.272C208.367 47.088 209.927 47.496 211.655 47.496ZM261.408 58.44C258.048 58.44 255.072 57.864 252.48 56.712C249.888 55.56 247.704 54 245.928 52.032C244.152 50.064 242.784 47.856 241.824 45.408C240.912 42.96 240.456 40.44 240.456 37.848V36.408C240.456 33.72 240.912 31.152 241.824 28.704C242.784 26.208 244.128 24 245.856 22.08C247.632 20.16 249.792 18.648 252.336 17.544C254.88 16.392 257.76 15.816 260.976 15.816C265.248 15.816 268.872 16.776 271.848 18.696C274.824 20.616 277.104 23.16 278.688 26.328C280.272 29.448 281.064 32.856 281.064 36.552V40.728H245.928V33.672H273.504L268.968 36.84C268.968 34.584 268.656 32.688 268.032 31.152C267.456 29.568 266.568 28.368 265.368 27.552C264.216 26.736 262.752 26.328 260.976 26.328C259.248 26.328 257.736 26.736 256.44 27.552C255.192 28.32 254.232 29.52 253.56 31.152C252.888 32.736 252.552 34.752 252.552 37.2C252.552 39.408 252.864 41.328 253.488 42.96C254.112 44.544 255.072 45.768 256.368 46.632C257.664 47.496 259.344 47.928 261.408 47.928C263.232 47.928 264.72 47.616 265.872 46.992C267.072 46.368 267.912 45.528 268.392 44.472H280.344C279.768 47.16 278.616 49.56 276.888 51.672C275.208 53.784 273.048 55.44 270.408 56.64C267.816 57.84 264.816 58.44 261.408 58.44ZM303.53 57V17.4C303.53 12.744 304.874 9.288 307.562 7.032C310.25 4.728 314.234 3.576 319.514 3.576H324.626V13.224H319.226C318.074 13.224 317.186 13.536 316.562 14.16C315.938 14.784 315.626 15.672 315.626 16.824V57H303.53ZM299.066 27.624V18.12H325.202V27.624H299.066ZM348.736 58.44C345.376 58.44 342.4 57.864 339.808 56.712C337.216 55.56 335.032 54 333.256 52.032C331.48 50.064 330.112 47.856 329.152 45.408C328.24 42.96 327.784 40.44 327.784 37.848V36.408C327.784 33.72 328.24 31.152 329.152 28.704C330.112 26.208 331.456 24 333.184 22.08C334.96 20.16 337.12 18.648 339.664 17.544C342.208 16.392 345.088 15.816 348.304 15.816C352.576 15.816 356.2 16.776 359.176 18.696C362.152 20.616 364.432 23.16 366.016 26.328C367.6 29.448 368.392 32.856 368.392 36.552V40.728H333.256V33.672H360.832L356.296 36.84C356.296 34.584 355.984 32.688 355.36 31.152C354.784 29.568 353.896 28.368 352.696 27.552C351.544 26.736 350.08 26.328 348.304 26.328C346.576 26.328 345.064 26.736 343.768 27.552C342.52 28.32 341.56 29.52 340.888 31.152C340.216 32.736 339.88 34.752 339.88 37.2C339.88 39.408 340.192 41.328 340.816 42.96C341.44 44.544 342.4 45.768 343.696 46.632C344.992 47.496 346.672 47.928 348.736 47.928C350.56 47.928 352.048 47.616 353.2 46.992C354.4 46.368 355.24 45.528 355.72 44.472H367.672C367.096 47.16 365.944 49.56 364.216 51.672C362.536 53.784 360.376 55.44 357.736 56.64C355.144 57.84 352.144 58.44 348.736 58.44ZM375.299 57V17.256H385.667V34.536H385.523C385.523 28.968 386.675 24.6 388.979 21.432C391.331 18.264 394.691 16.68 399.059 16.68H400.643V27.912H397.619C394.691 27.912 392.411 28.704 390.779 30.288C389.195 31.872 388.403 34.152 388.403 37.128V57H375.299ZM429.581 57V45.336H427.421V32.88C427.421 31.056 426.989 29.712 426.125 28.848C425.309 27.936 423.941 27.48 422.021 27.48C421.109 27.48 419.765 27.504 417.989 27.552C416.213 27.6 414.341 27.672 412.373 27.768C410.405 27.864 408.605 27.96 406.973 28.056V17.112C408.125 17.016 409.493 16.92 411.077 16.824C412.661 16.728 414.293 16.656 415.973 16.608C417.701 16.56 419.285 16.536 420.725 16.536C424.805 16.536 428.261 17.136 431.093 18.336C433.973 19.536 436.157 21.336 437.645 23.736C439.181 26.136 439.949 29.184 439.949 32.88V57H429.581ZM416.981 58.008C414.197 58.008 411.725 57.504 409.565 56.496C407.405 55.488 405.701 54.048 404.453 52.176C403.253 50.256 402.653 47.976 402.653 45.336C402.653 42.36 403.445 39.96 405.029 38.136C406.613 36.264 408.797 34.896 411.581 34.032C414.365 33.168 417.557 32.736 421.157 32.736H428.861V39.504H421.157C419.381 39.504 418.013 39.96 417.053 40.872C416.093 41.736 415.613 42.912 415.613 44.4C415.613 45.84 416.093 47.016 417.053 47.928C418.013 48.792 419.381 49.224 421.157 49.224C422.309 49.224 423.317 49.032 424.181 48.648C425.093 48.216 425.837 47.496 426.413 46.488C426.989 45.48 427.325 44.088 427.421 42.312L430.445 45.192C430.205 47.928 429.533 50.256 428.429 52.176C427.373 54.048 425.885 55.488 423.965 56.496C422.093 57.504 419.765 58.008 416.981 58.008ZM464.473 58.296C458.713 58.296 454.177 57.12 450.865 54.768C447.553 52.368 445.777 49.008 445.537 44.688H457.057C457.249 45.888 457.993 46.92 459.289 47.784C460.585 48.648 462.409 49.08 464.761 49.08C466.441 49.08 467.881 48.84 469.081 48.36C470.329 47.832 470.953 46.992 470.953 45.84C470.953 44.832 470.473 44.016 469.513 43.392C468.553 42.72 466.801 42.264 464.257 42.024L461.521 41.736C456.433 41.208 452.689 39.816 450.289 37.56C447.889 35.304 446.689 32.472 446.689 29.064C446.689 26.136 447.409 23.736 448.849 21.864C450.289 19.944 452.281 18.504 454.825 17.544C457.369 16.584 460.273 16.104 463.537 16.104C468.865 16.104 473.161 17.28 476.425 19.632C479.689 21.936 481.417 25.272 481.609 29.64H470.089C469.897 28.44 469.249 27.432 468.145 26.616C467.041 25.752 465.457 25.32 463.393 25.32C461.905 25.32 460.681 25.584 459.721 26.112C458.809 26.64 458.353 27.384 458.353 28.344C458.353 29.352 458.785 30.096 459.649 30.576C460.561 31.056 462.001 31.416 463.969 31.656L466.705 31.944C471.793 32.472 475.705 33.888 478.441 36.192C481.225 38.448 482.617 41.424 482.617 45.12C482.617 47.856 481.873 50.208 480.385 52.176C478.945 54.144 476.857 55.656 474.121 56.712C471.433 57.768 468.217 58.296 464.473 58.296Z"/>
</mask>
<path d="M13.32 55.992L12.5532 57.8392L12.5654 57.8442L13.32 55.992ZM7.776 50.736L5.96636 51.5876L5.96636 51.5876L7.776 50.736ZM6.048 40.8L4.048 40.7958V40.8H6.048ZM6.12 6.888V4.888H4.12424L4.12 6.88375L6.12 6.888ZM18.216 6.888L20.216 6.8922L20.2202 4.888H18.216V6.888ZM18.144 41.16L16.144 41.1558V41.16H18.144ZM19.512 45.264L18.062 46.6415L18.0973 46.6787L18.1345 46.714L19.512 45.264ZM29.088 46.632H31.088V44.632H29.088V46.632ZM29.088 57.576V59.576H31.088V57.576H29.088ZM0.288 26.76H-1.712V28.76H0.288V26.76ZM0.288 17.256V15.256H-1.712V17.256H0.288ZM29.088 17.256H31.088V15.256H29.088V17.256ZM29.088 26.76V28.76H31.088V26.76H29.088ZM23.688 55.576C19.5009 55.576 16.333 55.0599 14.0746 54.1398L12.5654 57.8442C15.491 59.0361 19.2351 59.576 23.688 59.576V55.576ZM14.0868 54.1448C11.9929 53.2757 10.5217 51.8735 9.58564 49.8844L5.96636 51.5876C7.33432 54.4945 9.55912 56.5963 12.5532 57.8392L14.0868 54.1448ZM9.58564 49.8844C8.60858 47.8082 8.048 44.8259 8.048 40.8H4.048C4.048 45.1261 4.63942 48.7678 5.96636 51.5876L9.58564 49.8844ZM8.048 40.8042L8.12 6.89224L4.12 6.88375L4.048 40.7958L8.048 40.8042ZM6.12 8.888H18.216V4.888H6.12V8.888ZM16.216 6.8838L16.144 41.1558L20.144 41.1642L20.216 6.8922L16.216 6.8838ZM16.144 41.16C16.144 43.2697 16.6904 45.1977 18.062 46.6415L20.962 43.8865C20.5096 43.4103 20.144 42.6023 20.144 41.16H16.144ZM18.1345 46.714C19.5783 48.0856 21.5063 48.632 23.616 48.632V44.632C22.1737 44.632 21.3657 44.2664 20.8895 43.814L18.1345 46.714ZM23.616 48.632H29.088V44.632H23.616V48.632ZM27.088 46.632V57.576H31.088V46.632H27.088ZM29.088 55.576H23.688V59.576H29.088V55.576ZM2.288 26.76V17.256H-1.712V26.76H2.288ZM0.288 19.256H29.088V15.256H0.288V19.256ZM27.088 17.256V26.76H31.088V17.256H27.088ZM29.088 24.76H0.288V28.76H29.088V24.76ZM37.9834 57H35.9834V59H37.9834V57ZM37.9834 17.256V15.256H35.9834V17.256H37.9834ZM51.0874 17.256H53.0874V15.256H51.0874V17.256ZM51.0874 57V59H53.0874V57H51.0874ZM32.9434 26.76H30.9434V28.76H32.9434V26.76ZM32.9434 17.256V15.256H30.9434V17.256H32.9434ZM51.0874 17.256H53.0874V15.256H51.0874V17.256ZM51.0874 26.76V28.76H53.0874V26.76H51.0874ZM38.0554 12.288L36.5574 13.6131L36.5844 13.6437L36.6126 13.6731L38.0554 12.288ZM38.0554 2.856L36.5858 1.49944L36.5835 1.50188L38.0554 2.856ZM48.5674 2.856L47.0694 4.18114L47.0823 4.19576L47.0955 4.21011L48.5674 2.856ZM48.5674 12.288L50.0392 13.6421L50.0524 13.6278L50.0654 13.6131L48.5674 12.288ZM39.9834 57V17.256H35.9834V57H39.9834ZM37.9834 19.256H51.0874V15.256H37.9834V19.256ZM49.0874 17.256V57H53.0874V17.256H49.0874ZM51.0874 55H37.9834V59H51.0874V55ZM34.9434 26.76V17.256H30.9434V26.76H34.9434ZM32.9434 19.256H51.0874V15.256H32.9434V19.256ZM49.0874 17.256V26.76H53.0874V17.256H49.0874ZM51.0874 24.76H32.9434V28.76H51.0874V24.76ZM43.3834 12.088C41.2845 12.088 40.1324 11.5636 39.4982 10.9029L36.6126 13.6731C38.2824 15.4124 40.6823 16.088 43.3834 16.088V12.088ZM39.5534 10.9628C38.8217 10.1357 38.3994 9.04694 38.3994 7.536H34.3994C34.3994 9.86506 35.0811 11.9443 36.5574 13.6131L39.5534 10.9628ZM38.3994 7.536C38.3994 6.02297 38.8219 4.97674 39.5272 4.21011L36.5835 1.50188C35.0808 3.13526 34.3994 5.20902 34.3994 7.536H38.3994ZM39.525 4.21256C40.1704 3.51332 41.2959 2.984 43.3114 2.984V-1.016C40.6229 -1.016 38.2443 -0.297329 36.5858 1.49944L39.525 4.21256ZM43.3114 2.984C45.3968 2.984 46.4879 3.52379 47.0694 4.18114L50.0654 1.53085C48.4389 -0.307799 46.026 -1.016 43.3114 -1.016V2.984ZM47.0955 4.21011C47.8008 4.97674 48.2234 6.02297 48.2234 7.536H52.2234C52.2234 5.20902 51.5419 3.13526 50.0392 1.50188L47.0955 4.21011ZM48.2234 7.536C48.2234 9.04694 47.8011 10.1357 47.0694 10.9628L50.0654 13.6131C51.5417 11.9443 52.2234 9.86506 52.2234 7.536H48.2234ZM47.0955 10.9339C46.5123 11.5678 45.4276 12.088 43.3834 12.088V16.088C46.0431 16.088 48.4144 15.4082 50.0392 13.6421L47.0955 10.9339ZM60.7207 57H58.7207V59H60.7207V57ZM60.7207 17.256V15.256H58.7207V17.256H60.7207ZM71.0888 17.256H73.0888V15.256H71.0888V17.256ZM71.0888 34.392V36.392H73.0888V34.392H71.0888ZM70.5128 34.392H68.5128V36.392H70.5128V34.392ZM72.0248 24.168L70.1589 23.4478L70.1555 23.4568L70.1521 23.4658L72.0248 24.168ZM76.6328 18.048L77.7422 19.7121L77.7557 19.7031L77.7691 19.6938L76.6328 18.048ZM92.0408 18.048L90.8858 19.6808L90.9084 19.6968L90.9314 19.7121L92.0408 18.048ZM96.5768 24.168L94.7001 24.8594L94.7074 24.8794L94.7152 24.8993L96.5768 24.168ZM98.1608 34.392V36.392H100.161V34.392H98.1608ZM95.1368 34.392H93.1368V36.392H95.1368V34.392ZM96.6487 24.168L94.7829 23.4478L94.7795 23.4568L94.7761 23.4658L96.6487 24.168ZM101.257 18.048L102.366 19.7121L102.38 19.7031L102.393 19.6938L101.257 18.048ZM116.737 18.048L115.6 19.6938L115.623 19.7092L115.645 19.724L116.737 18.048ZM121.417 24.168L119.551 24.8881L119.559 24.9081L119.567 24.9278L121.417 24.168ZM123.073 57V59H125.073V57H123.073ZM109.969 57H107.969V59H109.969V57ZM108.457 29.496L106.872 30.7154L106.898 30.7495L106.925 30.7824L108.457 29.496ZM99.9608 29.496L98.434 28.2041L98.4293 28.2096L99.9608 29.496ZM98.4488 57V59H100.449V57H98.4488ZM85.3448 57H83.3448V59H85.3448V57ZM83.8328 29.496L82.2475 30.7154L82.2737 30.7495L82.3013 30.7824L83.8328 29.496ZM75.3368 29.496L73.81 28.2041L73.8053 28.2096L75.3368 29.496ZM73.8248 57V59H75.8248V57H73.8248ZM62.7207 57V17.256H58.7207V57H62.7207ZM60.7207 19.256H71.0888V15.256H60.7207V19.256ZM69.0888 17.256V34.392H73.0888V17.256H69.0888ZM71.0888 32.392H70.5128V36.392H71.0888V32.392ZM72.5128 34.392C72.5128 30.4077 73.0018 27.2585 73.8974 24.8702L70.1521 23.4658C69.0317 26.4535 68.5128 30.1203 68.5128 34.392H72.5128ZM73.8906 24.8881C74.8298 22.4548 76.1366 20.7825 77.7422 19.7121L75.5233 16.3839C73.0969 18.0015 71.3317 20.4092 70.1589 23.4478L73.8906 24.8881ZM77.7691 19.6938C79.3902 18.5745 81.4459 17.96 84.0488 17.96V13.96C80.7956 13.96 77.9073 14.7375 75.4964 16.4022L77.7691 19.6938ZM84.0488 17.96H84.6248V13.96H84.0488V17.96ZM84.6248 17.96C87.2853 17.96 89.3278 18.5788 90.8858 19.6808L93.1957 16.4152C90.8177 14.7332 87.9162 13.96 84.6248 13.96V17.96ZM90.9314 19.7121C92.5282 20.7767 93.8079 22.4379 94.7001 24.8594L98.4534 23.4766C97.3296 20.4261 95.5853 18.0073 93.1502 16.3839L90.9314 19.7121ZM94.7152 24.8993C95.6495 27.2773 96.1608 30.4155 96.1608 34.392H100.161C100.161 30.1125 99.616 26.4347 98.4383 23.4367L94.7152 24.8993ZM98.1608 32.392H95.1368V36.392H98.1608V32.392ZM97.1368 34.392C97.1368 30.4077 97.6258 27.2585 98.5214 24.8702L94.7761 23.4658C93.6557 26.4535 93.1368 30.1203 93.1368 34.392H97.1368ZM98.5146 24.8881C99.4538 22.4548 100.761 20.7825 102.366 19.7121L100.147 16.3839C97.7209 18.0015 95.9557 20.4092 94.7829 23.4478L98.5146 24.8881ZM102.393 19.6938C104.014 18.5745 106.07 17.96 108.673 17.96V13.96C105.42 13.96 102.531 14.7375 100.12 16.4022L102.393 19.6938ZM108.673 17.96H109.249V13.96H108.673V17.96ZM109.249 17.96C111.907 17.96 113.985 18.5781 115.6 19.6938L117.873 16.4022C115.457 14.7339 112.542 13.96 109.249 13.96V17.96ZM115.645 19.724C117.294 20.7975 118.617 22.4675 119.551 24.8881L123.283 23.4478C122.105 20.3965 120.307 17.9865 117.828 16.372L115.645 19.724ZM119.567 24.9278C120.539 27.2961 121.073 30.4234 121.073 34.392H125.073C125.073 30.1046 124.502 26.4159 123.267 23.4082L119.567 24.9278ZM121.073 34.392V57H125.073V34.392H121.073ZM123.073 55H109.969V59H123.073V55ZM111.969 57V34.032H107.969V57H111.969ZM111.969 34.032C111.969 31.8187 111.347 29.8276 109.988 28.2096L106.925 30.7824C107.582 31.5644 107.969 32.5973 107.969 34.032H111.969ZM110.042 28.2766C108.64 26.4544 106.614 25.624 104.281 25.624V29.624C105.595 29.624 106.353 30.0416 106.872 30.7154L110.042 28.2766ZM104.281 25.624C101.945 25.624 99.9168 26.4517 98.434 28.2041L101.488 30.7879C102.117 30.0443 102.968 29.624 104.281 29.624V25.624ZM98.4293 28.2096C97.0548 29.8459 96.4488 31.8952 96.4488 34.176H100.449C100.449 32.6168 100.851 31.5461 101.492 30.7824L98.4293 28.2096ZM96.4488 34.176V57H100.449V34.176H96.4488ZM98.4488 55H85.3448V59H98.4488V55ZM87.3448 57V34.032H83.3448V57H87.3448ZM87.3448 34.032C87.3448 31.8187 86.7233 29.8276 85.3642 28.2096L82.3013 30.7824C82.9582 31.5644 83.3448 32.5973 83.3448 34.032H87.3448ZM85.418 28.2766C84.0163 26.4544 81.9904 25.624 79.6568 25.624V29.624C80.9711 29.624 81.7292 30.0416 82.2475 30.7154L85.418 28.2766ZM79.6568 25.624C77.321 25.624 75.2928 26.4517 73.81 28.2041L76.8635 30.7879C77.4927 30.0443 78.3445 29.624 79.6568 29.624V25.624ZM73.8053 28.2096C72.4308 29.8459 71.8248 31.8952 71.8248 34.176H75.8248C75.8248 32.6168 76.2267 31.5461 76.8682 30.7824L73.8053 28.2096ZM71.8248 34.176V57H75.8248V34.176H71.8248ZM73.8248 55H60.7207V59H73.8248V55ZM141.597 56.712L140.785 58.5396L140.785 58.5396L141.597 56.712ZM135.045 52.032L136.53 50.6921L136.53 50.6921L135.045 52.032ZM130.941 45.408L129.067 46.1062L129.073 46.1222L129.079 46.1382L130.941 45.408ZM130.941 28.704L129.074 27.986L129.071 27.9959L129.067 28.0058L130.941 28.704ZM134.973 22.08L133.505 20.7219L133.496 20.7319L133.486 20.7421L134.973 22.08ZM141.453 17.544L142.249 19.3787L142.264 19.3724L142.278 19.3659L141.453 17.544ZM160.965 18.696L159.881 20.3766L159.881 20.3766L160.965 18.696ZM167.805 26.328L166.016 27.2224L166.022 27.2334L167.805 26.328ZM170.181 40.728V42.728H172.181V40.728H170.181ZM135.045 40.728H133.045V42.728H135.045V40.728ZM135.045 33.672V31.672H133.045V33.672H135.045ZM162.621 33.672L163.766 35.3117L168.978 31.672H162.621V33.672ZM158.085 36.84H156.085V40.6763L159.23 38.4797L158.085 36.84ZM157.149 31.152L155.269 31.8355L155.282 31.8704L155.296 31.9048L157.149 31.152ZM154.485 27.552L153.329 29.184L153.345 29.1951L153.36 29.2059L154.485 27.552ZM145.557 27.552L146.605 29.2553L146.614 29.2499L146.623 29.2445L145.557 27.552ZM142.677 31.152L144.518 31.9331L144.522 31.9233L144.526 31.9135L142.677 31.152ZM142.605 42.96L140.737 43.6743L140.74 43.6837L140.744 43.693L142.605 42.96ZM145.485 46.632L146.594 44.9679L146.594 44.9679L145.485 46.632ZM154.989 46.992L154.066 45.2176L154.051 45.2254L154.036 45.2334L154.989 46.992ZM157.509 44.472V42.472H156.221L155.688 43.6444L157.509 44.472ZM169.461 44.472L171.417 44.8911L171.935 42.472H169.461V44.472ZM166.005 51.672L164.457 50.4055L164.448 50.4162L164.44 50.427L166.005 51.672ZM159.525 56.64L158.697 54.8192L158.685 54.8251L159.525 56.64ZM150.525 56.44C147.394 56.44 144.703 55.9037 142.409 54.8844L140.785 58.5396C143.675 59.8243 146.936 60.44 150.525 60.44V56.44ZM142.409 54.8844C140.055 53.838 138.105 52.4379 136.53 50.6921L133.56 53.3719C135.537 55.5621 137.955 57.282 140.785 58.5396L142.409 54.8844ZM136.53 50.6921C134.914 48.9015 133.674 46.8997 132.803 44.6778L129.079 46.1382C130.128 48.8123 131.624 51.2265 133.56 53.3719L136.53 50.6921ZM132.815 44.7098C131.986 42.4834 131.573 40.1997 131.573 37.848H127.573C127.573 40.6803 128.072 43.4366 129.067 46.1062L132.815 44.7098ZM131.573 37.848V36.408H127.573V37.848H131.573ZM131.573 36.408C131.573 33.9514 131.989 31.6204 132.815 29.4022L129.067 28.0058C128.069 30.6836 127.573 33.4886 127.573 36.408H131.573ZM132.808 29.422C133.683 27.1459 134.901 25.1498 136.46 23.4179L133.486 20.7421C131.589 22.8502 130.119 25.2701 129.074 27.986L132.808 29.422ZM136.441 23.4381C138.017 21.734 139.944 20.379 142.249 19.3787L140.657 15.7093C137.874 16.917 135.481 18.586 133.505 20.7219L136.441 23.4381ZM142.278 19.3659C144.526 18.3478 147.119 17.816 150.093 17.816V13.816C146.635 13.816 143.468 14.4362 140.628 15.7221L142.278 19.3659ZM150.093 17.816C154.06 17.816 157.289 18.7046 159.881 20.3766L162.049 17.0154C158.689 14.8474 154.67 13.816 150.093 13.816V17.816ZM159.881 20.3766C162.556 22.1024 164.592 24.3748 166.016 27.2224L169.594 25.4336C167.85 21.9452 165.326 19.1296 162.049 17.0154L159.881 20.3766ZM166.022 27.2334C167.455 30.057 168.181 33.1524 168.181 36.552H172.181C172.181 32.5596 171.323 28.839 169.588 25.4226L166.022 27.2334ZM168.181 36.552V40.728H172.181V36.552H168.181ZM170.181 38.728H135.045V42.728H170.181V38.728ZM137.045 40.728V33.672H133.045V40.728H137.045ZM135.045 35.672H162.621V31.672H135.045V35.672ZM161.476 32.0323L156.94 35.2003L159.23 38.4797L163.766 35.3117L161.476 32.0323ZM160.085 36.84C160.085 34.4132 159.751 32.2437 159.002 30.3992L155.296 31.9048C155.795 33.1323 156.085 34.7548 156.085 36.84H160.085ZM159.029 30.4685C158.333 28.5557 157.211 26.9869 155.61 25.8981L153.36 29.2059C154.159 29.7491 154.813 30.5803 155.269 31.8355L159.029 30.4685ZM155.641 25.92C154.073 24.8091 152.176 24.328 150.093 24.328V28.328C151.562 28.328 152.593 28.6629 153.329 29.184L155.641 25.92ZM150.093 24.328C148.038 24.328 146.146 24.8177 144.491 25.8595L146.623 29.2445C147.56 28.6543 148.692 28.328 150.093 28.328V24.328ZM144.509 25.8487C142.832 26.8803 141.627 28.4496 140.828 30.3905L144.526 31.9135C145.071 30.5904 145.786 29.7597 146.605 29.2553L144.509 25.8487ZM140.836 30.3709C140.025 32.2831 139.669 34.5885 139.669 37.2H143.669C143.669 34.9155 143.985 33.1889 144.518 31.9331L140.836 30.3709ZM139.669 37.2C139.669 39.5904 140.006 41.7629 140.737 43.6743L144.473 42.2457C143.956 40.8931 143.669 39.2256 143.669 37.2H139.669ZM140.744 43.693C141.503 45.6198 142.708 47.1846 144.376 48.2961L146.594 44.9679C145.67 44.3514 144.955 43.4682 144.466 42.2269L140.744 43.693ZM144.376 48.2961C146.091 49.4399 148.192 49.928 150.525 49.928V45.928C148.73 45.928 147.471 45.5521 146.594 44.9679L144.376 48.2961ZM150.525 49.928C152.558 49.928 154.405 49.583 155.942 48.7506L154.036 45.2334C153.269 45.649 152.14 45.928 150.525 45.928V49.928ZM155.912 48.7664C157.44 47.9718 158.635 46.828 159.33 45.2996L155.688 43.6444C155.423 44.2279 154.938 44.7642 154.066 45.2176L155.912 48.7664ZM157.509 46.472H169.461V42.472H157.509V46.472ZM167.505 44.0529C166.995 46.4325 165.982 48.5415 164.457 50.4055L167.553 52.9385C169.484 50.5785 170.775 47.8875 171.417 44.8911L167.505 44.0529ZM164.44 50.427C162.971 52.2732 161.071 53.7402 158.697 54.8193L160.353 58.4607C163.259 57.1398 165.679 55.2948 167.57 52.917L164.44 50.427ZM158.685 54.8251C156.402 55.8819 153.698 56.44 150.525 56.44V60.44C154.168 60.44 157.464 59.7981 160.365 58.4549L158.685 54.8251ZM200.495 56.784L199.679 58.61L199.686 58.6132L199.694 58.6163L200.495 56.784ZM194.591 52.608L193.101 53.9416L193.119 53.9623L193.138 53.9824L194.591 52.608ZM190.775 46.2L188.889 46.8656L188.895 46.882L188.901 46.8982L190.775 46.2ZM190.703 28.488L188.813 27.8338L188.81 27.8446L188.806 27.8555L190.703 28.488ZM194.375 22.008L195.885 23.3194L195.894 23.3097L195.902 23.2999L194.375 22.008ZM200.135 17.688L200.951 19.514L200.967 19.5068L200.983 19.4994L200.135 17.688ZM215.903 18.264L214.827 19.9498L214.848 19.9631L214.869 19.9758L215.903 18.264ZM221.159 24.384L219.333 25.1993L219.339 25.2128L219.345 25.2262L221.159 24.384ZM223.175 34.176L221.988 35.7851L225.277 38.2129L225.175 34.126L223.175 34.176ZM220.151 31.944H218.151V32.9536L218.964 33.5531L220.151 31.944ZM220.151 4.44V2.44H218.151V4.44H220.151ZM233.255 4.44H235.255V2.44H233.255V4.44ZM233.255 57V59H235.255V57H233.255ZM222.887 57H220.887V59H222.887V57ZM222.887 40.872V38.872H220.887V40.872H222.887ZM224.327 40.872L226.327 40.926L226.382 38.872H224.327V40.872ZM222.167 50.16L223.943 51.0806L223.946 51.074L223.95 51.0674L222.167 50.16ZM216.551 56.208L217.57 57.9292L217.58 57.923L216.551 56.208ZM215.975 46.416L215.031 44.653L215.017 44.6603L215.004 44.6677L215.975 46.416ZM219.215 43.248L220.941 44.2594L220.941 44.2594L219.215 43.248ZM219.143 30.936L217.451 32.0016L217.465 32.0237L217.479 32.0454L219.143 30.936ZM215.903 27.984L214.932 29.7323L214.97 29.7534L215.009 29.7729L215.903 27.984ZM206.975 28.272L208.057 29.9544L208.064 29.9497L208.071 29.9449L206.975 28.272ZM203.735 31.944L201.957 31.0281L201.952 31.0388L201.946 31.0496L203.735 31.944ZM203.735 42.744L201.946 43.6384L201.963 43.6724L201.982 43.7057L203.735 42.744ZM206.975 46.272L205.894 47.9544L205.928 47.9766L205.964 47.9974L206.975 46.272ZM208.127 56.296C205.589 56.296 203.322 55.8378 201.297 54.9517L199.694 58.6163C202.276 59.7462 205.097 60.296 208.127 60.296V56.296ZM201.311 54.958C199.292 54.056 197.542 52.8166 196.044 51.2336L193.138 53.9824C195.001 55.9514 197.186 57.496 199.679 58.61L201.311 54.958ZM196.082 51.2744C194.627 49.6486 193.48 47.7318 192.649 45.5018L188.901 46.8982C189.894 49.5642 191.291 51.9194 193.101 53.9416L196.082 51.2744ZM192.661 45.5344C191.88 43.3222 191.479 40.8859 191.479 38.208H187.479C187.479 41.2901 187.942 44.1818 188.889 46.8656L192.661 45.5344ZM191.479 38.208V36.48H187.479V38.208H191.479ZM191.479 36.48C191.479 33.7903 191.86 31.3423 192.601 29.1205L188.806 27.8555C187.915 30.5297 187.479 33.4097 187.479 36.48H191.479ZM192.593 29.1422C193.382 26.8649 194.484 24.9333 195.885 23.3194L192.865 20.6966C191.099 22.7307 189.753 25.1191 188.813 27.8338L192.593 29.1422ZM195.902 23.2999C197.291 21.6588 198.967 20.4005 200.951 19.514L199.319 15.862C196.791 16.9915 194.628 18.6132 192.848 20.7161L195.902 23.2999ZM200.983 19.4994C202.944 18.5815 205.17 18.104 207.695 18.104V14.104C204.653 14.104 201.838 14.6825 199.287 15.8766L200.983 19.4994ZM207.695 18.104C210.608 18.104 212.952 18.7531 214.827 19.9498L216.979 16.5782C214.342 14.8949 211.215 14.104 207.695 14.104V18.104ZM214.869 19.9758C216.791 21.137 218.283 22.8474 219.333 25.1993L222.986 23.5687C221.635 20.5446 219.624 18.175 216.937 16.5522L214.869 19.9758ZM219.345 25.2262C220.449 27.6037 221.085 30.5823 221.176 34.226L225.175 34.126C225.074 30.0897 224.365 26.5403 222.973 23.5418L219.345 25.2262ZM224.363 32.5669L221.339 30.3349L218.964 33.5531L221.988 35.7851L224.363 32.5669ZM222.151 31.944V4.44H218.151V31.944H222.151ZM220.151 6.44H233.255V2.44H220.151V6.44ZM231.255 4.44V57H235.255V4.44H231.255ZM233.255 55H222.887V59H233.255V55ZM224.887 57V40.872H220.887V57H224.887ZM222.887 42.872H224.327V38.872H222.887V42.872ZM222.328 40.818C222.238 44.1314 221.57 46.925 220.385 49.2526L223.95 51.0674C225.453 48.115 226.224 44.7166 226.327 40.926L222.328 40.818ZM220.392 49.2394C219.211 51.5175 217.591 53.252 215.522 54.493L217.58 57.923C220.312 56.284 222.436 53.9865 223.943 51.0806L220.392 49.2394ZM215.533 54.4868C213.544 55.6637 211.103 56.296 208.127 56.296V60.296C211.68 60.296 214.854 59.5363 217.57 57.9292L215.533 54.4868ZM211.655 49.496C213.555 49.496 215.333 49.0607 216.947 48.1643L215.004 44.6677C214.025 45.2113 212.923 45.496 211.655 45.496V49.496ZM216.92 48.179C218.607 47.2748 219.95 45.9497 220.941 44.2594L217.49 42.2366C216.849 43.3303 216.031 44.1172 215.031 44.653L216.92 48.179ZM220.941 44.2594C221.972 42.4998 222.439 40.4537 222.439 38.208H218.439C218.439 39.8983 218.09 41.2122 217.49 42.2366L220.941 44.2594ZM222.439 38.208V35.76H218.439V38.208H222.439ZM222.439 35.76C222.439 33.5376 221.937 31.5204 220.807 29.8266L217.479 32.0454C218.078 32.9436 218.439 34.1424 218.439 35.76H222.439ZM220.836 29.8704C219.829 28.2711 218.475 27.034 216.798 26.1951L215.009 29.7729C216.019 30.278 216.826 31.0089 217.451 32.0016L220.836 29.8704ZM216.875 26.2357C215.27 25.3445 213.518 24.904 211.655 24.904V28.904C212.864 28.904 213.944 29.1835 214.932 29.7323L216.875 26.2357ZM211.655 24.904C209.554 24.904 207.61 25.4652 205.879 26.5991L208.071 29.9449C209.125 29.2548 210.301 28.904 211.655 28.904V24.904ZM205.894 26.5896C204.221 27.6647 202.915 29.1687 201.957 31.0281L205.513 32.8599C206.187 31.5513 207.041 30.6073 208.057 29.9544L205.894 26.5896ZM201.946 31.0496C201.014 32.9139 200.583 35.0315 200.583 37.344H204.583C204.583 35.5285 204.92 34.0461 205.524 32.8384L201.946 31.0496ZM200.583 37.344C200.583 39.6565 201.014 41.7741 201.946 43.6384L205.524 41.8496C204.92 40.6419 204.583 39.1595 204.583 37.344H200.583ZM201.982 43.7057C202.948 45.4674 204.252 46.8987 205.894 47.9544L208.057 44.5896C207.011 43.9173 206.155 42.9966 205.489 41.7823L201.982 43.7057ZM205.964 47.9974C207.684 49.006 209.598 49.496 211.655 49.496V45.496C210.257 45.496 209.05 45.17 207.987 44.5466L205.964 47.9974ZM252.48 56.712L251.668 58.5396L251.668 58.5396L252.48 56.712ZM245.928 52.032L247.413 50.6921L247.413 50.6921L245.928 52.032ZM241.824 45.408L239.95 46.1062L239.956 46.1222L239.962 46.1382L241.824 45.408ZM241.824 28.704L239.957 27.986L239.953 27.9959L239.95 28.0058L241.824 28.704ZM245.856 22.08L244.388 20.7219L244.378 20.7319L244.369 20.7421L245.856 22.08ZM252.336 17.544L253.132 19.3787L253.146 19.3724L253.161 19.3659L252.336 17.544ZM271.848 18.696L270.764 20.3766L270.764 20.3766L271.848 18.696ZM278.688 26.328L276.899 27.2224L276.904 27.2334L278.688 26.328ZM281.064 40.728V42.728H283.064V40.728H281.064ZM245.928 40.728H243.928V42.728H245.928V40.728ZM245.928 33.672V31.672H243.928V33.672H245.928ZM273.504 33.672L274.649 35.3117L279.86 31.672H273.504V33.672ZM268.968 36.84H266.968V40.6763L270.113 38.4797L268.968 36.84ZM268.032 31.152L266.152 31.8355L266.165 31.8704L266.179 31.9048L268.032 31.152ZM265.368 27.552L264.212 29.184L264.227 29.1951L264.243 29.2059L265.368 27.552ZM256.44 27.552L257.488 29.2553L257.497 29.2499L257.505 29.2445L256.44 27.552ZM253.56 31.152L255.401 31.9331L255.405 31.9233L255.409 31.9135L253.56 31.152ZM253.488 42.96L251.62 43.6743L251.623 43.6837L251.627 43.693L253.488 42.96ZM256.368 46.632L257.477 44.9679L257.477 44.9679L256.368 46.632ZM265.872 46.992L264.949 45.2176L264.934 45.2254L264.919 45.2334L265.872 46.992ZM268.392 44.472V42.472H267.104L266.571 43.6444L268.392 44.472ZM280.344 44.472L282.299 44.8911L282.818 42.472H280.344V44.472ZM276.888 51.672L275.34 50.4055L275.331 50.4162L275.323 50.427L276.888 51.672ZM270.408 56.64L269.58 54.8192L269.568 54.8251L270.408 56.64ZM261.408 56.44C258.277 56.44 255.586 55.9037 253.292 54.8844L251.668 58.5396C254.558 59.8243 257.819 60.44 261.408 60.44V56.44ZM253.292 54.8844C250.938 53.838 248.988 52.4379 247.413 50.6921L244.443 53.3719C246.419 55.5621 248.838 57.282 251.668 58.5396L253.292 54.8844ZM247.413 50.6921C245.797 48.9015 244.557 46.8997 243.686 44.6778L239.962 46.1382C241.011 48.8123 242.507 51.2265 244.443 53.3719L247.413 50.6921ZM243.698 44.7098C242.869 42.4834 242.456 40.1997 242.456 37.848H238.456C238.456 40.6803 238.955 43.4366 239.95 46.1062L243.698 44.7098ZM242.456 37.848V36.408H238.456V37.848H242.456ZM242.456 36.408C242.456 33.9514 242.872 31.6204 243.698 29.4022L239.95 28.0058C238.952 30.6836 238.456 33.4886 238.456 36.408H242.456ZM243.691 29.422C244.566 27.1459 245.784 25.1498 247.342 23.4179L244.369 20.7421C242.472 22.8502 241.002 25.2701 239.957 27.986L243.691 29.422ZM247.324 23.4381C248.9 21.734 250.827 20.379 253.132 19.3787L251.54 15.7093C248.757 16.917 246.363 18.586 244.388 20.7219L247.324 23.4381ZM253.161 19.3659C255.409 18.3478 258.001 17.816 260.976 17.816V13.816C257.518 13.816 254.35 14.4362 251.511 15.7221L253.161 19.3659ZM260.976 17.816C264.943 17.816 268.172 18.7046 270.764 20.3766L272.932 17.0154C269.572 14.8474 265.552 13.816 260.976 13.816V17.816ZM270.764 20.3766C273.438 22.1024 275.475 24.3748 276.899 27.2224L280.477 25.4336C278.732 21.9452 276.209 19.1296 272.932 17.0154L270.764 20.3766ZM276.904 27.2334C278.338 30.057 279.064 33.1524 279.064 36.552H283.064C283.064 32.5596 282.206 28.839 280.471 25.4226L276.904 27.2334ZM279.064 36.552V40.728H283.064V36.552H279.064ZM281.064 38.728H245.928V42.728H281.064V38.728ZM247.928 40.728V33.672H243.928V40.728H247.928ZM245.928 35.672H273.504V31.672H245.928V35.672ZM272.359 32.0323L267.823 35.2003L270.113 38.4797L274.649 35.3117L272.359 32.0323ZM270.968 36.84C270.968 34.4132 270.634 32.2437 269.885 30.3992L266.179 31.9048C266.678 33.1323 266.968 34.7548 266.968 36.84H270.968ZM269.911 30.4685C269.216 28.5557 268.094 26.9869 266.492 25.8981L264.243 29.2059C265.042 29.7491 265.696 30.5803 266.152 31.8355L269.911 30.4685ZM266.524 25.92C264.956 24.8091 263.058 24.328 260.976 24.328V28.328C262.445 28.328 263.476 28.6629 264.212 29.184L266.524 25.92ZM260.976 24.328C258.92 24.328 257.029 24.8177 255.374 25.8595L257.505 29.2445C258.443 28.6543 259.575 28.328 260.976 28.328V24.328ZM255.392 25.8487C253.715 26.8803 252.51 28.4496 251.71 30.3905L255.409 31.9135C255.954 30.5904 256.668 29.7597 257.488 29.2553L255.392 25.8487ZM251.719 30.3709C250.907 32.2831 250.552 34.5885 250.552 37.2H254.552C254.552 34.9155 254.868 33.1889 255.401 31.9331L251.719 30.3709ZM250.552 37.2C250.552 39.5904 250.889 41.7629 251.62 43.6743L255.356 42.2457C254.839 40.8931 254.552 39.2256 254.552 37.2H250.552ZM251.627 43.693C252.386 45.6198 253.591 47.1846 255.258 48.2961L257.477 44.9679C256.552 44.3514 255.838 43.4682 255.349 42.2269L251.627 43.693ZM255.258 48.2961C256.974 49.4399 259.075 49.928 261.408 49.928V45.928C259.613 45.928 258.353 45.5521 257.477 44.9679L255.258 48.2961ZM261.408 49.928C263.441 49.928 265.288 49.583 266.824 48.7506L264.919 45.2334C264.152 45.649 263.023 45.928 261.408 45.928V49.928ZM266.795 48.7664C268.323 47.9718 269.518 46.828 270.213 45.2996L266.571 43.6444C266.306 44.2279 265.821 44.7642 264.949 45.2176L266.795 48.7664ZM268.392 46.472H280.344V42.472H268.392V46.472ZM278.388 44.0529C277.878 46.4325 276.865 48.5415 275.34 50.4055L278.436 52.9385C280.367 50.5785 281.657 47.8875 282.299 44.8911L278.388 44.0529ZM275.323 50.427C273.854 52.2732 271.954 53.7402 269.58 54.8193L271.235 58.4607C274.141 57.1398 276.562 55.2948 278.453 52.917L275.323 50.427ZM269.568 54.8251C267.285 55.8819 264.581 56.44 261.408 56.44V60.44C265.051 60.44 268.347 59.7981 271.248 58.4549L269.568 54.8251ZM303.53 57H301.53V59H303.53V57ZM307.562 7.032L308.848 8.56395L308.856 8.55727L308.864 8.55051L307.562 7.032ZM324.626 3.576H326.626V1.576H324.626V3.576ZM324.626 13.224V15.224H326.626V13.224H324.626ZM316.562 14.16L315.148 12.7458L315.148 12.7458L316.562 14.16ZM315.626 57V59H317.626V57H315.626ZM299.066 27.624H297.066V29.624H299.066V27.624ZM299.066 18.12V16.12H297.066V18.12H299.066ZM325.202 18.12H327.202V16.12H325.202V18.12ZM325.202 27.624V29.624H327.202V27.624H325.202ZM305.53 57V17.4H301.53V57H305.53ZM305.53 17.4C305.53 13.1294 306.75 10.325 308.848 8.56395L306.276 5.50005C302.999 8.25098 301.53 12.3586 301.53 17.4H305.53ZM308.864 8.55051C311.048 6.6786 314.484 5.576 319.514 5.576V1.576C313.984 1.576 309.453 2.77739 306.26 5.51349L308.864 8.55051ZM319.514 5.576H324.626V1.576H319.514V5.576ZM322.626 3.576V13.224H326.626V3.576H322.626ZM324.626 11.224H319.226V15.224H324.626V11.224ZM319.226 11.224C317.712 11.224 316.251 11.6423 315.148 12.7458L317.976 15.5742C318.121 15.4297 318.436 15.224 319.226 15.224V11.224ZM315.148 12.7458C314.044 13.8493 313.626 15.3102 313.626 16.824H317.626C317.626 16.0338 317.832 15.7187 317.976 15.5742L315.148 12.7458ZM313.626 16.824V57H317.626V16.824H313.626ZM315.626 55H303.53V59H315.626V55ZM301.066 27.624V18.12H297.066V27.624H301.066ZM299.066 20.12H325.202V16.12H299.066V20.12ZM323.202 18.12V27.624H327.202V18.12H323.202ZM325.202 25.624H299.066V29.624H325.202V25.624ZM339.808 56.712L338.996 58.5396L338.996 58.5396L339.808 56.712ZM333.256 52.032L334.741 50.6921L334.741 50.6921L333.256 52.032ZM329.152 45.408L327.278 46.1062L327.284 46.1222L327.29 46.1382L329.152 45.408ZM329.152 28.704L327.285 27.986L327.281 27.9959L327.278 28.0058L329.152 28.704ZM333.184 22.08L331.716 20.7219L331.706 20.7319L331.697 20.7421L333.184 22.08ZM339.664 17.544L340.46 19.3787L340.475 19.3724L340.489 19.3659L339.664 17.544ZM359.176 18.696L358.092 20.3766L358.092 20.3766L359.176 18.696ZM366.016 26.328L364.227 27.2224L364.233 27.2334L366.016 26.328ZM368.392 40.728V42.728H370.392V40.728H368.392ZM333.256 40.728H331.256V42.728H333.256V40.728ZM333.256 33.672V31.672H331.256V33.672H333.256ZM360.832 33.672L361.977 35.3117L367.188 31.672H360.832V33.672ZM356.296 36.84H354.296V40.6763L357.441 38.4797L356.296 36.84ZM355.36 31.152L353.48 31.8355L353.493 31.8704L353.507 31.9048L355.36 31.152ZM352.696 27.552L351.54 29.184L351.556 29.1951L351.571 29.2059L352.696 27.552ZM343.768 27.552L344.816 29.2553L344.825 29.2499L344.834 29.2445L343.768 27.552ZM340.888 31.152L342.729 31.9331L342.733 31.9233L342.737 31.9135L340.888 31.152ZM340.816 42.96L338.948 43.6743L338.951 43.6837L338.955 43.693L340.816 42.96ZM343.696 46.632L344.805 44.9679L344.805 44.9679L343.696 46.632ZM353.2 46.992L352.277 45.2176L352.262 45.2254L352.247 45.2334L353.2 46.992ZM355.72 44.472V42.472H354.432L353.899 43.6444L355.72 44.472ZM367.672 44.472L369.628 44.8911L370.146 42.472H367.672V44.472ZM364.216 51.672L362.668 50.4055L362.659 50.4162L362.651 50.427L364.216 51.672ZM357.736 56.64L356.908 54.8192L356.896 54.8251L357.736 56.64ZM348.736 56.44C345.605 56.44 342.914 55.9037 340.62 54.8844L338.996 58.5396C341.886 59.8243 345.147 60.44 348.736 60.44V56.44ZM340.62 54.8844C338.266 53.838 336.316 52.4379 334.741 50.6921L331.771 53.3719C333.748 55.5621 336.166 57.282 338.996 58.5396L340.62 54.8844ZM334.741 50.6921C333.125 48.9015 331.885 46.8997 331.014 44.6778L327.29 46.1382C328.339 48.8123 329.835 51.2265 331.771 53.3719L334.741 50.6921ZM331.026 44.7098C330.197 42.4834 329.784 40.1997 329.784 37.848H325.784C325.784 40.6803 326.283 43.4366 327.278 46.1062L331.026 44.7098ZM329.784 37.848V36.408H325.784V37.848H329.784ZM329.784 36.408C329.784 33.9514 330.2 31.6204 331.026 29.4022L327.278 28.0058C326.28 30.6836 325.784 33.4886 325.784 36.408H329.784ZM331.019 29.422C331.894 27.1459 333.112 25.1498 334.671 23.4179L331.697 20.7421C329.8 22.8502 328.33 25.2701 327.285 27.986L331.019 29.422ZM334.652 23.4381C336.228 21.734 338.155 20.379 340.46 19.3787L338.868 15.7093C336.085 16.917 333.691 18.586 331.716 20.7219L334.652 23.4381ZM340.489 19.3659C342.737 18.3478 345.33 17.816 348.304 17.816V13.816C344.846 13.816 341.679 14.4362 338.839 15.7221L340.489 19.3659ZM348.304 17.816C352.271 17.816 355.5 18.7046 358.092 20.3766L360.26 17.0154C356.9 14.8474 352.88 13.816 348.304 13.816V17.816ZM358.092 20.3766C360.767 22.1024 362.803 24.3748 364.227 27.2224L367.805 25.4336C366.061 21.9452 363.537 19.1296 360.26 17.0154L358.092 20.3766ZM364.233 27.2334C365.666 30.057 366.392 33.1524 366.392 36.552H370.392C370.392 32.5596 369.534 28.839 367.799 25.4226L364.233 27.2334ZM366.392 36.552V40.728H370.392V36.552H366.392ZM368.392 38.728H333.256V42.728H368.392V38.728ZM335.256 40.728V33.672H331.256V40.728H335.256ZM333.256 35.672H360.832V31.672H333.256V35.672ZM359.687 32.0323L355.151 35.2003L357.441 38.4797L361.977 35.3117L359.687 32.0323ZM358.296 36.84C358.296 34.4132 357.962 32.2437 357.213 30.3992L353.507 31.9048C354.006 33.1323 354.296 34.7548 354.296 36.84H358.296ZM357.24 30.4685C356.544 28.5557 355.422 26.9869 353.821 25.8981L351.571 29.2059C352.37 29.7491 353.024 30.5803 353.48 31.8355L357.24 30.4685ZM353.852 25.92C352.284 24.8091 350.387 24.328 348.304 24.328V28.328C349.773 28.328 350.804 28.6629 351.54 29.184L353.852 25.92ZM348.304 24.328C346.249 24.328 344.357 24.8177 342.702 25.8595L344.834 29.2445C345.771 28.6543 346.903 28.328 348.304 28.328V24.328ZM342.72 25.8487C341.043 26.8803 339.838 28.4496 339.039 30.3905L342.737 31.9135C343.282 30.5904 343.997 29.7597 344.816 29.2553L342.72 25.8487ZM339.047 30.3709C338.236 32.2831 337.88 34.5885 337.88 37.2H341.88C341.88 34.9155 342.196 33.1889 342.729 31.9331L339.047 30.3709ZM337.88 37.2C337.88 39.5904 338.217 41.7629 338.948 43.6743L342.684 42.2457C342.167 40.8931 341.88 39.2256 341.88 37.2H337.88ZM338.955 43.693C339.714 45.6198 340.919 47.1846 342.587 48.2961L344.805 44.9679C343.881 44.3514 343.166 43.4682 342.677 42.2269L338.955 43.693ZM342.587 48.2961C344.302 49.4399 346.403 49.928 348.736 49.928V45.928C346.941 45.928 345.682 45.5521 344.805 44.9679L342.587 48.2961ZM348.736 49.928C350.769 49.928 352.616 49.583 354.153 48.7506L352.247 45.2334C351.48 45.649 350.351 45.928 348.736 45.928V49.928ZM354.123 48.7664C355.651 47.9718 356.846 46.828 357.541 45.2996L353.899 43.6444C353.634 44.2279 353.149 44.7642 352.277 45.2176L354.123 48.7664ZM355.72 46.472H367.672V42.472H355.72V46.472ZM365.716 44.0529C365.206 46.4325 364.193 48.5415 362.668 50.4055L365.764 52.9385C367.695 50.5785 368.985 47.8875 369.628 44.8911L365.716 44.0529ZM362.651 50.427C361.182 52.2732 359.282 53.7402 356.908 54.8193L358.564 58.4607C361.469 57.1398 363.89 55.2948 365.781 52.917L362.651 50.427ZM356.896 54.8251C354.613 55.8819 351.909 56.44 348.736 56.44V60.44C352.379 60.44 355.675 59.7981 358.576 58.4549L356.896 54.8251ZM375.299 57H373.299V59H375.299V57ZM375.299 17.256V15.256H373.299V17.256H375.299ZM385.667 17.256H387.667V15.256H385.667V17.256ZM385.667 34.536V36.536H387.667V34.536H385.667ZM385.523 34.536H383.523V36.536H385.523V34.536ZM388.979 21.432L387.373 20.2398L387.367 20.2477L387.361 20.2557L388.979 21.432ZM400.643 16.68H402.643V14.68H400.643V16.68ZM400.643 27.912V29.912H402.643V27.912H400.643ZM390.779 30.288L389.386 28.8528L389.375 28.8632L389.365 28.8738L390.779 30.288ZM388.403 57V59H390.403V57H388.403ZM377.299 57V17.256H373.299V57H377.299ZM375.299 19.256H385.667V15.256H375.299V19.256ZM383.667 17.256V34.536H387.667V17.256H383.667ZM385.667 32.536H385.523V36.536H385.667V32.536ZM387.523 34.536C387.523 29.2185 388.626 25.3175 390.596 22.6083L387.361 20.2557C384.724 23.8825 383.523 28.7175 383.523 34.536H387.523ZM390.585 22.6242C392.515 20.0241 395.246 18.68 399.059 18.68V14.68C394.136 14.68 390.147 16.5039 387.373 20.2398L390.585 22.6242ZM399.059 18.68H400.643V14.68H399.059V18.68ZM398.643 16.68V27.912H402.643V16.68H398.643ZM400.643 25.912H397.619V29.912H400.643V25.912ZM397.619 25.912C394.326 25.912 391.49 26.811 389.386 28.8528L392.172 31.7232C393.332 30.597 395.055 29.912 397.619 29.912V25.912ZM389.365 28.8738C387.295 30.9435 386.403 33.8018 386.403 37.128H390.403C390.403 34.5022 391.095 32.8005 392.193 31.7022L389.365 28.8738ZM386.403 37.128V57H390.403V37.128H386.403ZM388.403 55H375.299V59H388.403V55ZM429.581 57H427.581V59H429.581V57ZM429.581 45.336H431.581V43.336H429.581V45.336ZM427.421 45.336H425.421V47.336H427.421V45.336ZM426.125 28.848L424.635 30.1816L424.672 30.223L424.711 30.2622L426.125 28.848ZM417.989 27.552L418.043 29.5513L418.043 29.5513L417.989 27.552ZM412.373 27.768L412.471 29.7656L412.373 27.768ZM406.973 28.056H404.973V30.1771L407.091 30.0525L406.973 28.056ZM406.973 17.112L406.807 15.1189L404.973 15.2717V17.112H406.973ZM411.077 16.824L410.956 14.8277L411.077 16.824ZM415.973 16.608L415.918 14.6088L415.916 14.6088L415.973 16.608ZM431.093 18.336L430.313 20.1775L430.324 20.1822L431.093 18.336ZM437.645 23.736L435.945 24.7899L435.953 24.802L435.961 24.8141L437.645 23.736ZM439.949 57V59H441.949V57H439.949ZM404.453 52.176L402.757 53.236L402.773 53.2609L402.789 53.2854L404.453 52.176ZM405.029 38.136L406.539 39.4474L406.548 39.4377L406.556 39.4279L405.029 38.136ZM411.581 34.032L412.174 35.9421L412.174 35.9421L411.581 34.032ZM428.861 32.736H430.861V30.736H428.861V32.736ZM428.861 39.504V41.504H430.861V39.504H428.861ZM417.053 40.872L418.391 42.3586L418.411 42.3406L418.431 42.322L417.053 40.872ZM417.053 47.928L415.676 49.378L415.695 49.3966L415.715 49.4146L417.053 47.928ZM424.181 48.648L424.994 50.4756L425.016 50.4658L425.037 50.4555L424.181 48.648ZM426.413 46.488L424.677 45.4957L424.677 45.4957L426.413 46.488ZM427.421 42.312L428.801 40.8637L425.658 37.8712L425.424 42.2041L427.421 42.312ZM430.445 45.192L432.438 45.3668L432.522 44.4077L431.825 43.7437L430.445 45.192ZM428.429 52.176L426.695 51.1791L426.691 51.1862L426.687 51.1934L428.429 52.176ZM423.965 56.496L423.036 54.7252L423.026 54.7301L423.017 54.7351L423.965 56.496ZM431.581 57V45.336H427.581V57H431.581ZM429.581 43.336H427.421V47.336H429.581V43.336ZM429.421 45.336V32.88H425.421V45.336H429.421ZM429.421 32.88C429.421 30.7844 428.929 28.823 427.539 27.4338L424.711 30.2622C425.05 30.601 425.421 31.3276 425.421 32.88H429.421ZM427.616 27.5144C426.25 25.9876 424.191 25.48 422.021 25.48V29.48C423.692 29.48 424.369 29.8844 424.635 30.1816L427.616 27.5144ZM422.021 25.48C421.082 25.48 419.716 25.5046 417.935 25.5527L418.043 29.5513C419.815 29.5034 421.137 29.48 422.021 29.48V25.48ZM417.935 25.5527C416.143 25.6012 414.257 25.6737 412.276 25.7704L412.471 29.7656C414.426 29.6703 416.283 29.5988 418.043 29.5513L417.935 25.5527ZM412.276 25.7704C410.302 25.8666 408.496 25.963 406.856 26.0595L407.091 30.0525C408.715 29.957 410.508 29.8614 412.471 29.7656L412.276 25.7704ZM408.973 28.056V17.112H404.973V28.056H408.973ZM407.139 19.1051C408.272 19.0107 409.624 18.9157 411.198 18.8203L410.956 14.8277C409.362 14.9243 407.979 15.0213 406.807 15.1189L407.139 19.1051ZM411.198 18.8203C412.76 18.7257 414.37 18.6546 416.03 18.6072L415.916 14.6088C414.216 14.6574 412.563 14.7303 410.956 14.8277L411.198 18.8203ZM416.029 18.6072C417.742 18.5596 419.307 18.536 420.725 18.536V14.536C419.264 14.536 417.661 14.5604 415.918 14.6088L416.029 18.6072ZM420.725 18.536C424.62 18.536 427.794 19.1102 430.313 20.1775L431.874 16.4945C428.728 15.1618 424.99 14.536 420.725 14.536V18.536ZM430.324 20.1822C432.861 21.2393 434.7 22.7817 435.945 24.7899L439.345 22.6821C437.614 19.8903 435.085 17.8327 431.862 16.4898L430.324 20.1822ZM435.961 24.8141C437.238 26.8095 437.949 29.4543 437.949 32.88H441.949C441.949 28.9137 441.125 25.4625 439.33 22.6579L435.961 24.8141ZM437.949 32.88V57H441.949V32.88H437.949ZM439.949 55H429.581V59H439.949V55ZM416.981 56.008C414.441 56.008 412.265 55.549 410.411 54.6836L408.719 58.3084C411.185 59.459 413.954 60.008 416.981 60.008V56.008ZM410.411 54.6836C408.562 53.821 407.15 52.6154 406.117 51.0666L402.789 53.2854C404.253 55.4806 406.248 57.155 408.719 58.3084L410.411 54.6836ZM406.149 51.116C405.179 49.5636 404.653 47.6645 404.653 45.336H400.653C400.653 48.2875 401.328 50.9484 402.757 53.236L406.149 51.116ZM404.653 45.336C404.653 42.7257 405.34 40.8285 406.539 39.4474L403.519 36.8246C401.551 39.0915 400.653 41.9943 400.653 45.336H404.653ZM406.556 39.4279C407.851 37.8977 409.684 36.7148 412.174 35.9421L410.988 32.1219C407.91 33.0772 405.376 34.6303 403.502 36.8441L406.556 39.4279ZM412.174 35.9421C414.727 35.1498 417.713 34.736 421.157 34.736V30.736C417.402 30.736 414.003 31.1862 410.988 32.1219L412.174 35.9421ZM421.157 34.736H428.861V30.736H421.157V34.736ZM426.861 32.736V39.504H430.861V32.736H426.861ZM428.861 37.504H421.157V41.504H428.861V37.504ZM421.157 37.504C419.048 37.504 417.12 38.0504 415.676 39.422L418.431 42.322C418.907 41.8696 419.715 41.504 421.157 41.504V37.504ZM415.715 39.3854C414.268 40.688 413.613 42.4401 413.613 44.4H417.613C417.613 43.3839 417.918 42.784 418.391 42.3586L415.715 39.3854ZM413.613 44.4C413.613 46.3349 414.281 48.0532 415.676 49.378L418.431 46.478C417.905 45.9788 417.613 45.3451 417.613 44.4H413.613ZM415.715 49.4146C417.161 50.7156 419.074 51.224 421.157 51.224V47.224C419.689 47.224 418.866 46.8684 418.391 46.4414L415.715 49.4146ZM421.157 51.224C422.529 51.224 423.824 50.9953 424.994 50.4756L423.369 46.8204C422.81 47.0687 422.089 47.224 421.157 47.224V51.224ZM425.037 50.4555C426.373 49.8228 427.402 48.7885 428.15 47.4803L424.677 45.4957C424.272 46.2035 423.814 46.6092 423.325 46.8405L425.037 50.4555ZM428.15 47.4803C428.941 46.096 429.314 44.3567 429.418 42.4199L425.424 42.2041C425.337 43.8193 425.038 44.864 424.677 45.4957L428.15 47.4803ZM426.042 43.7603L429.066 46.6403L431.825 43.7437L428.801 40.8637L426.042 43.7603ZM428.453 45.0172C428.232 47.5314 427.624 49.564 426.695 51.1791L430.163 53.1729C431.442 50.948 432.178 48.3246 432.438 45.3668L428.453 45.0172ZM426.687 51.1934C425.822 52.7267 424.618 53.8945 423.036 54.7252L424.895 58.2668C427.153 57.0815 428.924 55.3693 430.171 53.1586L426.687 51.1934ZM423.017 54.7351C421.513 55.5451 419.533 56.008 416.981 56.008V60.008C419.997 60.008 422.674 59.4629 424.913 58.2569L423.017 54.7351ZM450.865 54.768L449.692 56.3875L449.699 56.3931L449.707 56.3987L450.865 54.768ZM445.537 44.688V42.688H443.423L443.54 44.7989L445.537 44.688ZM457.057 44.688L459.032 44.372L458.763 42.688H457.057V44.688ZM459.289 47.784L460.399 46.1199L460.399 46.1199L459.289 47.784ZM469.081 48.36L469.824 50.217L469.842 50.2096L469.86 50.2019L469.081 48.36ZM469.513 43.392L468.366 45.0305L468.394 45.0502L468.423 45.0689L469.513 43.392ZM464.257 42.024L464.048 44.013L464.059 44.0141L464.069 44.0152L464.257 42.024ZM461.521 41.736L461.73 39.747L461.728 39.7467L461.521 41.736ZM450.289 37.56L451.659 36.1027L451.659 36.1027L450.289 37.56ZM448.849 21.864L450.434 23.0834L450.442 23.0738L450.449 23.064L448.849 21.864ZM454.825 17.544L454.119 15.6728L454.119 15.6728L454.825 17.544ZM476.425 19.632L475.256 21.2546L475.264 21.2603L475.272 21.2659L476.425 19.632ZM481.609 29.64V31.64H483.699L483.607 29.5522L481.609 29.64ZM470.089 29.64L468.114 29.956L468.384 31.64H470.089V29.64ZM468.145 26.616L466.913 28.191L466.934 28.208L466.956 28.2244L468.145 26.616ZM459.721 26.112L458.757 24.3596L458.738 24.3701L458.719 24.3811L459.721 26.112ZM459.649 30.576L458.678 32.3243L458.698 32.3353L458.718 32.3458L459.649 30.576ZM463.969 31.656L463.727 33.6413L463.743 33.6433L463.76 33.645L463.969 31.656ZM466.705 31.944L466.496 33.933L466.499 33.9333L466.705 31.944ZM478.441 36.192L477.153 37.7218L477.167 37.734L477.182 37.7459L478.441 36.192ZM480.385 52.176L478.79 50.9698L478.78 50.9823L478.771 50.995L480.385 52.176ZM474.121 56.712L473.401 54.8461L473.39 54.8505L474.121 56.712ZM464.473 56.296C458.961 56.296 454.882 55.1676 452.023 53.1373L449.707 56.3987C453.472 59.0724 458.466 60.296 464.473 60.296V56.296ZM452.039 53.1485C449.246 51.1246 447.743 48.3359 447.534 44.5771L443.54 44.7989C443.811 49.6801 445.861 53.6114 449.692 56.3875L452.039 53.1485ZM445.537 46.688H457.057V42.688H445.537V46.688ZM455.082 45.004C455.386 46.8996 456.559 48.3673 458.18 49.4481L460.399 46.1199C459.428 45.4727 459.113 44.8764 459.032 44.372L455.082 45.004ZM458.18 49.4481C459.932 50.6164 462.203 51.08 464.761 51.08V47.08C462.616 47.08 461.238 46.6796 460.399 46.1199L458.18 49.4481ZM464.761 51.08C466.623 51.08 468.328 50.8151 469.824 50.217L468.338 46.503C467.434 46.8649 466.259 47.08 464.761 47.08V51.08ZM469.86 50.2019C470.718 49.8391 471.512 49.3055 472.091 48.5266C472.685 47.7268 472.953 46.7999 472.953 45.84H468.953C468.953 46.0321 468.909 46.1012 468.88 46.1414C468.834 46.2025 468.692 46.3529 468.302 46.5181L469.86 50.2019ZM472.953 45.84C472.953 44.0537 472.04 42.6492 470.603 41.7151L468.423 45.0689C468.906 45.3828 468.953 45.6103 468.953 45.84H472.953ZM470.66 41.7535C469.237 40.7571 467.016 40.2754 464.445 40.0328L464.069 44.0152C466.586 44.2526 467.87 44.6829 468.366 45.0305L470.66 41.7535ZM464.466 40.035L461.73 39.747L461.312 43.725L464.048 44.013L464.466 40.035ZM461.728 39.7467C456.849 39.2404 453.606 37.9334 451.659 36.1027L448.919 39.0173C451.772 41.6986 456.017 43.1756 461.315 43.7253L461.728 39.7467ZM451.659 36.1027C449.677 34.2393 448.689 31.9417 448.689 29.064H444.689C444.689 33.0023 446.102 36.3687 448.919 39.0173L451.659 36.1027ZM448.689 29.064C448.689 26.4691 449.322 24.5289 450.434 23.0834L447.264 20.6446C445.496 22.9431 444.689 25.8029 444.689 29.064H448.689ZM450.449 23.064C451.632 21.4872 453.294 20.2593 455.531 19.4152L454.119 15.6728C451.268 16.7487 448.947 18.4008 447.249 20.664L450.449 23.064ZM455.531 19.4152C457.809 18.5555 460.467 18.104 463.537 18.104V14.104C460.079 14.104 456.929 14.6125 454.119 15.6728L455.531 19.4152ZM463.537 18.104C468.58 18.104 472.428 19.2165 475.256 21.2546L477.594 18.0094C473.895 15.3435 469.15 14.104 463.537 14.104V18.104ZM475.272 21.2659C477.978 23.176 479.443 25.9111 479.611 29.7278L483.607 29.5522C483.391 24.6329 481.401 20.696 477.578 17.9981L475.272 21.2659ZM481.609 27.64H470.089V31.64H481.609V27.64ZM472.064 29.324C471.778 27.5384 470.8 26.091 469.334 25.0076L466.956 28.2244C467.699 28.773 468.016 29.3416 468.114 29.956L472.064 29.324ZM469.378 25.041C467.79 23.7983 465.701 23.32 463.393 23.32V27.32C465.213 27.32 466.292 27.7057 466.913 28.191L469.378 25.041ZM463.393 23.32C461.684 23.32 460.099 23.6214 458.757 24.3596L460.685 27.8644C461.263 27.5466 462.127 27.32 463.393 27.32V23.32ZM458.719 24.3811C457.263 25.2243 456.353 26.5896 456.353 28.344H460.353C460.353 28.1947 460.384 28.1376 460.4 28.1111C460.422 28.0758 460.496 27.9746 460.723 27.8429L458.719 24.3811ZM456.353 28.344C456.353 29.1397 456.526 29.9364 456.948 30.6623C457.37 31.3902 457.978 31.9357 458.678 32.3243L460.62 28.8277C460.456 28.7363 460.416 28.6698 460.407 28.6537C460.396 28.6356 460.353 28.5563 460.353 28.344H456.353ZM458.718 32.3458C459.961 33.0005 461.698 33.3939 463.727 33.6413L464.211 29.6707C462.304 29.4381 461.161 29.1115 460.581 28.8062L458.718 32.3458ZM463.76 33.645L466.496 33.933L466.914 29.955L464.178 29.667L463.76 33.645ZM466.499 33.9333C471.352 34.437 474.829 35.7649 477.153 37.7218L479.729 34.6622C476.581 32.0111 472.234 30.507 466.912 29.9547L466.499 33.9333ZM477.182 37.7459C479.481 39.6085 480.617 42.0052 480.617 45.12H484.617C484.617 40.8428 482.97 37.2875 479.7 34.6381L477.182 37.7459ZM480.617 45.12C480.617 47.4706 479.987 49.387 478.79 50.9698L481.98 53.3822C483.76 51.029 484.617 48.2414 484.617 45.12H480.617ZM478.771 50.995C477.6 52.5961 475.853 53.8999 473.401 54.8462L474.841 58.5778C477.862 57.4121 480.291 55.6919 481.999 53.357L478.771 50.995ZM473.39 54.8505C470.993 55.7923 468.037 56.296 464.473 56.296V60.296C468.397 60.296 471.874 59.7437 474.852 58.5735L473.39 54.8505Z" fill="#FEFEFE" mask="url(#path-1-outside-1_8468_3446)"/>
</svg>
