<svg width="38" height="24" viewBox="0 0 38 24" fill="none" xmlns="http://www.w3.org/2000/svg">
<path id="Vector" d="M15.366 10.7542C17.4013 9.74397 18.4637 8.21531 18.4637 5.83591C18.4637 1.14359 15.0972 0.000411987 11.2123 0.000411987H0.517578V23.5551H11.5131C15.6348 23.5551 19.507 21.5014 19.507 16.716C19.507 13.7584 18.1565 11.5717 15.366 10.7542ZM5.50333 4.02146H10.1819C11.9803 4.02146 13.5996 4.54652 13.5996 6.71323C13.5996 8.71379 12.3387 9.518 10.5595 9.518H5.50333V4.02146ZM10.8347 19.554H5.50333V13.0672H10.9371C13.1324 13.0672 14.5212 14.0176 14.5212 16.4302C14.5212 18.8096 12.8636 19.554 10.8347 19.554ZM33.7794 3.55621H24.5823V1.23663H33.7794V3.55621ZM37.3827 15.2737C37.3827 10.2292 34.541 6.02201 29.3889 6.02201C24.3839 6.02201 20.9854 9.93007 20.9854 15.0478C20.9854 20.3582 24.2047 24.0004 29.3889 24.0004C33.3122 24.0004 35.8531 22.166 37.0755 18.2646H33.0946C32.6658 19.7202 30.8993 20.4911 29.5297 20.4911C26.8864 20.4911 25.4975 18.8827 25.4975 16.1511H37.3443C37.3635 15.8719 37.3827 15.5728 37.3827 15.2737ZM25.5039 13.2001C25.6511 10.9603 27.0848 9.55787 29.2481 9.55787C31.5137 9.55787 32.653 10.9403 32.845 13.2001H25.5039Z" fill="#0B8CFF"/>
</svg>
