<svg width="96" height="58" viewBox="0 0 96 58" fill="none" xmlns="http://www.w3.org/2000/svg">
<path d="M84.2288 24.1369L86.1906 21.3736L86.9022 24.6869L92.5413 50.9435L93.2399 54.1959L90.3473 52.5529L66.2636 38.873L63.052 37.0487L66.6301 36.1324L77.7313 33.2893L84.2288 24.1369Z" fill="#FDB32F" stroke="#19191C" stroke-width="2.98182" stroke-linecap="square"/>
<rect x="0.745454" y="0.745454" width="70.8182" height="23.1091" fill="#FDB32F"/>
<rect x="0.745454" y="0.745454" width="70.8182" height="23.1091" stroke="#19191C" stroke-width="1.49091"/>
<path d="M14.0132 15.8417V14.245H15.4325C15.7873 14.245 16.1074 14.1928 16.3927 14.0884C16.6779 13.9771 16.9214 13.824 17.1232 13.6292C17.325 13.4275 17.478 13.1874 17.5824 12.9091C17.6868 12.6239 17.7389 12.3108 17.7389 11.9698C17.7389 11.615 17.6868 11.2984 17.5824 11.0201C17.478 10.7418 17.325 10.5053 17.1232 10.3105C16.9214 10.1156 16.6779 9.96954 16.3927 9.87213C16.1074 9.76777 15.7873 9.71559 15.4325 9.71559H14.0132V8.11882H15.3386C16.0274 8.11882 16.6292 8.21971 17.1441 8.42148C17.6589 8.62325 18.0903 8.89807 18.4382 9.24595C18.7861 9.59383 19.0435 9.99389 19.2105 10.4461C19.3844 10.8914 19.4714 11.3611 19.4714 11.855V12.0846C19.4714 12.5438 19.3844 12.9996 19.2105 13.4518C19.0435 13.8971 18.7861 14.3006 18.4382 14.6624C18.0903 15.0173 17.6589 15.3025 17.1441 15.5182C16.6292 15.7339 16.0274 15.8417 15.3386 15.8417H14.0132ZM12.5103 15.8417V8.11882H14.2219V15.8417H12.5103ZM23.1893 15.9983C22.7023 15.9983 22.2709 15.9148 21.8952 15.7478C21.5265 15.5808 21.2169 15.3582 20.9664 15.0799C20.7229 14.7946 20.535 14.478 20.4028 14.1302C20.2776 13.7753 20.215 13.4135 20.215 13.0448V12.8361C20.215 12.4534 20.2776 12.0881 20.4028 11.7402C20.535 11.3854 20.7229 11.0688 20.9664 10.7905C21.2099 10.5122 21.5126 10.2931 21.8744 10.133C22.2431 9.96606 22.6606 9.88257 23.1267 9.88257C23.739 9.88257 24.2538 10.0217 24.6713 10.3C25.0957 10.5714 25.4192 10.9297 25.6419 11.375C25.8645 11.8133 25.9758 12.2934 25.9758 12.8152V13.3788H20.9142V12.429H24.9635L24.4208 12.8674C24.4208 12.5264 24.3721 12.2342 24.2747 11.9907C24.1773 11.7472 24.0312 11.5628 23.8364 11.4376C23.6485 11.3054 23.412 11.2393 23.1267 11.2393C22.8345 11.2393 22.5875 11.3054 22.3857 11.4376C22.184 11.5698 22.0309 11.7646 21.9265 12.022C21.8222 12.2725 21.77 12.5821 21.77 12.9509C21.77 13.2918 21.8187 13.591 21.9161 13.8484C22.0135 14.0989 22.1666 14.2937 22.3753 14.4328C22.584 14.572 22.8554 14.6416 23.1893 14.6416C23.4955 14.6416 23.7459 14.5824 23.9408 14.4641C24.1356 14.3459 24.2678 14.1997 24.3373 14.0258H25.8715C25.788 14.4085 25.6245 14.7494 25.381 15.0486C25.1375 15.3477 24.8313 15.5808 24.4626 15.7478C24.0938 15.9148 23.6694 15.9983 23.1893 15.9983ZM29.2531 15.9774C28.4391 15.9774 27.8024 15.8104 27.3432 15.4765C26.884 15.1425 26.6405 14.6729 26.6127 14.0676H28.0947C28.1225 14.2484 28.2303 14.412 28.4182 14.5581C28.613 14.6972 28.9017 14.7668 29.2844 14.7668C29.5766 14.7668 29.8167 14.7181 30.0045 14.6207C30.1993 14.5163 30.2967 14.3702 30.2967 14.1824C30.2967 14.0154 30.2237 13.8832 30.0776 13.7858C29.9315 13.6814 29.6706 13.6084 29.2948 13.5666L28.8461 13.5249C28.1573 13.4553 27.6389 13.264 27.2911 12.9509C26.9501 12.6378 26.7797 12.2377 26.7797 11.7507C26.7797 11.3471 26.8806 11.0097 27.0823 10.7384C27.2841 10.467 27.5624 10.2618 27.9172 10.1226C28.279 9.98345 28.6895 9.91388 29.1487 9.91388C29.8862 9.91388 30.4811 10.0774 30.9334 10.4044C31.3856 10.7244 31.6222 11.1906 31.643 11.8029H30.1611C30.1332 11.615 30.0358 11.4585 29.8688 11.3332C29.7019 11.201 29.4549 11.1349 29.1279 11.1349C28.8704 11.1349 28.6652 11.1836 28.5121 11.281C28.3591 11.3784 28.2825 11.5106 28.2825 11.6776C28.2825 11.8376 28.3486 11.9594 28.4808 12.0429C28.613 12.1264 28.8287 12.1855 29.1279 12.2203L29.5766 12.2621C30.2793 12.3386 30.8255 12.5334 31.2151 12.8465C31.6048 13.1596 31.7996 13.5805 31.7996 14.1093C31.7996 14.492 31.6952 14.8259 31.4865 15.1112C31.2778 15.3895 30.9821 15.6052 30.5994 15.7582C30.2167 15.9044 29.768 15.9774 29.2531 15.9774ZM33.1528 15.8V10.0809H34.8226V15.8H33.1528ZM32.3909 11.3124V10.0809H34.8226V11.3124H32.3909ZM33.7999 9.5173C33.4868 9.5173 33.2537 9.43728 33.1006 9.27726C32.9545 9.11028 32.8815 8.90155 32.8815 8.65108C32.8815 8.39365 32.9545 8.18492 33.1006 8.0249C33.2537 7.85791 33.4868 7.77442 33.7999 7.77442C34.1129 7.77442 34.3425 7.85791 34.4887 8.0249C34.6417 8.18492 34.7183 8.39365 34.7183 8.65108C34.7183 8.90155 34.6417 9.11028 34.4887 9.27726C34.3425 9.43728 34.1129 9.5173 33.7999 9.5173ZM38.6213 18.0751C38.343 18.0751 38.0577 18.0647 37.7655 18.0438C37.4733 18.0229 37.2054 17.9951 36.9619 17.9603V16.5514C37.2054 16.5862 37.4733 16.614 37.7655 16.6349C38.0647 16.6627 38.336 16.6766 38.5795 16.6766C39.0318 16.6766 39.3971 16.6245 39.6754 16.5201C39.9606 16.4157 40.1693 16.2557 40.3015 16.04C40.4337 15.8313 40.4998 15.56 40.4998 15.226V14.0884L40.8025 13.4205C40.7886 13.9284 40.6877 14.3632 40.4998 14.725C40.3189 15.0868 40.065 15.3651 39.738 15.56C39.411 15.7478 39.0213 15.8417 38.5691 15.8417C38.1795 15.8417 37.8246 15.7722 37.5046 15.633C37.1915 15.4869 36.9236 15.2851 36.701 15.0277C36.4784 14.7703 36.3079 14.4711 36.1896 14.1302C36.0713 13.7823 36.0122 13.4066 36.0122 13.003V12.763C36.0122 12.3595 36.0748 11.9838 36.2001 11.6359C36.3253 11.288 36.5062 10.9853 36.7427 10.7279C36.9793 10.4705 37.2611 10.2722 37.5881 10.133C37.9151 9.98693 38.2769 9.91388 38.6735 9.91388C39.1327 9.91388 39.5293 10.0148 39.8632 10.2165C40.2041 10.4183 40.472 10.714 40.6668 11.1036C40.8616 11.4932 40.966 11.9629 40.9799 12.5125L40.7503 12.5752V10.0809H42.0757V15.1216C42.0757 15.8243 41.9505 16.3914 41.7 16.8228C41.4495 17.2541 41.0669 17.5707 40.552 17.7725C40.0441 17.9742 39.4005 18.0751 38.6213 18.0751ZM39.0909 14.4328C39.3484 14.4328 39.5814 14.3772 39.7902 14.2658C39.9989 14.1476 40.1624 13.9806 40.2807 13.7649C40.4059 13.5492 40.4685 13.2883 40.4685 12.9822V12.6795C40.4685 12.3803 40.4024 12.1299 40.2702 11.9281C40.145 11.7194 39.978 11.5628 39.7693 11.4585C39.5606 11.3471 39.3379 11.2915 39.1014 11.2915C38.8231 11.2915 38.5761 11.3576 38.3604 11.4898C38.1447 11.622 37.9777 11.8063 37.8594 12.0429C37.7412 12.2795 37.682 12.5578 37.682 12.8778C37.682 13.2048 37.7412 13.4866 37.8594 13.7232C37.9847 13.9528 38.1517 14.1302 38.3604 14.2554C38.5761 14.3737 38.8196 14.4328 39.0909 14.4328ZM43.5217 15.8V10.0809H44.8471V12.5334H44.7531C44.7531 11.949 44.8262 11.4619 44.9723 11.0723C45.1254 10.6827 45.355 10.3905 45.6611 10.1957C45.9672 10.0008 46.3395 9.90344 46.7778 9.90344H46.8509C47.5188 9.90344 48.0267 10.1226 48.3746 10.5609C48.7294 10.9923 48.9068 11.6498 48.9068 12.5334V15.8H47.237V12.4395C47.237 12.1333 47.1465 11.8829 46.9657 11.6881C46.7848 11.4932 46.5412 11.3958 46.2351 11.3958C45.922 11.3958 45.6681 11.4967 45.4733 11.6985C45.2854 11.8933 45.1915 12.1507 45.1915 12.4708V15.8H43.5217ZM52.9493 15.9983C52.4622 15.9983 52.0309 15.9148 51.6552 15.7478C51.2864 15.5808 50.9768 15.3582 50.7263 15.0799C50.4828 14.7946 50.295 14.478 50.1628 14.1302C50.0375 13.7753 49.9749 13.4135 49.9749 13.0448V12.8361C49.9749 12.4534 50.0375 12.0881 50.1628 11.7402C50.295 11.3854 50.4828 11.0688 50.7263 10.7905C50.9698 10.5122 51.2725 10.2931 51.6343 10.133C52.003 9.96606 52.4205 9.88257 52.8867 9.88257C53.4989 9.88257 54.0138 10.0217 54.4312 10.3C54.8557 10.5714 55.1792 10.9297 55.4018 11.375C55.6245 11.8133 55.7358 12.2934 55.7358 12.8152V13.3788H50.6741V12.429H54.7235L54.1808 12.8674C54.1808 12.5264 54.1321 12.2342 54.0347 11.9907C53.9373 11.7472 53.7911 11.5628 53.5963 11.4376C53.4085 11.3054 53.1719 11.2393 52.8867 11.2393C52.5944 11.2393 52.3474 11.3054 52.1457 11.4376C51.9439 11.5698 51.7908 11.7646 51.6865 12.022C51.5821 12.2725 51.5299 12.5821 51.5299 12.9509C51.5299 13.2918 51.5786 13.591 51.676 13.8484C51.7734 14.0989 51.9265 14.2937 52.1352 14.4328C52.344 14.572 52.6153 14.6416 52.9493 14.6416C53.2554 14.6416 53.5059 14.5824 53.7007 14.4641C53.8955 14.3459 54.0277 14.1997 54.0973 14.0258H55.6314C55.5479 14.4085 55.3844 14.7494 55.1409 15.0486C54.8974 15.3477 54.5913 15.5808 54.2225 15.7478C53.8538 15.9148 53.4293 15.9983 52.9493 15.9983ZM56.8423 15.8V10.0809H58.1677V12.5334H58.1364C58.1364 11.7263 58.3069 11.1036 58.6478 10.6653C58.9957 10.227 59.4966 10.0078 60.1506 10.0078H60.3698V11.448H59.9523C59.4931 11.448 59.1383 11.5733 58.8878 11.8237C58.6373 12.0672 58.5121 12.4221 58.5121 12.8882V15.8H56.8423Z" fill="#19191C"/>
</svg>
