<svg width="42" height="20" viewBox="0 0 42 20" fill="none" xmlns="http://www.w3.org/2000/svg">
<path d="M0.5 4.50342V0.00341797H2V1.50342H5V3.00342H11V1.50342H23.5V3.00342H27V2.50342H28.5V1.00342H40V2.50342H41.5V9.00342H34V10.5034H38.5V12.0034H28.5V10.0034H25V12.5034H24V14.5034H25V16.0034H22.5V12.5034H18.5V13.5034H20V15.0034H16V13.5034H13.5V15.0034H12V16.5034H10.5V18.0034H12V19.5034H9V13.5034H9.5V12.0034H8V10.5034H6.5V9.00342H5V7.50342H3.5V6.00342H2V4.50342H0.5Z" fill="white"/>
<path d="M29.5 2.50342H31.5V4.50342H29.5V2.50342Z" fill="#002D66"/>
</svg>
