<svg width="41" height="20" viewBox="0 0 41 20" fill="none" xmlns="http://www.w3.org/2000/svg">
<g id="dino-um">
<path id="Vector 77" d="M0 4.99289V0.492889H1.5V1.99289H4.5V3.49289H10.5V1.99289H23V3.49289H26.5V2.99289H28V1.49289H39.5V2.99289H41V9.49289H33.5V10.9929H38V12.4929H28V10.4929H24.5V12.9929H23.5V14.9929H24.5V16.4929H22V12.9929H18V13.9929H17V15.4929H16V16.4929H14.5V18.4929H15.5V19.9929H13V13.9929H10V15.4929H11.5V16.9929H8.5V13.9929H9V12.4929H7.5V10.9929H6V9.49289H4.5V7.99289H3V6.49289H1.5V4.99289H0Z" fill="#FEFEFE"/>
<path id="Rectangle 1" d="M29 2.99289H31V4.99289H29V2.99289Z" fill="#0F315C"/>
</g>
</svg>
