<svg width="26" height="25" viewBox="0 0 26 25" fill="none" xmlns="http://www.w3.org/2000/svg">
<path id="Vector" d="M13.0176 0.000411987C6.12504 0.000411987 0.517578 5.60787 0.517578 12.5004C0.517578 19.393 6.12504 25.0004 13.0176 25.0004C19.9101 25.0004 25.5176 19.393 25.5176 12.5004C25.5176 5.60787 19.9101 0.000411987 13.0176 0.000411987ZM21.2822 5.76483C22.7692 7.58166 23.6697 9.89572 23.6932 12.4158C23.3412 12.3413 19.8113 11.6254 16.2587 12.0721C15.9687 11.3644 15.6951 10.7418 15.3203 9.97466C19.2679 8.36291 21.0571 6.06931 21.2822 5.76483ZM20.0952 4.53015C19.9032 4.80369 18.296 6.96392 14.4994 8.38695C12.7498 5.17244 10.8107 2.53171 10.5156 2.13655C13.9014 1.32037 17.4695 2.20056 20.0952 4.53015ZM8.47831 2.85424C8.75982 3.24028 10.6677 5.88428 12.4368 9.02909C7.44253 10.3554 3.04369 10.3362 2.56617 10.3299C3.25851 7.01679 5.49127 4.26316 8.47831 2.85424ZM2.34066 12.5167C2.34066 12.4075 2.34283 12.2989 2.34611 12.1904C2.81324 12.2 7.98724 12.2667 13.3192 10.671C13.6248 11.2692 13.9168 11.8764 14.1848 12.4829C10.324 13.5704 6.81617 16.693 5.08547 19.6556C3.38018 17.7628 2.34066 15.259 2.34066 12.5167ZM6.464 20.9397C7.57927 18.6598 10.606 15.7168 14.9105 14.2484C16.4095 18.1437 17.0294 21.4083 17.1882 22.3451C13.7551 23.8074 9.62695 23.4062 6.464 20.9397ZM18.9832 21.3676C18.8737 20.7181 18.3054 17.5925 16.909 13.755C20.2547 13.2195 23.1942 14.0962 23.5595 14.2114C23.0836 17.1823 21.3784 19.7479 18.9832 21.3676Z" fill="#0B8CFF"/>
</svg>
