<svg width="26" height="27" viewBox="0 0 26 27" fill="none" xmlns="http://www.w3.org/2000/svg">
<path id="Vector" d="M18.0281 26.0004V21.3991C18.0727 20.8322 17.9961 20.2623 17.8034 19.7272C17.6107 19.1922 17.3063 18.7043 16.9105 18.296C20.6438 17.8798 24.5674 16.465 24.5674 9.97324C24.5671 8.31325 23.9286 6.71692 22.784 5.51464C23.326 4.06234 23.2876 2.45706 22.677 1.03227C22.677 1.03227 21.274 0.616132 18.0281 2.79193C15.303 2.05337 12.4305 2.05337 9.70541 2.79193C6.45955 0.616132 5.05657 1.03227 5.05657 1.03227C4.4459 2.45706 4.40757 4.06234 4.94957 5.51464C3.79643 6.72584 3.15724 8.3366 3.16613 10.0089C3.16613 16.4531 7.08969 17.8679 10.823 18.3316C10.4319 18.7358 10.1302 19.2179 9.93762 19.7464C9.74506 20.2749 9.66594 20.838 9.70541 21.3991V26.0004M9.70541 22.4335C3.76061 24.217 3.76061 19.4611 1.38269 18.8667L9.70541 22.4335Z" stroke="#0B8CFF" stroke-width="2" stroke-linecap="round" stroke-linejoin="round"/>
</svg>
