<svg width="28" height="27" viewBox="0 0 28 27" fill="none" xmlns="http://www.w3.org/2000/svg">
<g id="Group 77">
<path id="Vector" d="M20.2676 1.00041H7.76758C4.3158 1.00041 1.51758 3.79863 1.51758 7.25041V19.7504C1.51758 23.2022 4.3158 26.0004 7.76758 26.0004H20.2676C23.7194 26.0004 26.5176 23.2022 26.5176 19.7504V7.25041C26.5176 3.79863 23.7194 1.00041 20.2676 1.00041Z" stroke="#0B8CFF" stroke-width="2" stroke-linecap="round" stroke-linejoin="round"/>
<path id="Vector_2" d="M19.0172 12.7133C19.1715 13.7536 18.9938 14.8161 18.5094 15.7496C18.025 16.6831 17.2586 17.4401 16.3192 17.9129C15.3798 18.3857 14.3153 18.5503 13.2769 18.3832C12.2386 18.2161 11.2794 17.7259 10.5358 16.9822C9.79211 16.2386 9.30188 15.2794 9.1348 14.2411C8.96772 13.2027 9.13229 12.1382 9.60512 11.1988C10.0779 10.2594 10.8349 9.49296 11.7684 9.00859C12.7019 8.52422 13.7644 8.34652 14.8047 8.50079C15.8659 8.65814 16.8483 9.15262 17.6068 9.91117C18.3654 10.6697 18.8599 11.6521 19.0172 12.7133Z" stroke="#0B8CFF" stroke-width="2" stroke-linecap="round" stroke-linejoin="round"/>
<path id="Vector_3" d="M20.8926 6.62541H20.9051" stroke="#0B8CFF" stroke-width="2" stroke-linecap="round" stroke-linejoin="round"/>
</g>
</svg>
