<svg width="29" height="27" viewBox="0 0 29 27" fill="none" xmlns="http://www.w3.org/2000/svg">
<g id="Group 90">
<path id="Vector" d="M19.9885 8.89473C22.0823 8.89473 24.0904 9.72649 25.5709 11.207C27.0515 12.6876 27.8832 14.6957 27.8832 16.7895V26H22.6201V16.7895C22.6201 16.0915 22.3428 15.4222 21.8493 14.9287C21.3558 14.4351 20.6864 14.1579 19.9885 14.1579C19.2905 14.1579 18.6212 14.4351 18.1277 14.9287C17.6342 15.4222 17.3569 16.0915 17.3569 16.7895V26H12.0938V16.7895C12.0938 14.6957 12.9255 12.6876 14.4061 11.207C15.8866 9.72649 17.8947 8.89473 19.9885 8.89473V8.89473Z" stroke="#0B8CFF" stroke-width="2" stroke-linecap="round" stroke-linejoin="round"/>
<path id="Vector_2" d="M6.83054 10.2109H1.56738V26.0004H6.83054V10.2109Z" stroke="#0B8CFF" stroke-width="2" stroke-linecap="round" stroke-linejoin="round"/>
<path id="Vector_3" d="M4.19896 6.26316C5.65234 6.26316 6.83054 5.08496 6.83054 3.63158C6.83054 2.1782 5.65234 1 4.19896 1C2.74558 1 1.56738 2.1782 1.56738 3.63158C1.56738 5.08496 2.74558 6.26316 4.19896 6.26316Z" stroke="#0B8CFF" stroke-width="2" stroke-linecap="round" stroke-linejoin="round"/>
</g>
</svg>
