<svg width="44" height="24" viewBox="0 0 44 24" fill="none" xmlns="http://www.w3.org/2000/svg">
<g id="logo-v2">
<path id="Vector" d="M9.42211 4.2785L21.1359 16.3469L20.0009 19.7844L13.6287 13.2457L11.0672 10.6176L9.91148 14.1183L7.40214 21.7292L4.02857 21.6977L9.42211 4.2785ZM8.40171 0L0.977783 23.9264L9.00562 24L12.0356 14.8226L20.9693 24L23.6973 15.7477L8.40171 0Z" fill="#FEFEFE"/>
<path id="Vector_2" d="M36.6082 2.2706L39.9817 2.30211L34.5778 19.7213L22.864 7.65301L23.999 4.21541L30.3712 10.7542L32.9327 13.3823L34.0884 9.88168L36.6082 2.2706ZM34.9943 -6.10352e-05L31.9643 9.17732L23.0306 -6.10352e-05L20.3026 8.25225L35.5982 23.9999L43.0221 0.0734443L34.9943 -6.10352e-05Z" fill="#FEFEFE"/>
</g>
</svg>
