<svg width="110" height="58" viewBox="0 0 110 58" fill="none" xmlns="http://www.w3.org/2000/svg">
<path d="M11.9639 33.3761L10.0022 36.1395L9.29055 32.8261L3.65142 6.5696L2.95289 3.31714L5.84545 4.96016L29.9291 18.64L33.1408 20.4643L29.5626 21.3807L18.4614 24.2238L11.9639 33.3761Z" fill="#19B100" stroke="#19191C" stroke-width="2.98182" stroke-linecap="square"/>
<rect x="20.8546" y="33.6383" width="88.4" height="23.1091" fill="#19B100"/>
<rect x="20.8546" y="33.6383" width="88.4" height="23.1091" stroke="#19191C" stroke-width="1.49091"/>
<path d="M31.4132 46.5117V45.0297H32.7803C33.0447 45.0297 33.2709 44.9775 33.4587 44.8732C33.6535 44.7688 33.8031 44.6227 33.9075 44.4348C34.0118 44.24 34.064 44.0174 34.064 43.7669C34.064 43.5025 34.0118 43.2764 33.9075 43.0885C33.8031 42.8937 33.6535 42.7476 33.4587 42.6502C33.2709 42.5459 33.0447 42.4937 32.7803 42.4937H31.4132V41.0117H32.6969C33.3439 41.0117 33.897 41.1195 34.3562 41.3352C34.8224 41.5509 35.1772 41.8571 35.4207 42.2536C35.6712 42.6502 35.7965 43.1268 35.7965 43.6834V43.8504C35.7965 44.3931 35.6712 44.8662 35.4207 45.2697C35.1772 45.6663 34.8224 45.9725 34.3562 46.1881C33.897 46.4038 33.3439 46.5117 32.6969 46.5117H31.4132ZM29.9103 48.6929V41.0117H31.6219V48.6929H29.9103ZM36.8284 48.6929V42.9737H38.1538V45.4263H38.1225C38.1225 44.6192 38.2929 43.9965 38.6338 43.5582C38.9817 43.1199 39.4827 42.9007 40.1367 42.9007H40.3558V44.3409H39.9384C39.4792 44.3409 39.1244 44.4661 38.8739 44.7166C38.6234 44.9601 38.4982 45.315 38.4982 45.7811V48.6929H36.8284ZM43.9769 48.8912C43.476 48.8912 43.0307 48.8146 42.6411 48.6616C42.2515 48.5015 41.921 48.2859 41.6496 48.0145C41.3852 47.7432 41.1835 47.4335 41.0443 47.0857C40.9052 46.7308 40.8356 46.3586 40.8356 45.969V45.7289C40.8356 45.3324 40.9052 44.9567 41.0443 44.6018C41.1904 44.24 41.3992 43.9235 41.6705 43.6521C41.9488 43.3808 42.2828 43.1686 42.6724 43.0155C43.062 42.8555 43.4969 42.7755 43.9769 42.7755C44.4709 42.7755 44.9092 42.8555 45.2919 43.0155C45.6815 43.1686 46.012 43.3808 46.2834 43.6521C46.5547 43.9235 46.7634 44.24 46.9096 44.6018C47.0557 44.9567 47.1287 45.3324 47.1287 45.7289V45.969C47.1287 46.3586 47.0591 46.7308 46.92 47.0857C46.7808 47.4335 46.5756 47.7432 46.3042 48.0145C46.0399 48.2859 45.7128 48.5015 45.3232 48.6616C44.9336 48.8146 44.4848 48.8912 43.9769 48.8912ZM43.9769 47.4823C44.3039 47.4823 44.5753 47.4127 44.791 47.2735C45.0067 47.1344 45.1702 46.9396 45.2815 46.6891C45.3998 46.4386 45.4589 46.1603 45.4589 45.8542C45.4589 45.5272 45.3998 45.2419 45.2815 44.9984C45.1632 44.7479 44.9927 44.5496 44.7701 44.4035C44.5544 44.2574 44.29 44.1844 43.9769 44.1844C43.6708 44.1844 43.4064 44.2574 43.1838 44.4035C42.9611 44.5496 42.7907 44.7479 42.6724 44.9984C42.5611 45.2419 42.5054 45.5272 42.5054 45.8542C42.5054 46.1603 42.5611 46.4386 42.6724 46.6891C42.7837 46.9396 42.9507 47.1344 43.1733 47.2735C43.396 47.4127 43.6638 47.4823 43.9769 47.4823ZM50.5483 50.968C50.27 50.968 49.9848 50.9576 49.6926 50.9367C49.4003 50.9158 49.1325 50.888 48.889 50.8532V49.4443C49.1325 49.4791 49.4003 49.5069 49.6926 49.5278C49.9917 49.5556 50.2631 49.5695 50.5066 49.5695C50.9588 49.5695 51.3241 49.5173 51.6024 49.413C51.8877 49.3086 52.0964 49.1486 52.2286 48.9329C52.3608 48.7242 52.4269 48.4528 52.4269 48.1189V46.9813L52.7295 46.3134C52.7156 46.8213 52.6147 47.2561 52.4269 47.6179C52.246 47.9797 51.992 48.258 51.665 48.4528C51.338 48.6407 50.9484 48.7346 50.4962 48.7346C50.1065 48.7346 49.7517 48.665 49.4316 48.5259C49.1186 48.3798 48.8507 48.178 48.628 47.9206C48.4054 47.6631 48.2349 47.364 48.1167 47.0231C47.9984 46.6752 47.9392 46.2995 47.9392 45.8959V45.6559C47.9392 45.2523 48.0019 44.8766 48.1271 44.5288C48.2523 44.1809 48.4332 43.8782 48.6698 43.6208C48.9063 43.3634 49.1881 43.1651 49.5151 43.0259C49.8421 42.8798 50.2039 42.8068 50.6005 42.8068C51.0597 42.8068 51.4563 42.9076 51.7903 43.1094C52.1312 43.3112 52.3991 43.6069 52.5939 43.9965C52.7887 44.3861 52.893 44.8558 52.907 45.4054L52.6774 45.468V42.9737H54.0028V48.0145C54.0028 48.7172 53.8775 49.2843 53.6271 49.7156C53.3766 50.147 52.9939 50.4636 52.4791 50.6653C51.9712 50.8671 51.3276 50.968 50.5483 50.968ZM51.018 47.3257C51.2754 47.3257 51.5085 47.27 51.7172 47.1587C51.9259 47.0404 52.0894 46.8735 52.2077 46.6578C52.333 46.4421 52.3956 46.1812 52.3956 45.8751V45.5724C52.3956 45.2732 52.3295 45.0227 52.1973 44.821C52.072 44.6123 51.9051 44.4557 51.6963 44.3513C51.4876 44.24 51.265 44.1844 51.0284 44.1844C50.7501 44.1844 50.5031 44.2505 50.2874 44.3827C50.0717 44.5148 49.9048 44.6992 49.7865 44.9358C49.6682 45.1723 49.6091 45.4506 49.6091 45.7707C49.6091 46.0977 49.6682 46.3795 49.7865 46.616C49.9117 46.8456 50.0787 47.0231 50.2874 47.1483C50.5031 47.2666 50.7466 47.3257 51.018 47.3257ZM55.4487 48.6929V42.9737H56.7741V45.4263H56.7428C56.7428 44.6192 56.9133 43.9965 57.2542 43.5582C57.6021 43.1199 58.103 42.9007 58.757 42.9007H58.9762V44.3409H58.5587C58.0995 44.3409 57.7447 44.4661 57.4942 44.7166C57.2438 44.9601 57.1185 45.315 57.1185 45.7811V48.6929H55.4487ZM63.255 48.6929V47.0022H62.9732V45.1654C62.9732 44.8732 62.9037 44.654 62.7645 44.5079C62.6254 44.3618 62.4027 44.2887 62.0966 44.2887C61.9435 44.2887 61.7417 44.2922 61.4913 44.2992C61.2408 44.3061 60.9834 44.3166 60.719 44.3305C60.4546 44.3444 60.2146 44.3583 59.9989 44.3722V42.9633C60.1589 42.9494 60.3468 42.9355 60.5624 42.9216C60.7781 42.9076 61.0008 42.8972 61.2304 42.8903C61.46 42.8833 61.6756 42.8798 61.8774 42.8798C62.4619 42.8798 62.9524 42.9633 63.3489 43.1303C63.7525 43.2973 64.0586 43.5512 64.2673 43.8921C64.4761 44.2261 64.5804 44.6575 64.5804 45.1863V48.6929H63.255ZM61.4287 48.839C61.0182 48.839 60.6564 48.7659 60.3433 48.6198C60.0371 48.4737 59.7971 48.265 59.6232 47.9936C59.4492 47.7153 59.3623 47.3848 59.3623 47.0022C59.3623 46.5847 59.4701 46.2438 59.6858 45.9794C59.9015 45.7081 60.2041 45.5098 60.5937 45.3845C60.9834 45.2523 61.4321 45.1863 61.94 45.1863H63.1611V46.1151H61.9296C61.6374 46.1151 61.4113 46.1881 61.2512 46.3343C61.0982 46.4734 61.0216 46.6647 61.0216 46.9083C61.0216 47.1379 61.0982 47.3257 61.2512 47.4718C61.4113 47.611 61.6374 47.6805 61.9296 47.6805C62.1175 47.6805 62.2844 47.6492 62.4305 47.5866C62.5836 47.517 62.7088 47.4022 62.8063 47.2422C62.9037 47.0822 62.9593 46.8595 62.9732 46.5743L63.3698 46.9917C63.335 47.3883 63.2376 47.7223 63.0776 47.9936C62.9245 48.265 62.7088 48.4737 62.4305 48.6198C62.1592 48.7659 61.8252 48.839 61.4287 48.839ZM65.9972 48.6929V42.9737H67.3226V45.4367H67.2287C67.2287 44.8523 67.3017 44.3653 67.4478 43.9756C67.5939 43.586 67.8131 43.2938 68.1053 43.099C68.3975 42.8972 68.7559 42.7963 69.1803 42.7963H69.2533C69.6847 42.7963 70.043 42.8972 70.3283 43.099C70.6205 43.2938 70.8396 43.586 70.9858 43.9756C71.1388 44.3653 71.2154 44.8523 71.2154 45.4367H70.8083C70.8083 44.8523 70.8814 44.3653 71.0275 43.9756C71.1806 43.586 71.4032 43.2938 71.6954 43.099C71.9876 42.8972 72.346 42.7963 72.7704 42.7963H72.8434C73.2748 42.7963 73.6366 42.8972 73.9288 43.099C74.228 43.2938 74.4541 43.586 74.6072 43.9756C74.7602 44.3653 74.8368 44.8523 74.8368 45.4367V48.6929H73.167V45.3428C73.167 45.0297 73.0835 44.7758 72.9165 44.5809C72.7565 44.3861 72.5269 44.2887 72.2277 44.2887C71.9285 44.2887 71.6919 44.3896 71.518 44.5914C71.3441 44.7862 71.2571 45.0471 71.2571 45.3741V48.6929H69.5768V45.3428C69.5768 45.0297 69.4934 44.7758 69.3264 44.5809C69.1663 44.3861 68.9402 44.2887 68.648 44.2887C68.3419 44.2887 68.1018 44.3896 67.9279 44.5914C67.754 44.7862 67.667 45.0471 67.667 45.3741V48.6929H65.9972ZM79.7147 48.6929V47.0022H79.4329V45.1654C79.4329 44.8732 79.3634 44.654 79.2242 44.5079C79.0851 44.3618 78.8624 44.2887 78.5563 44.2887C78.4032 44.2887 78.2014 44.2922 77.951 44.2992C77.7005 44.3061 77.4431 44.3166 77.1787 44.3305C76.9143 44.3444 76.6743 44.3583 76.4586 44.3722V42.9633C76.6186 42.9494 76.8064 42.9355 77.0221 42.9216C77.2378 42.9076 77.4605 42.8972 77.6901 42.8903C77.9197 42.8833 78.1353 42.8798 78.3371 42.8798C78.9215 42.8798 79.4121 42.9633 79.8086 43.1303C80.2122 43.2973 80.5183 43.5512 80.727 43.8921C80.9358 44.2261 81.0401 44.6575 81.0401 45.1863V48.6929H79.7147ZM77.8883 48.839C77.4779 48.839 77.1161 48.7659 76.803 48.6198C76.4968 48.4737 76.2568 48.265 76.0829 47.9936C75.9089 47.7153 75.8219 47.3848 75.8219 47.0022C75.8219 46.5847 75.9298 46.2438 76.1455 45.9794C76.3612 45.7081 76.6638 45.5098 77.0534 45.3845C77.4431 45.2523 77.8918 45.1863 78.3997 45.1863H79.6208V46.1151H78.3893C78.0971 46.1151 77.871 46.1881 77.7109 46.3343C77.5579 46.4734 77.4813 46.6647 77.4813 46.9083C77.4813 47.1379 77.5579 47.3257 77.7109 47.4718C77.871 47.611 78.0971 47.6805 78.3893 47.6805C78.5771 47.6805 78.7441 47.6492 78.8902 47.5866C79.0433 47.517 79.1685 47.4022 79.2659 47.2422C79.3634 47.0822 79.419 46.8595 79.4329 46.5743L79.8295 46.9917C79.7947 47.3883 79.6973 47.7223 79.5373 47.9936C79.3842 48.265 79.1685 48.4737 78.8902 48.6198C78.6189 48.7659 78.2849 48.839 77.8883 48.839ZM84.8155 48.8807C84.4119 48.8807 84.0432 48.8077 83.7092 48.6616C83.3822 48.5155 83.097 48.3137 82.8534 48.0563C82.6099 47.7919 82.4221 47.4823 82.2899 47.1274C82.1646 46.7726 82.102 46.3899 82.102 45.9794V45.7394C82.102 45.3289 82.1612 44.9462 82.2794 44.5914C82.4047 44.2365 82.5821 43.9269 82.8117 43.6625C83.0483 43.3912 83.33 43.1825 83.657 43.0364C83.9841 42.8833 84.3493 42.8068 84.7529 42.8068C85.2121 42.8068 85.6086 42.9076 85.9426 43.1094C86.2766 43.3042 86.5375 43.5964 86.7253 43.9861C86.9132 44.3687 87.0176 44.8419 87.0384 45.4054L86.6001 44.9984V41.0743H88.2804V48.6929H86.9549V46.3238H87.1845C87.1637 46.8665 87.0489 47.3292 86.8401 47.7119C86.6384 48.0945 86.3635 48.3867 86.0157 48.5885C85.6678 48.7833 85.2677 48.8807 84.8155 48.8807ZM85.2329 47.4823C85.4904 47.4823 85.7234 47.4266 85.9322 47.3153C86.1479 47.197 86.3183 47.0265 86.4436 46.8039C86.5758 46.5812 86.6418 46.3134 86.6418 46.0003V45.6141C86.6418 45.308 86.5758 45.0506 86.4436 44.8419C86.3114 44.6331 86.1374 44.4731 85.9217 44.3618C85.7061 44.2505 85.473 44.1948 85.2225 44.1948C84.9442 44.1948 84.6937 44.2679 84.4711 44.414C84.2554 44.5531 84.0849 44.7479 83.9597 44.9984C83.8345 45.2419 83.7718 45.5272 83.7718 45.8542C83.7718 46.1881 83.8345 46.4769 83.9597 46.7204C84.0849 46.9639 84.2589 47.1518 84.4815 47.284C84.7042 47.4162 84.9546 47.4823 85.2329 47.4823ZM92.5814 48.8912C92.0805 48.8912 91.6352 48.8146 91.2456 48.6616C90.856 48.5015 90.5255 48.2859 90.2541 48.0145C89.9897 47.7432 89.788 47.4335 89.6488 47.0857C89.5097 46.7308 89.4401 46.3586 89.4401 45.969V45.7289C89.4401 45.3324 89.5097 44.9567 89.6488 44.6018C89.7949 44.24 90.0037 43.9235 90.275 43.6521C90.5533 43.3808 90.8873 43.1686 91.2769 43.0155C91.6665 42.8555 92.1014 42.7755 92.5814 42.7755C93.0754 42.7755 93.5138 42.8555 93.8964 43.0155C94.286 43.1686 94.6165 43.3808 94.8879 43.6521C95.1592 43.9235 95.368 44.24 95.5141 44.6018C95.6602 44.9567 95.7332 45.3324 95.7332 45.7289V45.969C95.7332 46.3586 95.6636 46.7308 95.5245 47.0857C95.3853 47.4335 95.1801 47.7432 94.9087 48.0145C94.6444 48.2859 94.3174 48.5015 93.9277 48.6616C93.5381 48.8146 93.0893 48.8912 92.5814 48.8912ZM92.5814 47.4823C92.9084 47.4823 93.1798 47.4127 93.3955 47.2735C93.6112 47.1344 93.7747 46.9396 93.886 46.6891C94.0043 46.4386 94.0634 46.1603 94.0634 45.8542C94.0634 45.5272 94.0043 45.2419 93.886 44.9984C93.7677 44.7479 93.5972 44.5496 93.3746 44.4035C93.1589 44.2574 92.8945 44.1844 92.5814 44.1844C92.2753 44.1844 92.0109 44.2574 91.7883 44.4035C91.5656 44.5496 91.3952 44.7479 91.2769 44.9984C91.1656 45.2419 91.1099 45.5272 91.1099 45.8542C91.1099 46.1603 91.1656 46.4386 91.2769 46.6891C91.3882 46.9396 91.5552 47.1344 91.7778 47.2735C92.0005 47.4127 92.2683 47.4823 92.5814 47.4823ZM96.8986 48.6929V42.9737H98.224V45.4263H98.1927C98.1927 44.6192 98.3632 43.9965 98.7041 43.5582C99.052 43.1199 99.5529 42.9007 100.207 42.9007H100.426V44.3409H100.009C99.5494 44.3409 99.1946 44.4661 98.9441 44.7166C98.6936 44.9601 98.5684 45.315 98.5684 45.7811V48.6929H96.8986Z" fill="#FEFEFE"/>
</svg>
