<svg width="47" height="36" viewBox="0 0 47 36" fill="none" xmlns="http://www.w3.org/2000/svg">
<path id="Vector" fill-rule="evenodd" clip-rule="evenodd" d="M0 32.4268L0 29.5326L0 23.7557L0 12.2328L0 6.45977L0 3.57327C0 2.80772 0.304115 2.07352 0.845439 1.5322C1.38676 0.990871 2.12096 0.686764 2.8865 0.686764H20.1901C20.7596 0.685684 21.3166 0.853062 21.7912 1.16784L32.6252 8.38025H43.2976C44.0631 8.38025 44.7973 8.68437 45.3386 9.22569C45.88 9.76702 46.1841 10.5012 46.1841 11.2668V24.7294C46.1841 25.495 45.88 26.2292 45.3386 26.7705C44.7973 27.3118 44.0631 27.6159 43.2976 27.6159L32.6252 27.6159L21.7912 34.8283C21.3171 35.1445 20.76 35.3132 20.1901 35.3133H2.8865C2.12096 35.3133 1.38676 35.0092 0.845439 34.4678C0.304115 33.9265 0 33.1923 0 32.4268Z" fill="#FEFEFE"/>
</svg>
