<svg width="62" height="36" viewBox="0 0 62 36" fill="none" xmlns="http://www.w3.org/2000/svg">
<path id="Vector" d="M0.398926 11.2668C0.398926 10.5012 0.703038 9.76701 1.24436 9.22569C1.78569 8.68436 2.51988 8.38025 3.28543 8.38025H13.9578L24.7918 1.16784C25.2659 0.8517 25.823 0.682968 26.3929 0.682907H43.6965C44.462 0.682907 45.1962 0.987019 45.7375 1.52834C46.2789 2.06967 46.583 2.80386 46.583 3.56941V8.39565H59.1066C59.833 8.40336 60.5299 8.68473 61.058 9.18361C61.5862 9.68249 61.9068 10.3622 61.9558 11.087C62.0049 11.8119 61.7788 12.5286 61.3227 13.0941C60.8666 13.6596 60.2141 14.0323 59.4953 14.1379L59.1066 14.1648L46.583 14.1687L46.5791 21.8468H59.1181C59.8491 21.8479 60.5524 22.1265 61.0861 22.626C61.6198 23.1256 61.944 23.8091 61.9933 24.5384C62.0427 25.2678 61.8134 25.9887 61.3519 26.5556C60.8904 27.1225 60.231 27.4932 59.5068 27.5928L59.1181 27.6159L46.5791 27.6198L46.583 32.4306C46.583 33.1962 46.2789 33.9303 45.7375 34.4717C45.1962 35.013 44.462 35.3171 43.6965 35.3171H26.3929C25.8226 35.3159 25.2655 35.1458 24.7918 34.8283L13.9578 27.6159H3.28543C2.51988 27.6159 1.78569 27.3118 1.24436 26.7705C0.703038 26.2292 0.398926 25.495 0.398926 24.7294L0.398926 11.2668Z" fill="#FEFEFE"/>
</svg>
