<svg width="26" height="29" viewBox="0 0 26 29" fill="none" xmlns="http://www.w3.org/2000/svg">
<path d="M17.6454 27.0865V22.3887C17.69 21.8099 17.6134 21.228 17.4207 20.6818C17.228 20.1355 16.9236 19.6374 16.5278 19.2205C20.2611 18.7956 24.1847 17.3511 24.1847 10.7232C24.1844 9.02844 23.5459 7.39864 22.4013 6.17115C22.9433 4.68839 22.9049 3.04945 22.2943 1.59478C22.2943 1.59478 20.8913 1.16992 17.6454 3.39134C14.9203 2.6373 12.0478 2.6373 9.32271 3.39134C6.07686 1.16992 4.67388 1.59478 4.67388 1.59478C4.06321 3.04945 4.02488 4.68839 4.56688 6.17115C3.41374 7.40774 2.77455 9.05228 2.78344 10.7597C2.78344 17.339 6.707 18.7835 10.4403 19.2569C10.0492 19.6696 9.74749 20.1617 9.55493 20.7013C9.36237 21.2409 9.28325 21.8159 9.32271 22.3887V27.0865M9.32271 23.4448C3.37792 25.2657 3.37792 20.4101 1 19.8032L9.32271 23.4448Z" stroke="#3A95E9" stroke-width="2" stroke-linecap="round" stroke-linejoin="round"/>
</svg>
