<svg width="263" height="45" viewBox="0 0 263 45" fill="none" xmlns="http://www.w3.org/2000/svg">
<g clip-path="url(#clip0)">
<path d="M92.9666 21.4809L100.899 0.568726H104.975L112.907 21.4829H108.518L106.699 16.183H98.923L97.1037 21.4829H92.9666V21.4809ZM100.021 12.9214H105.571L102.812 4.80158L100.021 12.9214Z" fill="white"/>
<path d="M115.102 26.5931L116.763 23.865C117.871 24.6174 119.304 24.9946 121.059 24.9946C122.02 24.9946 122.825 24.6975 123.472 24.1015C124.119 23.5055 124.443 22.6945 124.443 21.6724V20.0738C123.941 20.4705 123.392 20.8067 122.798 21.0764C122.202 21.348 121.412 21.4848 120.431 21.4848C119.03 21.4848 117.824 21.176 116.81 20.5604C115.796 19.9449 115.022 19.0967 114.49 18.0199C113.957 16.9432 113.691 15.7159 113.691 14.3362C113.691 12.8725 114.031 11.5456 114.709 10.3535C115.387 9.16143 116.351 8.21559 117.594 7.51597C118.837 6.81636 120.306 6.4646 121.999 6.4646C123.273 6.4646 124.455 6.57013 125.542 6.77728C126.628 6.98638 127.496 7.20525 128.145 7.43585V21.733C128.145 23.0912 127.842 24.252 127.236 25.2135C126.63 26.1749 125.798 26.9019 124.742 27.3924C123.687 27.8829 122.479 28.1292 121.121 28.1292C119.595 28.1292 118.383 27.9924 117.484 27.7207C116.587 27.4491 115.792 27.0739 115.102 26.5931ZM124.447 15.241V9.97439C124.154 9.87082 123.851 9.79069 123.539 9.73988C123.226 9.68712 122.733 9.66172 122.065 9.66172C121.063 9.66172 120.22 9.87668 119.54 10.3047C118.86 10.7326 118.344 11.2915 117.989 11.9814C117.633 12.6712 117.455 13.4236 117.455 14.2385C117.455 15.3681 117.736 16.3178 118.301 17.0917C118.866 17.8656 119.775 18.2525 121.029 18.2525C123.308 18.2525 124.447 17.248 124.447 15.241Z" fill="white"/>
<path d="M143.604 17.0917L145.611 19.3489C145.549 19.4114 145.377 19.5834 145.094 19.8667C144.812 20.1482 144.404 20.453 143.87 20.7755C143.337 21.0999 142.659 21.3813 141.832 21.6216C141.005 21.862 140.018 21.9832 138.869 21.9832C137.302 21.9832 135.938 21.6431 134.777 20.965C133.616 20.2869 132.714 19.3391 132.065 18.1275C131.416 16.9159 131.094 15.5245 131.094 13.9572C131.094 12.5149 131.412 11.2134 132.049 10.0526C132.686 8.8918 133.564 7.97332 134.683 7.29324C135.801 6.61513 137.093 6.27509 138.555 6.27509C139.913 6.27509 141.052 6.51546 141.973 6.9962C142.893 7.47694 143.634 8.11988 144.199 8.92502C144.763 9.73017 145.17 10.633 145.422 11.6375C145.672 12.64 145.799 13.666 145.799 14.7095V15.243H134.824C134.824 15.9544 135.027 16.5758 135.436 17.1093C135.844 17.6428 136.36 18.061 136.987 18.3639C137.615 18.6668 138.252 18.8193 138.901 18.8193C139.862 18.8193 140.656 18.7098 141.283 18.491C141.91 18.2721 142.412 18.0259 142.788 17.7542C143.165 17.4787 143.436 17.2598 143.604 17.0917ZM133.444 4.54951L136.706 0.0977783H140.187L143.448 4.54951H140.187L138.432 2.16731L136.708 4.54951H133.444ZM134.793 12.5775H142.004C142.004 12.0752 141.873 11.5789 141.611 11.0884C141.349 10.5978 140.968 10.1894 140.466 9.86501C139.964 9.54061 139.327 9.37841 138.553 9.37841C137.738 9.37841 137.052 9.54061 136.499 9.86501C135.944 10.1894 135.522 10.5978 135.229 11.0884C134.939 11.5789 134.793 12.0752 134.793 12.5775Z" fill="white"/>
<path d="M148.652 21.4809V6.77532H152.195L152.289 8.43642C152.666 8.01821 153.209 7.58437 153.919 7.1349C154.63 6.68543 155.56 6.46069 156.71 6.46069C158.529 6.46069 159.924 7.00983 160.895 8.10615C161.867 9.20443 162.353 10.6818 162.353 12.5423V21.4789H158.654V12.5774C158.654 11.657 158.398 10.9359 157.886 10.4141C157.374 9.89232 156.709 9.63045 155.895 9.63045C154.871 9.63045 154.024 10.0076 153.354 10.76C152.686 11.5124 152.352 12.4328 152.352 13.5194V21.4828H148.652V21.4809Z" fill="white"/>
<path d="M176.684 17.1542L178.878 19.5364C178.188 20.2693 177.368 20.8536 176.416 21.2913C175.464 21.731 174.372 21.9499 173.139 21.9499C171.466 21.9499 170.039 21.6216 168.859 20.963C167.679 20.3044 166.78 19.3859 166.162 18.2036C165.545 17.0233 165.238 15.6592 165.238 14.1115C165.238 12.6908 165.572 11.3834 166.24 10.1913C166.909 8.99922 167.835 8.04947 169.015 7.33813C170.196 6.62679 171.571 6.27112 173.139 6.27112C174.331 6.27112 175.417 6.48608 176.4 6.91406C177.383 7.34204 178.22 7.92244 178.91 8.65332L176.559 11.0355C176.162 10.5548 175.675 10.1796 175.101 9.90598C174.526 9.63434 173.874 9.49755 173.141 9.49755C172.201 9.49755 171.421 9.71642 170.805 10.1561C170.188 10.5958 169.729 11.1645 169.426 11.8641C169.123 12.5637 168.97 13.3122 168.97 14.1056C168.97 14.8385 169.121 15.5596 169.426 16.2689C169.729 16.9803 170.188 17.5646 170.805 18.0258C171.421 18.485 172.201 18.7156 173.141 18.7156C173.872 18.7156 174.546 18.5749 175.163 18.2916C175.779 18.016 176.285 17.635 176.684 17.1542Z" fill="white"/>
<path d="M181.386 4.45568V0.568726H185.337V4.45764H181.386V4.45568ZM181.513 21.4809V6.77535H185.212V21.4809H181.513Z" fill="white"/>
<path d="M197.784 21.481L197.69 20.1013C197.293 20.582 196.681 21.01 195.855 21.3872C195.028 21.7644 194.125 21.952 193.142 21.952C192.347 21.952 191.559 21.7839 190.776 21.4497C189.992 21.1156 189.343 20.5938 188.831 19.8824C188.319 19.1711 188.063 18.2722 188.063 17.1856C188.063 15.5128 188.659 14.2171 189.851 13.2967C191.043 12.3762 192.599 11.917 194.524 11.917C194.88 11.917 195.302 11.9287 195.794 11.9483C196.285 11.9698 196.918 12.001 197.692 12.0421V11.6981C197.692 10.9672 197.399 10.3927 196.814 9.9745C196.228 9.55629 195.466 9.34719 194.526 9.34719C193.48 9.34719 192.644 9.48399 192.017 9.75563C191.389 10.0273 190.836 10.3204 190.356 10.6331L188.663 8.12385C189.06 7.83071 189.531 7.54344 190.074 7.26203C190.617 6.98062 191.286 6.74416 192.081 6.55655C192.875 6.36895 193.858 6.27515 195.028 6.27515C196.91 6.27515 198.415 6.77152 199.542 7.76427C200.672 8.75702 201.235 10.037 201.235 11.6043V21.481H197.784ZM197.69 16.2769V14.8347C197.209 14.7936 196.687 14.7624 196.122 14.7409C195.558 14.7213 195.13 14.7096 194.837 14.7096C193.645 14.7096 192.808 14.9441 192.327 15.4151C191.847 15.886 191.606 16.4234 191.606 17.0293C191.606 17.6566 191.831 18.1471 192.28 18.5027C192.73 18.8584 193.394 19.0363 194.272 19.0363C194.856 19.0363 195.405 18.9112 195.917 18.6591C196.429 18.4089 196.853 18.0748 197.188 17.6566C197.524 17.2384 197.69 16.7791 197.69 16.2769Z" fill="white"/>
<path d="M208.883 21.4809L203.46 0.568726H207.787L211.205 16.2143L215.25 1.16477H218.825L222.901 16.2143L226.288 0.568726H230.427L224.939 21.4829H220.8L216.911 7.65475L212.96 21.4829H208.883V21.4809Z" fill="white"/>
<path d="M242.967 17.0918L244.974 19.3489C244.912 19.4115 244.74 19.5834 244.456 19.8668C244.175 20.1482 243.766 20.4531 243.233 20.7755C242.699 21.0999 242.021 21.3813 241.195 21.6217C240.368 21.8621 239.381 21.9832 238.232 21.9832C236.665 21.9832 235.301 21.6432 234.14 20.9651C232.979 20.287 232.076 19.3392 231.427 18.1275C230.779 16.9159 230.456 15.5245 230.456 13.9572C230.456 12.515 230.775 11.2135 231.412 10.0527C232.049 8.89186 232.926 7.97337 234.046 7.2933C235.164 6.61518 236.456 6.27515 237.919 6.27515C239.278 6.27515 240.417 6.51552 241.337 6.99626C242.258 7.477 242.998 8.11994 243.563 8.92508C244.128 9.73022 244.534 10.6331 244.787 11.6375C245.037 12.6401 245.164 13.666 245.164 14.7096V15.2431H234.189C234.189 15.9544 234.392 16.5759 234.8 17.1094C235.209 17.6429 235.725 18.0611 236.352 18.364C236.979 18.6669 237.616 18.8193 238.265 18.8193C239.227 18.8193 240.02 18.7099 240.647 18.491C241.275 18.2722 241.777 18.0259 242.152 17.7543C242.527 17.4787 242.799 17.2599 242.967 17.0918ZM234.156 12.5775H241.367C241.367 12.0753 241.236 11.5789 240.974 11.0884C240.712 10.5979 240.331 10.1895 239.829 9.86506C239.326 9.54066 238.689 9.37846 237.915 9.37846C237.101 9.37846 236.415 9.54066 235.862 9.86506C235.307 10.1895 234.884 10.5979 234.591 11.0884C234.302 11.5789 234.156 12.0753 234.156 12.5775Z" fill="white"/>
<path d="M248.015 21.0119V0.568726H251.714V7.77983C251.964 7.52968 252.451 7.24632 253.172 6.93364C253.893 6.62097 254.745 6.46268 255.728 6.46268C257.149 6.46268 258.363 6.80271 259.365 7.48083C260.368 8.1609 261.138 9.06375 261.669 10.1933C262.201 11.3228 262.468 12.5755 262.468 13.9552C262.468 15.4189 262.128 16.7556 261.45 17.9692C260.77 19.1827 259.815 20.154 258.581 20.8849C257.348 21.6158 255.875 21.9832 254.161 21.9832C252.885 21.9832 251.71 21.8776 250.634 21.6705C249.557 21.4614 248.683 21.2405 248.015 21.0119ZM251.714 12.9214V18.4714C252.007 18.5554 252.31 18.6277 252.623 18.6903C252.936 18.7528 253.428 18.7841 254.096 18.7841C255.099 18.7841 255.941 18.5593 256.621 18.1099C257.299 17.6604 257.817 17.0761 258.173 16.355C258.529 15.6339 258.706 14.8659 258.706 14.0509C258.706 13.2986 258.581 12.5872 258.329 11.9189C258.079 11.2505 257.692 10.7112 257.168 10.3047C256.647 9.89625 255.967 9.69301 255.13 9.69301C254.022 9.69301 253.176 9.98028 252.59 10.5548C252.007 11.1294 251.714 11.9189 251.714 12.9214Z" fill="white"/>
<path d="M92.6812 44.7617V33.4017H99.8336V34.8498H94.3149V38.1544H98.4696V39.6181H94.3149V43.296H100.242V44.7597H92.6812V44.7617Z" fill="white"/>
<path d="M101.368 43.7904L102.304 42.7684C102.587 43.0517 102.927 43.2784 103.326 43.4504C103.723 43.6204 104.184 43.7064 104.705 43.7064C105.216 43.7064 105.642 43.6243 105.984 43.4602C106.324 43.296 106.494 43.0381 106.494 42.6843C106.494 42.4342 106.425 42.2368 106.288 42.0883C106.152 41.9417 105.919 41.8069 105.591 41.6877C105.261 41.5685 104.807 41.4415 104.229 41.3047C103.82 41.203 103.422 41.0643 103.037 40.8865C102.65 40.7106 102.333 40.4663 102.083 40.1536C101.833 39.8409 101.708 39.4364 101.708 38.9361C101.708 38.4261 101.858 37.9942 102.159 37.6424C102.46 37.2907 102.849 37.0269 103.326 36.851C103.803 36.6751 104.303 36.5872 104.825 36.5872C105.495 36.5872 106.073 36.6751 106.562 36.851C107.051 37.0269 107.471 37.275 107.822 37.5916L106.988 38.6469C106.75 38.4319 106.451 38.2502 106.093 38.1017C105.735 37.9551 105.317 37.8809 104.84 37.8809C104.352 37.8809 103.961 37.961 103.666 38.1193C103.371 38.2776 103.222 38.5394 103.222 38.9029C103.222 39.243 103.422 39.497 103.818 39.6612C104.215 39.8253 104.727 39.9817 105.35 40.1302C105.851 40.2435 106.302 40.394 106.705 40.5816C107.107 40.7692 107.432 41.0213 107.676 41.3398C107.92 41.6584 108.041 42.0727 108.041 42.5827C108.041 43.1045 107.885 43.5442 107.572 43.9018C107.26 44.2595 106.853 44.5311 106.355 44.7187C105.855 44.9063 105.315 45.0001 104.737 45.0001C103.24 45.0001 102.116 44.5975 101.368 43.7904Z" fill="white"/>
<path d="M115.774 42.6843L116.71 43.6712C116.359 44.0679 115.921 44.3904 115.399 44.6327C114.877 44.877 114.281 44.9982 113.611 44.9982C112.759 44.9982 112.024 44.8164 111.405 44.4529C110.785 44.0894 110.306 43.5931 109.966 42.9618C109.626 42.3326 109.456 41.6076 109.456 40.7907C109.456 40.0188 109.632 39.3153 109.984 38.6782C110.336 38.0431 110.826 37.535 111.457 37.1539C112.087 36.7728 112.806 36.5833 113.611 36.5833C114.281 36.5833 114.871 36.7025 115.382 36.9409C115.892 37.1793 116.329 37.5037 116.693 37.9121L115.688 38.8834C115.45 38.5883 115.161 38.3557 114.821 38.1857C114.481 38.0157 114.076 37.9297 113.611 37.9297C113.066 37.9297 112.597 38.0626 112.206 38.3303C111.815 38.5981 111.516 38.9459 111.311 39.3778C111.106 39.8097 111.004 40.2806 111.004 40.7907C111.004 41.2793 111.11 41.7424 111.319 42.1782C111.528 42.616 111.827 42.9697 112.214 43.2433C112.599 43.5149 113.066 43.6517 113.611 43.6517C114.076 43.6517 114.494 43.5638 114.864 43.3879C115.233 43.2139 115.536 42.9794 115.774 42.6843Z" fill="white"/>
<path d="M121.565 45.0001C120.758 45.0001 120.038 44.8105 119.401 44.4295C118.766 44.0484 118.268 43.5383 117.91 42.8974C117.553 42.2564 117.373 41.5548 117.373 40.7946C117.373 40.0227 117.553 39.3192 117.91 38.6821C118.268 38.047 118.764 37.5389 119.401 37.1578C120.036 36.7767 120.758 36.5872 121.565 36.5872C122.37 36.5872 123.089 36.7767 123.718 37.1578C124.347 37.5389 124.846 38.047 125.209 38.6821C125.573 39.3172 125.754 40.0227 125.754 40.7946C125.754 41.5548 125.573 42.2564 125.209 42.8974C124.846 43.5383 124.349 44.0504 123.718 44.4295C123.089 44.8105 122.372 45.0001 121.565 45.0001ZM121.565 43.6712C122.122 43.6712 122.595 43.5325 122.987 43.253C123.378 42.9755 123.679 42.614 123.89 42.1723C124.099 41.7287 124.205 41.2695 124.205 40.7927C124.205 40.3158 124.099 39.8566 123.89 39.413C123.679 38.9694 123.376 38.6098 122.979 38.3323C122.583 38.0548 122.112 37.9141 121.567 37.9141C121.021 37.9141 120.55 38.0528 120.154 38.3323C119.757 38.6098 119.452 38.9674 119.243 39.4052C119.032 39.8429 118.928 40.3061 118.928 40.7927C118.928 41.2695 119.036 41.7268 119.253 42.1645C119.468 42.6023 119.773 42.9618 120.163 43.2452C120.552 43.5305 121.021 43.6712 121.565 43.6712Z" fill="white"/>
<path d="M127.474 44.7617V33.4017H129.006V44.7617H127.474Z" fill="white"/>
<path d="M136.092 44.7617L136.059 43.808C135.776 44.195 135.387 44.4861 134.893 44.6855C134.398 44.8848 133.902 44.9825 133.401 44.9825C132.97 44.9825 132.542 44.9024 132.116 44.7441C131.69 44.5858 131.338 44.3239 131.06 43.9605C130.783 43.597 130.642 43.1143 130.642 42.5124C130.642 41.6603 130.943 40.9803 131.545 40.4682C132.147 39.9582 133.003 39.7022 134.117 39.7022C134.367 39.7022 134.625 39.71 134.893 39.7276C135.158 39.7452 135.401 39.7608 135.616 39.7784C135.831 39.796 135.973 39.8097 136.042 39.8214V39.5322C136.042 38.942 135.862 38.5179 135.504 38.2639C135.147 38.0079 134.662 37.8808 134.048 37.8808C133.458 37.8808 132.983 37.9629 132.626 38.1271C132.268 38.2912 131.969 38.4593 131.731 38.6293L131.015 37.5897C131.299 37.363 131.692 37.1422 132.19 36.9252C132.69 36.7103 133.364 36.6008 134.216 36.6008C135.227 36.6008 136.028 36.8471 136.618 37.3415C137.208 37.8359 137.503 38.5375 137.503 39.4442V44.0601C137.503 44.1402 137.503 44.236 137.503 44.3493C137.503 44.4627 137.509 44.5995 137.521 44.7578H136.092V44.7617ZM136.042 41.9183V41.0154C135.985 40.992 135.854 40.9724 135.651 40.9568C135.446 40.9392 135.217 40.9236 134.961 40.906C134.705 40.8884 134.459 40.8806 134.22 40.8806C133.652 40.8806 133.218 40.9627 132.917 41.1268C132.616 41.291 132.411 41.4962 132.303 41.7404C132.196 41.9847 132.141 42.2251 132.141 42.4635C132.141 42.8837 132.288 43.2081 132.585 43.4348C132.88 43.6615 133.288 43.7748 133.81 43.7748C134.207 43.7748 134.574 43.6869 134.908 43.511C135.242 43.3351 135.516 43.1045 135.725 42.8211C135.936 42.5358 136.042 42.2349 136.042 41.9183Z" fill="white"/>
<path d="M141.134 44.7616H139.602V37.6091C139.602 37.529 139.602 37.4391 139.602 37.3375C139.602 37.2359 139.596 37.0717 139.585 36.8431H141.048L141.099 38.1212C141.224 37.9394 141.398 37.7401 141.619 37.5251C141.84 37.3101 142.121 37.1225 142.461 36.9623C142.801 36.804 143.21 36.7239 143.687 36.7239C143.857 36.7239 144.013 36.7356 144.156 36.7571C144.298 36.7805 144.431 36.8138 144.556 36.8587L144.216 38.2892C144.011 38.2091 143.751 38.17 143.432 38.17C143.001 38.17 142.612 38.2814 142.266 38.5022C141.92 38.7231 141.644 39.0162 141.439 39.3797C141.234 39.7432 141.132 40.1457 141.132 40.5893V44.7616H141.134Z" fill="white"/>
<path d="M15.839 7.95175L37.8319 30.3804L35.6979 36.7805L23.7419 24.6213L18.9306 19.7279L16.7595 26.2394L12.0419 40.3919L5.70048 40.3372L15.839 7.95175ZM13.9258 0L0 44.488L15.0632 44.6209L20.748 27.5683L37.5153 44.6209L42.6315 29.2743L13.9258 0Z" fill="#307FE2"/>
<path d="M66.8679 4.22895L73.2093 4.28367L63.0727 36.6672L41.0799 14.2385L43.2139 7.83841L55.1698 19.9976L59.9812 24.891L62.1523 18.3795L66.8679 4.22895ZM63.8486 0L58.1637 17.0526L41.3964 0L36.2803 15.3465L64.984 44.6189L78.9098 0.132887L63.8486 0Z" fill="#F2B025"/>
</g>
<defs>
<clipPath id="clip0">
<rect width="262.47" height="45" fill="white"/>
</clipPath>
</defs>
</svg>
