<svg width="661" height="1104" viewBox="0 0 661 1104" fill="none" xmlns="http://www.w3.org/2000/svg">
<g opacity="0.2">
<path d="M220.927 601.083C220.201 601.122 219.423 600.642 219.489 600.196L249.859 393.12C249.893 392.89 250.155 392.733 250.532 392.717L320.66 389.793C321.382 389.763 322.144 390.238 322.08 390.68L305.895 502.943L299.461 547.552C299.397 547.994 300.159 548.469 300.881 548.439L372.885 545.437L532.051 538.79C532.473 538.772 532.95 538.934 533.236 539.191L579.314 580.667C579.763 581.071 579.551 581.52 578.893 581.556L220.927 601.083ZM164.166 634.586C164.1 635.033 164.878 635.513 165.604 635.473L658.419 608.58C659.077 608.544 659.289 608.095 658.84 607.691L547.51 507.449C547.223 507.191 546.746 507.03 546.324 507.047L355.95 514.993C355.228 515.023 354.466 514.547 354.53 514.106L377.149 357.234C377.213 356.792 376.451 356.317 375.729 356.347L204.539 363.491C204.161 363.507 203.899 363.664 203.865 363.895L164.166 634.586Z" fill="url(#paint0_linear)"/>
</g>
<defs>
<linearGradient id="paint0_linear" x1="108.153" y1="585.946" x2="340.84" y2="323.917" gradientUnits="userSpaceOnUse">
<stop stop-color="#307FE2"/>
<stop offset="1" stop-color="#307FE2" stop-opacity="0"/>
</linearGradient>
</defs>
</svg>
