<svg width="423" height="996" viewBox="0 0 423 996" fill="none" xmlns="http://www.w3.org/2000/svg">
<g opacity="0.25">
<path d="M86.4807 442.318C85.8724 441.574 85.6589 440.375 86.1137 440.258L276.438 391.216C276.622 391.169 276.877 391.322 277.121 391.627L333.677 462.086C334.277 462.834 334.482 464.015 334.033 464.132L231.182 490.975L190.426 501.609C189.976 501.726 190.181 502.907 190.782 503.655L248.743 575.866L377.235 735.932C377.572 736.351 377.817 736.966 377.833 737.432L380.029 800.344C380.053 801.016 379.602 801.09 379.115 800.494L86.4807 442.318ZM15.5858 397.033C15.1309 397.15 15.3444 398.349 15.9527 399.094L418.848 892.209C419.335 892.805 419.785 892.731 419.761 892.059L414.469 739.737C414.453 739.271 414.208 738.656 413.871 738.236L260.352 546.986C259.751 546.238 259.546 545.058 259.996 544.94L403.603 507.463C404.052 507.346 403.847 506.165 403.247 505.418L265.105 333.324C264.861 333.019 264.606 332.866 264.422 332.913L15.5858 397.033Z" fill="url(#paint0_linear)"/>
</g>
<defs>
<linearGradient id="paint0_linear" x1="11.2806" y1="321.031" x2="396.13" y2="304.799" gradientUnits="userSpaceOnUse">
<stop stop-color="#2E7AD9"/>
<stop offset="1" stop-color="#296BBF" stop-opacity="0"/>
</linearGradient>
</defs>
</svg>
